%TF.GenerationSoftware,KiCad,Pcbnew,(7.0.0-0)*%
%TF.CreationDate,2023-08-09T13:49:59+02:00*%
%TF.ProjectId,shine-usb-c,7368696e-652d-4757-9362-2d632e6b6963,1*%
%TF.SameCoordinates,Original*%
%TF.FileFunction,Copper,L1,Top*%
%TF.FilePolarity,Positive*%
%FSLAX46Y46*%
G04 Gerber Fmt 4.6, Leading zero omitted, Abs format (unit mm)*
G04 Created by KiCad (PCBNEW (7.0.0-0)) date 2023-08-09 13:49:59*
%MOMM*%
%LPD*%
G01*
G04 APERTURE LIST*
%TA.AperFunction,ComponentPad*%
%ADD10O,1.000000X1.800000*%
%TD*%
%TA.AperFunction,ComponentPad*%
%ADD11O,1.000000X2.100000*%
%TD*%
%TA.AperFunction,ComponentPad*%
%ADD12C,1.400000*%
%TD*%
%TA.AperFunction,ComponentPad*%
%ADD13O,1.400000X1.400000*%
%TD*%
%TA.AperFunction,ComponentPad*%
%ADD14R,1.350000X1.350000*%
%TD*%
%TA.AperFunction,ComponentPad*%
%ADD15O,1.350000X1.350000*%
%TD*%
%TA.AperFunction,ViaPad*%
%ADD16C,0.800000*%
%TD*%
%TA.AperFunction,Conductor*%
%ADD17C,0.381000*%
%TD*%
%TA.AperFunction,Conductor*%
%ADD18C,0.254000*%
%TD*%
G04 APERTURE END LIST*
D10*
%TO.P,J2,S1,SHELL*%
%TO.N,GND*%
X148679999Y-89174999D03*
%TO.P,J2,S2,SHELL*%
X157319999Y-89174999D03*
D11*
%TO.P,J2,S3,SHELL*%
X148679999Y-93354998D03*
%TO.P,J2,S4,SHELL*%
X157319999Y-93354998D03*
%TD*%
D12*
%TO.P,R2,1*%
%TO.N,Net-(J2-CC1)*%
X145210000Y-94400000D03*
D13*
%TO.P,R2,2*%
%TO.N,GND*%
X137589999Y-94399999D03*
%TD*%
D12*
%TO.P,R1,1*%
%TO.N,Net-(J2-CC2)*%
X145210000Y-92100000D03*
D13*
%TO.P,R1,2*%
%TO.N,GND*%
X137589999Y-92099999D03*
%TD*%
D14*
%TO.P,J1,1,Pin_1*%
%TO.N,GND*%
X176249999Y-91999999D03*
D15*
%TO.P,J1,2,Pin_2*%
X176249999Y-93999999D03*
%TO.P,J1,3,Pin_3*%
%TO.N,/CONN_D+*%
X176249999Y-95999999D03*
%TO.P,J1,4,Pin_4*%
%TO.N,/CONN_D-*%
X176249999Y-97999999D03*
%TO.P,J1,5,Pin_5*%
%TO.N,/CONN_VBUS*%
X176249999Y-99999999D03*
%TD*%
D16*
%TO.N,/CONN_VBUS*%
X150600000Y-95200000D03*
X155400000Y-95200000D03*
%TO.N,/CONN_D+*%
X153360760Y-96039240D03*
%TD*%
D17*
%TO.N,/CONN_VBUS*%
X155400000Y-95200000D02*
X150600000Y-95200000D01*
D18*
%TO.N,/CONN_D+*%
X153360760Y-96039240D02*
X153400000Y-96000000D01*
X153400000Y-96000000D02*
X176250000Y-96000000D01*
%TD*%
%TA.AperFunction,Conductor*%
%TO.N,GND*%
G36*
X148347033Y-87618768D02*
G01*
X148392769Y-87669391D01*
X148404805Y-87736545D01*
X148379497Y-87799902D01*
X148324506Y-87840282D01*
X148243230Y-87870382D01*
X148231993Y-87875894D01*
X148070073Y-87976819D01*
X148060179Y-87984478D01*
X147921885Y-88115936D01*
X147913737Y-88125427D01*
X147804734Y-88282036D01*
X147798665Y-88292970D01*
X147723418Y-88468318D01*
X147719675Y-88480247D01*
X147681265Y-88667152D01*
X147680000Y-88679598D01*
X147680000Y-88908674D01*
X147683450Y-88921549D01*
X147696326Y-88925000D01*
X149663674Y-88925000D01*
X149676549Y-88921549D01*
X149680000Y-88908674D01*
X149680000Y-88727430D01*
X149679682Y-88721164D01*
X149665216Y-88578915D01*
X149662698Y-88566664D01*
X149605580Y-88384614D01*
X149600644Y-88373110D01*
X149508045Y-88206279D01*
X149500902Y-88196017D01*
X149376620Y-88051245D01*
X149367541Y-88042614D01*
X149216670Y-87925832D01*
X149206042Y-87919207D01*
X149035041Y-87835328D01*
X148985769Y-87791711D01*
X148965752Y-87729025D01*
X148980627Y-87664924D01*
X149026205Y-87617460D01*
X149089650Y-87600000D01*
X156921441Y-87600000D01*
X156987033Y-87618768D01*
X157032769Y-87669391D01*
X157044805Y-87736545D01*
X157019497Y-87799902D01*
X156964506Y-87840282D01*
X156883230Y-87870382D01*
X156871993Y-87875894D01*
X156710073Y-87976819D01*
X156700179Y-87984478D01*
X156561885Y-88115936D01*
X156553737Y-88125427D01*
X156444734Y-88282036D01*
X156438665Y-88292970D01*
X156363418Y-88468318D01*
X156359675Y-88480247D01*
X156321265Y-88667152D01*
X156320000Y-88679598D01*
X156320000Y-88908674D01*
X156323450Y-88921549D01*
X156336326Y-88925000D01*
X158303674Y-88925000D01*
X158316549Y-88921549D01*
X158320000Y-88908674D01*
X158320000Y-88727430D01*
X158319682Y-88721164D01*
X158305216Y-88578915D01*
X158302698Y-88566664D01*
X158245580Y-88384614D01*
X158240644Y-88373110D01*
X158148045Y-88206279D01*
X158140902Y-88196017D01*
X158016620Y-88051245D01*
X158007541Y-88042614D01*
X157856670Y-87925832D01*
X157846042Y-87919207D01*
X157675041Y-87835328D01*
X157625769Y-87791711D01*
X157605752Y-87729025D01*
X157620627Y-87664924D01*
X157666205Y-87617460D01*
X157729650Y-87600000D01*
X177276000Y-87600000D01*
X177338000Y-87616613D01*
X177383387Y-87662000D01*
X177400000Y-87724000D01*
X177400000Y-90808282D01*
X177381495Y-90873449D01*
X177331504Y-90919166D01*
X177264946Y-90931788D01*
X177201688Y-90907548D01*
X177174190Y-90886962D01*
X177158777Y-90878547D01*
X177039641Y-90834111D01*
X177024667Y-90830573D01*
X176976114Y-90825353D01*
X176969518Y-90825000D01*
X176516326Y-90825000D01*
X176503450Y-90828450D01*
X176500000Y-90841326D01*
X176500000Y-94126000D01*
X176483387Y-94188000D01*
X176438000Y-94233387D01*
X176376000Y-94250000D01*
X175113880Y-94250000D01*
X175102911Y-94252579D01*
X175103432Y-94263838D01*
X175148080Y-94420757D01*
X175152208Y-94431413D01*
X175244160Y-94616078D01*
X175250169Y-94625782D01*
X175374487Y-94790406D01*
X175382181Y-94798847D01*
X175501944Y-94908024D01*
X175537672Y-94965726D01*
X175537673Y-95033595D01*
X175501944Y-95091298D01*
X175377573Y-95204678D01*
X175374124Y-95209244D01*
X175374115Y-95209255D01*
X175288049Y-95323227D01*
X175244367Y-95359500D01*
X175189095Y-95372500D01*
X156425046Y-95372500D01*
X156359336Y-95353658D01*
X156313596Y-95302859D01*
X156301725Y-95235539D01*
X156304781Y-95206461D01*
X156304781Y-95206460D01*
X156305460Y-95200000D01*
X156285674Y-95011744D01*
X156227179Y-94831716D01*
X156132533Y-94667784D01*
X156085751Y-94615828D01*
X156010220Y-94531942D01*
X156010219Y-94531941D01*
X156005871Y-94527112D01*
X156000613Y-94523292D01*
X156000611Y-94523290D01*
X155857988Y-94419669D01*
X155857987Y-94419668D01*
X155852730Y-94415849D01*
X155846792Y-94413205D01*
X155685745Y-94341501D01*
X155685740Y-94341499D01*
X155679803Y-94338856D01*
X155673444Y-94337504D01*
X155673440Y-94337503D01*
X155501008Y-94300852D01*
X155501005Y-94300851D01*
X155494646Y-94299500D01*
X155305354Y-94299500D01*
X155298995Y-94300851D01*
X155298991Y-94300852D01*
X155126559Y-94337503D01*
X155126552Y-94337505D01*
X155120197Y-94338856D01*
X155114262Y-94341498D01*
X155114254Y-94341501D01*
X154953207Y-94413205D01*
X154953202Y-94413207D01*
X154947270Y-94415849D01*
X154942016Y-94419665D01*
X154942011Y-94419669D01*
X154851654Y-94485318D01*
X154817087Y-94502931D01*
X154778769Y-94509000D01*
X151221231Y-94509000D01*
X151182913Y-94502931D01*
X151148346Y-94485318D01*
X151132381Y-94473719D01*
X151074152Y-94431413D01*
X151057988Y-94419669D01*
X151057987Y-94419668D01*
X151052730Y-94415849D01*
X151046792Y-94413205D01*
X150885745Y-94341501D01*
X150885740Y-94341499D01*
X150879803Y-94338856D01*
X150873444Y-94337504D01*
X150873440Y-94337503D01*
X150701008Y-94300852D01*
X150701005Y-94300851D01*
X150694646Y-94299500D01*
X150505354Y-94299500D01*
X150498995Y-94300851D01*
X150498991Y-94300852D01*
X150326559Y-94337503D01*
X150326552Y-94337505D01*
X150320197Y-94338856D01*
X150314262Y-94341498D01*
X150314254Y-94341501D01*
X150153207Y-94413205D01*
X150153202Y-94413207D01*
X150147270Y-94415849D01*
X150142016Y-94419665D01*
X150142011Y-94419669D01*
X149999388Y-94523290D01*
X149999381Y-94523295D01*
X149994129Y-94527112D01*
X149989784Y-94531937D01*
X149989779Y-94531942D01*
X149871813Y-94662956D01*
X149871808Y-94662962D01*
X149867467Y-94667784D01*
X149864222Y-94673404D01*
X149864218Y-94673410D01*
X149776069Y-94826089D01*
X149776066Y-94826094D01*
X149772821Y-94831716D01*
X149770815Y-94837888D01*
X149770813Y-94837894D01*
X149716333Y-95005564D01*
X149716331Y-95005573D01*
X149714326Y-95011744D01*
X149713648Y-95018194D01*
X149713646Y-95018204D01*
X149695962Y-95186464D01*
X149694540Y-95200000D01*
X149695219Y-95206460D01*
X149713646Y-95381795D01*
X149713647Y-95381803D01*
X149714326Y-95388256D01*
X149716331Y-95394428D01*
X149716333Y-95394435D01*
X149744417Y-95480867D01*
X149772821Y-95568284D01*
X149867467Y-95732216D01*
X149871811Y-95737041D01*
X149871813Y-95737043D01*
X149989779Y-95868057D01*
X149994129Y-95872888D01*
X150147270Y-95984151D01*
X150320197Y-96061144D01*
X150505354Y-96100500D01*
X150688143Y-96100500D01*
X150694646Y-96100500D01*
X150879803Y-96061144D01*
X151052730Y-95984151D01*
X151148347Y-95914681D01*
X151182913Y-95897069D01*
X151221231Y-95891000D01*
X152333164Y-95891000D01*
X152398873Y-95909841D01*
X152444613Y-95960639D01*
X152456485Y-96027956D01*
X152455979Y-96032772D01*
X152455979Y-96032779D01*
X152455300Y-96039240D01*
X152455979Y-96045700D01*
X152474406Y-96221035D01*
X152474407Y-96221043D01*
X152475086Y-96227496D01*
X152477091Y-96233668D01*
X152477093Y-96233675D01*
X152531573Y-96401345D01*
X152533581Y-96407524D01*
X152628227Y-96571456D01*
X152632571Y-96576281D01*
X152632573Y-96576283D01*
X152715630Y-96668527D01*
X152754889Y-96712128D01*
X152760147Y-96715948D01*
X152760148Y-96715949D01*
X152831459Y-96767759D01*
X152908030Y-96823391D01*
X153080957Y-96900384D01*
X153266114Y-96939740D01*
X153448903Y-96939740D01*
X153455406Y-96939740D01*
X153640563Y-96900384D01*
X153813490Y-96823391D01*
X153966631Y-96712128D01*
X153983387Y-96693519D01*
X154005891Y-96668527D01*
X154047605Y-96638220D01*
X154098040Y-96627500D01*
X175189095Y-96627500D01*
X175244367Y-96640500D01*
X175288049Y-96676773D01*
X175374115Y-96790744D01*
X175374120Y-96790749D01*
X175377573Y-96795322D01*
X175381809Y-96799183D01*
X175381813Y-96799188D01*
X175501573Y-96908363D01*
X175537301Y-96966066D01*
X175537301Y-97033934D01*
X175501573Y-97091637D01*
X175381813Y-97200811D01*
X175381803Y-97200821D01*
X175377573Y-97204678D01*
X175374119Y-97209251D01*
X175374116Y-97209255D01*
X175286001Y-97325939D01*
X175246288Y-97378528D01*
X175243738Y-97383648D01*
X175243733Y-97383657D01*
X175151737Y-97568410D01*
X175151733Y-97568418D01*
X175149183Y-97573541D01*
X175089565Y-97783077D01*
X175069464Y-98000000D01*
X175089565Y-98216923D01*
X175149183Y-98426459D01*
X175151735Y-98431585D01*
X175151737Y-98431589D01*
X175243733Y-98616342D01*
X175243735Y-98616346D01*
X175246288Y-98621472D01*
X175377573Y-98795322D01*
X175381809Y-98799183D01*
X175381813Y-98799188D01*
X175501573Y-98908363D01*
X175537301Y-98966066D01*
X175537301Y-99033934D01*
X175501573Y-99091637D01*
X175381813Y-99200811D01*
X175381803Y-99200821D01*
X175377573Y-99204678D01*
X175374119Y-99209251D01*
X175374116Y-99209255D01*
X175286001Y-99325939D01*
X175246288Y-99378528D01*
X175243738Y-99383648D01*
X175243733Y-99383657D01*
X175151737Y-99568410D01*
X175151733Y-99568418D01*
X175149183Y-99573541D01*
X175089565Y-99783077D01*
X175069464Y-100000000D01*
X175089565Y-100216923D01*
X175149183Y-100426459D01*
X175151735Y-100431585D01*
X175151737Y-100431589D01*
X175243733Y-100616342D01*
X175243735Y-100616346D01*
X175246288Y-100621472D01*
X175249741Y-100626044D01*
X175374115Y-100790744D01*
X175374120Y-100790749D01*
X175376436Y-100793816D01*
X175376437Y-100793818D01*
X175377573Y-100795322D01*
X175377363Y-100795480D01*
X175403311Y-100842066D01*
X175405933Y-100898785D01*
X175382998Y-100950727D01*
X175339315Y-100987000D01*
X175284044Y-101000000D01*
X171200000Y-101000000D01*
X171200000Y-101016326D01*
X171200000Y-102403533D01*
X171180993Y-102469505D01*
X171128744Y-102552661D01*
X171126444Y-102559233D01*
X171126443Y-102559236D01*
X171071838Y-102715285D01*
X171071835Y-102715294D01*
X171069537Y-102721864D01*
X171068757Y-102728780D01*
X171068756Y-102728788D01*
X171050246Y-102893077D01*
X171049466Y-102900000D01*
X171050246Y-102906923D01*
X171068756Y-103071211D01*
X171068757Y-103071217D01*
X171069537Y-103078136D01*
X171071836Y-103084707D01*
X171071838Y-103084714D01*
X171122795Y-103230339D01*
X171128744Y-103247339D01*
X171148157Y-103278235D01*
X171180994Y-103330495D01*
X171200000Y-103396467D01*
X171200000Y-104101917D01*
X171183472Y-104163770D01*
X171138293Y-104209134D01*
X171076508Y-104225915D01*
X128724506Y-104399489D01*
X128662294Y-104383047D01*
X128616698Y-104337638D01*
X128600000Y-104275491D01*
X128600000Y-102925000D01*
X133324466Y-102925000D01*
X133325246Y-102931923D01*
X133343756Y-103096211D01*
X133343757Y-103096217D01*
X133344537Y-103103136D01*
X133346836Y-103109707D01*
X133346838Y-103109714D01*
X133392695Y-103240763D01*
X133403744Y-103272339D01*
X133499117Y-103424125D01*
X133625875Y-103550883D01*
X133777661Y-103646256D01*
X133946864Y-103705463D01*
X134080322Y-103720500D01*
X134166193Y-103720500D01*
X134169678Y-103720500D01*
X134303136Y-103705463D01*
X134472339Y-103646256D01*
X134624125Y-103550883D01*
X134750883Y-103424125D01*
X134846256Y-103272339D01*
X134905463Y-103103136D01*
X134925534Y-102925000D01*
X134905463Y-102746864D01*
X134846256Y-102577661D01*
X134750883Y-102425875D01*
X134624125Y-102299117D01*
X134472339Y-102203744D01*
X134303136Y-102144537D01*
X134296217Y-102143757D01*
X134296211Y-102143756D01*
X134173144Y-102129890D01*
X134173134Y-102129889D01*
X134169678Y-102129500D01*
X134080322Y-102129500D01*
X134076866Y-102129889D01*
X134076855Y-102129890D01*
X133953788Y-102143756D01*
X133953780Y-102143757D01*
X133946864Y-102144537D01*
X133940290Y-102146837D01*
X133940287Y-102146838D01*
X133784236Y-102201443D01*
X133784233Y-102201444D01*
X133777661Y-102203744D01*
X133771766Y-102207447D01*
X133771764Y-102207449D01*
X133631775Y-102295409D01*
X133631770Y-102295412D01*
X133625875Y-102299117D01*
X133620950Y-102304041D01*
X133620946Y-102304045D01*
X133504045Y-102420946D01*
X133504041Y-102420950D01*
X133499117Y-102425875D01*
X133495412Y-102431770D01*
X133495409Y-102431775D01*
X133419452Y-102552661D01*
X133403744Y-102577661D01*
X133401444Y-102584233D01*
X133401443Y-102584236D01*
X133346838Y-102740285D01*
X133346835Y-102740294D01*
X133344537Y-102746864D01*
X133343757Y-102753780D01*
X133343756Y-102753788D01*
X133328063Y-102893077D01*
X133324466Y-102925000D01*
X128600000Y-102925000D01*
X128600000Y-94652580D01*
X136416920Y-94652580D01*
X136417440Y-94663835D01*
X136464672Y-94829840D01*
X136468792Y-94840474D01*
X136562813Y-95029295D01*
X136568820Y-95038997D01*
X136695932Y-95207320D01*
X136703630Y-95215764D01*
X136859505Y-95357862D01*
X136868609Y-95364738D01*
X137047950Y-95475781D01*
X137058163Y-95480867D01*
X137254855Y-95557066D01*
X137265831Y-95560188D01*
X137326570Y-95571542D01*
X137337598Y-95571160D01*
X137340000Y-95560393D01*
X137840000Y-95560393D01*
X137842401Y-95571160D01*
X137853429Y-95571542D01*
X137914168Y-95560188D01*
X137925144Y-95557066D01*
X138121836Y-95480867D01*
X138132049Y-95475781D01*
X138311390Y-95364738D01*
X138320494Y-95357862D01*
X138476369Y-95215764D01*
X138484067Y-95207320D01*
X138611179Y-95038997D01*
X138617186Y-95029295D01*
X138711207Y-94840474D01*
X138715327Y-94829840D01*
X138762559Y-94663835D01*
X138763079Y-94652580D01*
X138752110Y-94650000D01*
X137856326Y-94650000D01*
X137843450Y-94653450D01*
X137840000Y-94666326D01*
X137840000Y-95560393D01*
X137340000Y-95560393D01*
X137340000Y-94666326D01*
X137336549Y-94653450D01*
X137323674Y-94650000D01*
X136427890Y-94650000D01*
X136416920Y-94652580D01*
X128600000Y-94652580D01*
X128600000Y-94400000D01*
X144004357Y-94400000D01*
X144024885Y-94621536D01*
X144029394Y-94637384D01*
X144084201Y-94830013D01*
X144084204Y-94830021D01*
X144085771Y-94835528D01*
X144088323Y-94840653D01*
X144088325Y-94840658D01*
X144182387Y-95029559D01*
X144182389Y-95029563D01*
X144184942Y-95034689D01*
X144188391Y-95039256D01*
X144188394Y-95039261D01*
X144315561Y-95207658D01*
X144315566Y-95207663D01*
X144319019Y-95212236D01*
X144323255Y-95216097D01*
X144323259Y-95216102D01*
X144422401Y-95306481D01*
X144483438Y-95362124D01*
X144672599Y-95479247D01*
X144880060Y-95559618D01*
X145098757Y-95600500D01*
X145315514Y-95600500D01*
X145321243Y-95600500D01*
X145539940Y-95559618D01*
X145747401Y-95479247D01*
X145936562Y-95362124D01*
X146100981Y-95212236D01*
X146235058Y-95034689D01*
X146334229Y-94835528D01*
X146395115Y-94621536D01*
X146415643Y-94400000D01*
X146395115Y-94178464D01*
X146334229Y-93964472D01*
X146328302Y-93952569D01*
X147680000Y-93952569D01*
X147680317Y-93958834D01*
X147694783Y-94101083D01*
X147697301Y-94113334D01*
X147754419Y-94295384D01*
X147759355Y-94306888D01*
X147851954Y-94473719D01*
X147859097Y-94483981D01*
X147983379Y-94628753D01*
X147992458Y-94637384D01*
X148143329Y-94754166D01*
X148153957Y-94760791D01*
X148325256Y-94844816D01*
X148336997Y-94849164D01*
X148416253Y-94869685D01*
X148427464Y-94869970D01*
X148428627Y-94864961D01*
X148930000Y-94864961D01*
X148932337Y-94875644D01*
X148937502Y-94875972D01*
X148937840Y-94875884D01*
X149116760Y-94809620D01*
X149128006Y-94804104D01*
X149289926Y-94703179D01*
X149299820Y-94695520D01*
X149438114Y-94564062D01*
X149446262Y-94554571D01*
X149555265Y-94397962D01*
X149561334Y-94387028D01*
X149636581Y-94211680D01*
X149640324Y-94199751D01*
X149678734Y-94012846D01*
X149680000Y-94000401D01*
X149680000Y-93952569D01*
X156320000Y-93952569D01*
X156320317Y-93958834D01*
X156334783Y-94101083D01*
X156337301Y-94113334D01*
X156394419Y-94295384D01*
X156399355Y-94306888D01*
X156491954Y-94473719D01*
X156499097Y-94483981D01*
X156623379Y-94628753D01*
X156632458Y-94637384D01*
X156783329Y-94754166D01*
X156793957Y-94760791D01*
X156965256Y-94844816D01*
X156976997Y-94849164D01*
X157056253Y-94869685D01*
X157067464Y-94869970D01*
X157068627Y-94864961D01*
X157570000Y-94864961D01*
X157572337Y-94875644D01*
X157577502Y-94875972D01*
X157577840Y-94875884D01*
X157756760Y-94809620D01*
X157768006Y-94804104D01*
X157929926Y-94703179D01*
X157939820Y-94695520D01*
X158078114Y-94564062D01*
X158086262Y-94554571D01*
X158195265Y-94397962D01*
X158201334Y-94387028D01*
X158276581Y-94211680D01*
X158280324Y-94199751D01*
X158318734Y-94012846D01*
X158320000Y-94000401D01*
X158320000Y-93621325D01*
X158316549Y-93608449D01*
X158303674Y-93604999D01*
X157586326Y-93604999D01*
X157573450Y-93608449D01*
X157570000Y-93621325D01*
X157570000Y-94864961D01*
X157068627Y-94864961D01*
X157070000Y-94859045D01*
X157070000Y-93621325D01*
X157066549Y-93608449D01*
X157053674Y-93604999D01*
X156336326Y-93604999D01*
X156323450Y-93608449D01*
X156320000Y-93621325D01*
X156320000Y-93952569D01*
X149680000Y-93952569D01*
X149680000Y-93621325D01*
X149676549Y-93608449D01*
X149663674Y-93604999D01*
X148946326Y-93604999D01*
X148933450Y-93608449D01*
X148930000Y-93621325D01*
X148930000Y-94864961D01*
X148428627Y-94864961D01*
X148430000Y-94859045D01*
X148430000Y-93621325D01*
X148426549Y-93608449D01*
X148413674Y-93604999D01*
X147696326Y-93604999D01*
X147683450Y-93608449D01*
X147680000Y-93621325D01*
X147680000Y-93952569D01*
X146328302Y-93952569D01*
X146235058Y-93765311D01*
X146223496Y-93750000D01*
X146104438Y-93592341D01*
X146104434Y-93592337D01*
X146100981Y-93587764D01*
X146096744Y-93583901D01*
X146096740Y-93583897D01*
X145940796Y-93441736D01*
X145940797Y-93441736D01*
X145936562Y-93437876D01*
X145931692Y-93434861D01*
X145931690Y-93434859D01*
X145849421Y-93383921D01*
X145803400Y-93355425D01*
X145760349Y-93310339D01*
X145744678Y-93250000D01*
X145760349Y-93189661D01*
X145803400Y-93144574D01*
X145893684Y-93088673D01*
X147680000Y-93088673D01*
X147683450Y-93101548D01*
X147696326Y-93104999D01*
X148413674Y-93104999D01*
X148426549Y-93101548D01*
X148430000Y-93088673D01*
X148930000Y-93088673D01*
X148933450Y-93101548D01*
X148946326Y-93104999D01*
X149613954Y-93104999D01*
X149673380Y-93120166D01*
X149718268Y-93161958D01*
X149726881Y-93175359D01*
X149731676Y-93182820D01*
X149839358Y-93276127D01*
X149968966Y-93335317D01*
X150074564Y-93350500D01*
X150141010Y-93350500D01*
X150145436Y-93350500D01*
X150251034Y-93335317D01*
X150380642Y-93276127D01*
X150488324Y-93182820D01*
X150565357Y-93062955D01*
X150605500Y-92926242D01*
X155394500Y-92926242D01*
X155396997Y-92934746D01*
X155396998Y-92934752D01*
X155423525Y-93025092D01*
X155434643Y-93062955D01*
X155511676Y-93182820D01*
X155619358Y-93276127D01*
X155748966Y-93335317D01*
X155854564Y-93350500D01*
X155921010Y-93350500D01*
X155925436Y-93350500D01*
X156031034Y-93335317D01*
X156160642Y-93276127D01*
X156268324Y-93182820D01*
X156277924Y-93167882D01*
X156281732Y-93161958D01*
X156326620Y-93120166D01*
X156386046Y-93104999D01*
X157053674Y-93104999D01*
X157066549Y-93101548D01*
X157070000Y-93088673D01*
X157570000Y-93088673D01*
X157573450Y-93101548D01*
X157586326Y-93104999D01*
X158303674Y-93104999D01*
X158316549Y-93101548D01*
X158320000Y-93088673D01*
X158320000Y-92757429D01*
X158319682Y-92751163D01*
X158316464Y-92719518D01*
X175075000Y-92719518D01*
X175075353Y-92726114D01*
X175080573Y-92774667D01*
X175084111Y-92789641D01*
X175128547Y-92908777D01*
X175136962Y-92924189D01*
X175212498Y-93025092D01*
X175224907Y-93037501D01*
X175303806Y-93096565D01*
X175343552Y-93147179D01*
X175352576Y-93210898D01*
X175328449Y-93270558D01*
X175250169Y-93374217D01*
X175244160Y-93383921D01*
X175152208Y-93568586D01*
X175148080Y-93579242D01*
X175103432Y-93736161D01*
X175102911Y-93747420D01*
X175113880Y-93750000D01*
X175983674Y-93750000D01*
X175996549Y-93746549D01*
X176000000Y-93733674D01*
X176000000Y-92266326D01*
X175996549Y-92253450D01*
X175983674Y-92250000D01*
X175091326Y-92250000D01*
X175078450Y-92253450D01*
X175075000Y-92266326D01*
X175075000Y-92719518D01*
X158316464Y-92719518D01*
X158305216Y-92608914D01*
X158302698Y-92596663D01*
X158245580Y-92414613D01*
X158240644Y-92403109D01*
X158148045Y-92236278D01*
X158140902Y-92226016D01*
X158016620Y-92081244D01*
X158007541Y-92072613D01*
X157856670Y-91955831D01*
X157846042Y-91949206D01*
X157674743Y-91865181D01*
X157663002Y-91860833D01*
X157583746Y-91840312D01*
X157572535Y-91840027D01*
X157570000Y-91850953D01*
X157570000Y-93088673D01*
X157070000Y-93088673D01*
X157070000Y-91845037D01*
X157067662Y-91834353D01*
X157062497Y-91834025D01*
X157062159Y-91834113D01*
X156883239Y-91900377D01*
X156871993Y-91905893D01*
X156710073Y-92006818D01*
X156700179Y-92014477D01*
X156561885Y-92145935D01*
X156553737Y-92155426D01*
X156444734Y-92312035D01*
X156438665Y-92322969D01*
X156395529Y-92423489D01*
X156361040Y-92469782D01*
X156309329Y-92495444D01*
X156251604Y-92494912D01*
X156200375Y-92468302D01*
X156196789Y-92465195D01*
X156160642Y-92433873D01*
X156152574Y-92430188D01*
X156152572Y-92430187D01*
X156039106Y-92378369D01*
X156039103Y-92378368D01*
X156031034Y-92374683D01*
X156022252Y-92373420D01*
X156022251Y-92373420D01*
X155929816Y-92360129D01*
X155929805Y-92360128D01*
X155925436Y-92359500D01*
X155854564Y-92359500D01*
X155850195Y-92360128D01*
X155850183Y-92360129D01*
X155757748Y-92373420D01*
X155757745Y-92373420D01*
X155748966Y-92374683D01*
X155740898Y-92378367D01*
X155740893Y-92378369D01*
X155627427Y-92430187D01*
X155627421Y-92430190D01*
X155619358Y-92433873D01*
X155612660Y-92439676D01*
X155612655Y-92439680D01*
X155518375Y-92521375D01*
X155511676Y-92527180D01*
X155506885Y-92534634D01*
X155506883Y-92534637D01*
X155439437Y-92639584D01*
X155439434Y-92639588D01*
X155434643Y-92647045D01*
X155432145Y-92655550D01*
X155432144Y-92655554D01*
X155396998Y-92775247D01*
X155396996Y-92775254D01*
X155394500Y-92783758D01*
X155394500Y-92926242D01*
X150605500Y-92926242D01*
X150605500Y-92783758D01*
X150565357Y-92647045D01*
X150488324Y-92527180D01*
X150380642Y-92433873D01*
X150372574Y-92430188D01*
X150372572Y-92430187D01*
X150259106Y-92378369D01*
X150259103Y-92378368D01*
X150251034Y-92374683D01*
X150242252Y-92373420D01*
X150242251Y-92373420D01*
X150149816Y-92360129D01*
X150149805Y-92360128D01*
X150145436Y-92359500D01*
X150074564Y-92359500D01*
X150070195Y-92360128D01*
X150070183Y-92360129D01*
X149977748Y-92373420D01*
X149977745Y-92373420D01*
X149968966Y-92374683D01*
X149960898Y-92378367D01*
X149960893Y-92378369D01*
X149847427Y-92430187D01*
X149847421Y-92430190D01*
X149839358Y-92433873D01*
X149832658Y-92439678D01*
X149832651Y-92439683D01*
X149803209Y-92465195D01*
X149751979Y-92491805D01*
X149694253Y-92492336D01*
X149642542Y-92466673D01*
X149608055Y-92420378D01*
X149600647Y-92403115D01*
X149508045Y-92236278D01*
X149500902Y-92226016D01*
X149376620Y-92081244D01*
X149367541Y-92072613D01*
X149216670Y-91955831D01*
X149206042Y-91949206D01*
X149034743Y-91865181D01*
X149023002Y-91860833D01*
X148943746Y-91840312D01*
X148932535Y-91840027D01*
X148930000Y-91850953D01*
X148930000Y-93088673D01*
X148430000Y-93088673D01*
X148430000Y-91845037D01*
X148427662Y-91834353D01*
X148422497Y-91834025D01*
X148422159Y-91834113D01*
X148243239Y-91900377D01*
X148231993Y-91905893D01*
X148070073Y-92006818D01*
X148060179Y-92014477D01*
X147921885Y-92145935D01*
X147913737Y-92155426D01*
X147804734Y-92312035D01*
X147798665Y-92322969D01*
X147723418Y-92498317D01*
X147719675Y-92510246D01*
X147681265Y-92697151D01*
X147680000Y-92709597D01*
X147680000Y-93088673D01*
X145893684Y-93088673D01*
X145936562Y-93062124D01*
X146100981Y-92912236D01*
X146235058Y-92734689D01*
X146334229Y-92535528D01*
X146395115Y-92321536D01*
X146415643Y-92100000D01*
X146395115Y-91878464D01*
X146353919Y-91733674D01*
X175075000Y-91733674D01*
X175078450Y-91746549D01*
X175091326Y-91750000D01*
X175983674Y-91750000D01*
X175996549Y-91746549D01*
X176000000Y-91733674D01*
X176000000Y-90841326D01*
X175996549Y-90828450D01*
X175983674Y-90825000D01*
X175530482Y-90825000D01*
X175523885Y-90825353D01*
X175475332Y-90830573D01*
X175460358Y-90834111D01*
X175341222Y-90878547D01*
X175325810Y-90886962D01*
X175224907Y-90962498D01*
X175212498Y-90974907D01*
X175136962Y-91075810D01*
X175128547Y-91091222D01*
X175084111Y-91210358D01*
X175080573Y-91225332D01*
X175075353Y-91273885D01*
X175075000Y-91280482D01*
X175075000Y-91733674D01*
X146353919Y-91733674D01*
X146334229Y-91664472D01*
X146235058Y-91465311D01*
X146104693Y-91292679D01*
X146104438Y-91292341D01*
X146104434Y-91292337D01*
X146100981Y-91287764D01*
X146096744Y-91283901D01*
X146096740Y-91283897D01*
X145940796Y-91141736D01*
X145940797Y-91141736D01*
X145936562Y-91137876D01*
X145931692Y-91134861D01*
X145931690Y-91134859D01*
X145752275Y-91023771D01*
X145752276Y-91023771D01*
X145747401Y-91020753D01*
X145539940Y-90940382D01*
X145493967Y-90931788D01*
X145326872Y-90900552D01*
X145326869Y-90900551D01*
X145321243Y-90899500D01*
X145098757Y-90899500D01*
X145093131Y-90900551D01*
X145093127Y-90900552D01*
X144885697Y-90939328D01*
X144885694Y-90939328D01*
X144880060Y-90940382D01*
X144874717Y-90942451D01*
X144874713Y-90942453D01*
X144677941Y-91018683D01*
X144677936Y-91018685D01*
X144672599Y-91020753D01*
X144667727Y-91023769D01*
X144667724Y-91023771D01*
X144488309Y-91134859D01*
X144488301Y-91134864D01*
X144483438Y-91137876D01*
X144479207Y-91141732D01*
X144479203Y-91141736D01*
X144323259Y-91283897D01*
X144323249Y-91283907D01*
X144319019Y-91287764D01*
X144315570Y-91292330D01*
X144315561Y-91292341D01*
X144188394Y-91460738D01*
X144188387Y-91460748D01*
X144184942Y-91465311D01*
X144182392Y-91470431D01*
X144182387Y-91470440D01*
X144088325Y-91659341D01*
X144088321Y-91659349D01*
X144085771Y-91664472D01*
X144084205Y-91669975D01*
X144084201Y-91669986D01*
X144029901Y-91860833D01*
X144024885Y-91878464D01*
X144004357Y-92100000D01*
X144024885Y-92321536D01*
X144026454Y-92327050D01*
X144084201Y-92530013D01*
X144084204Y-92530021D01*
X144085771Y-92535528D01*
X144088323Y-92540653D01*
X144088325Y-92540658D01*
X144182387Y-92729559D01*
X144182389Y-92729563D01*
X144184942Y-92734689D01*
X144188391Y-92739256D01*
X144188394Y-92739261D01*
X144315561Y-92907658D01*
X144315566Y-92907663D01*
X144319019Y-92912236D01*
X144323255Y-92916097D01*
X144323259Y-92916102D01*
X144435603Y-93018517D01*
X144483438Y-93062124D01*
X144488308Y-93065139D01*
X144488309Y-93065140D01*
X144616598Y-93144573D01*
X144659650Y-93189661D01*
X144675321Y-93250000D01*
X144659650Y-93310339D01*
X144616598Y-93355427D01*
X144488309Y-93434859D01*
X144488301Y-93434864D01*
X144483438Y-93437876D01*
X144479207Y-93441732D01*
X144479203Y-93441736D01*
X144323259Y-93583897D01*
X144323249Y-93583907D01*
X144319019Y-93587764D01*
X144315570Y-93592330D01*
X144315561Y-93592341D01*
X144188394Y-93760738D01*
X144188387Y-93760748D01*
X144184942Y-93765311D01*
X144182392Y-93770431D01*
X144182387Y-93770440D01*
X144088325Y-93959341D01*
X144088321Y-93959349D01*
X144085771Y-93964472D01*
X144084205Y-93969975D01*
X144084201Y-93969986D01*
X144026454Y-94172949D01*
X144024885Y-94178464D01*
X144024356Y-94184169D01*
X144024356Y-94184171D01*
X144013544Y-94300852D01*
X144004357Y-94400000D01*
X128600000Y-94400000D01*
X128600000Y-94147419D01*
X136416920Y-94147419D01*
X136427890Y-94150000D01*
X137323674Y-94150000D01*
X137336549Y-94146549D01*
X137340000Y-94133674D01*
X137840000Y-94133674D01*
X137843450Y-94146549D01*
X137856326Y-94150000D01*
X138752110Y-94150000D01*
X138763079Y-94147419D01*
X138762559Y-94136164D01*
X138715327Y-93970159D01*
X138711207Y-93959525D01*
X138617186Y-93770704D01*
X138611179Y-93761002D01*
X138484067Y-93592679D01*
X138476369Y-93584235D01*
X138320494Y-93442137D01*
X138311390Y-93435261D01*
X138182453Y-93355427D01*
X138139402Y-93310339D01*
X138123731Y-93250000D01*
X138139402Y-93189661D01*
X138182453Y-93144573D01*
X138311390Y-93064738D01*
X138320494Y-93057862D01*
X138476369Y-92915764D01*
X138484067Y-92907320D01*
X138611179Y-92738997D01*
X138617186Y-92729295D01*
X138711207Y-92540474D01*
X138715327Y-92529840D01*
X138762559Y-92363835D01*
X138763079Y-92352580D01*
X138752110Y-92350000D01*
X137856326Y-92350000D01*
X137843450Y-92353450D01*
X137840000Y-92366326D01*
X137840000Y-94133674D01*
X137340000Y-94133674D01*
X137340000Y-92366326D01*
X137336549Y-92353450D01*
X137323674Y-92350000D01*
X136427890Y-92350000D01*
X136416920Y-92352580D01*
X136417440Y-92363835D01*
X136464672Y-92529840D01*
X136468792Y-92540474D01*
X136562813Y-92729295D01*
X136568820Y-92738997D01*
X136695932Y-92907320D01*
X136703630Y-92915764D01*
X136859505Y-93057862D01*
X136868609Y-93064738D01*
X136997546Y-93144573D01*
X137040597Y-93189661D01*
X137056268Y-93250000D01*
X137040597Y-93310339D01*
X136997546Y-93355427D01*
X136868609Y-93435261D01*
X136859505Y-93442137D01*
X136703630Y-93584235D01*
X136695932Y-93592679D01*
X136568820Y-93761002D01*
X136562813Y-93770704D01*
X136468792Y-93959525D01*
X136464672Y-93970159D01*
X136417440Y-94136164D01*
X136416920Y-94147419D01*
X128600000Y-94147419D01*
X128600000Y-91847419D01*
X136416920Y-91847419D01*
X136427890Y-91850000D01*
X137323674Y-91850000D01*
X137336549Y-91846549D01*
X137340000Y-91833674D01*
X137840000Y-91833674D01*
X137843450Y-91846549D01*
X137856326Y-91850000D01*
X138752110Y-91850000D01*
X138763079Y-91847419D01*
X138762559Y-91836164D01*
X138715327Y-91670159D01*
X138711207Y-91659525D01*
X138617186Y-91470704D01*
X138611179Y-91461002D01*
X138484067Y-91292679D01*
X138476369Y-91284235D01*
X138320494Y-91142137D01*
X138311390Y-91135261D01*
X138132049Y-91024218D01*
X138121836Y-91019132D01*
X137925144Y-90942933D01*
X137914168Y-90939811D01*
X137853429Y-90928457D01*
X137842401Y-90928839D01*
X137840000Y-90939607D01*
X137840000Y-91833674D01*
X137340000Y-91833674D01*
X137340000Y-90939607D01*
X137337598Y-90928839D01*
X137326570Y-90928457D01*
X137265831Y-90939811D01*
X137254855Y-90942933D01*
X137058163Y-91019132D01*
X137047950Y-91024218D01*
X136868609Y-91135261D01*
X136859505Y-91142137D01*
X136703630Y-91284235D01*
X136695932Y-91292679D01*
X136568820Y-91461002D01*
X136562813Y-91470704D01*
X136468792Y-91659525D01*
X136464672Y-91670159D01*
X136417440Y-91836164D01*
X136416920Y-91847419D01*
X128600000Y-91847419D01*
X128600000Y-89330591D01*
X128615249Y-89271016D01*
X128657244Y-89226094D01*
X128715658Y-89206872D01*
X128776124Y-89218078D01*
X128823770Y-89256957D01*
X128846877Y-89313945D01*
X128856348Y-89383855D01*
X128858068Y-89389148D01*
X128858069Y-89389153D01*
X128925296Y-89596059D01*
X128925299Y-89596067D01*
X128927018Y-89601356D01*
X128929656Y-89606258D01*
X129032753Y-89797846D01*
X129032757Y-89797852D01*
X129035389Y-89802743D01*
X129038854Y-89807087D01*
X129038856Y-89807091D01*
X129088827Y-89869752D01*
X129177978Y-89981544D01*
X129182170Y-89985206D01*
X129346003Y-90128343D01*
X129346007Y-90128346D01*
X129350201Y-90132010D01*
X129546523Y-90249307D01*
X129760634Y-90329665D01*
X129985653Y-90370500D01*
X130154277Y-90370500D01*
X130157054Y-90370500D01*
X130327773Y-90355135D01*
X130548226Y-90294294D01*
X130754272Y-90195067D01*
X130939290Y-90060644D01*
X131097332Y-89895345D01*
X131223318Y-89704483D01*
X131313201Y-89494193D01*
X131364090Y-89271233D01*
X131371781Y-89100000D01*
X133324466Y-89100000D01*
X133325246Y-89106923D01*
X133343756Y-89271211D01*
X133343757Y-89271217D01*
X133344537Y-89278136D01*
X133346836Y-89284707D01*
X133346838Y-89284714D01*
X133379598Y-89378335D01*
X133403744Y-89447339D01*
X133407449Y-89453235D01*
X133470796Y-89554053D01*
X133499117Y-89599125D01*
X133625875Y-89725883D01*
X133777661Y-89821256D01*
X133946864Y-89880463D01*
X134080322Y-89895500D01*
X134166193Y-89895500D01*
X134169678Y-89895500D01*
X134303136Y-89880463D01*
X134472339Y-89821256D01*
X134624125Y-89725883D01*
X134727438Y-89622570D01*
X147680000Y-89622570D01*
X147680317Y-89628835D01*
X147694783Y-89771084D01*
X147697301Y-89783335D01*
X147754419Y-89965385D01*
X147759355Y-89976889D01*
X147851954Y-90143720D01*
X147859097Y-90153982D01*
X147983379Y-90298754D01*
X147992458Y-90307385D01*
X148143329Y-90424167D01*
X148153957Y-90430792D01*
X148325256Y-90514817D01*
X148336997Y-90519165D01*
X148416253Y-90539686D01*
X148427464Y-90539971D01*
X148428627Y-90534962D01*
X148930000Y-90534962D01*
X148932337Y-90545645D01*
X148937502Y-90545973D01*
X148937840Y-90545885D01*
X149116760Y-90479621D01*
X149128006Y-90474105D01*
X149289926Y-90373180D01*
X149299820Y-90365521D01*
X149438114Y-90234063D01*
X149446262Y-90224572D01*
X149555265Y-90067963D01*
X149561334Y-90057029D01*
X149636581Y-89881681D01*
X149640324Y-89869752D01*
X149678734Y-89682847D01*
X149680000Y-89670402D01*
X149680000Y-89622570D01*
X156320000Y-89622570D01*
X156320317Y-89628835D01*
X156334783Y-89771084D01*
X156337301Y-89783335D01*
X156394419Y-89965385D01*
X156399355Y-89976889D01*
X156491954Y-90143720D01*
X156499097Y-90153982D01*
X156623379Y-90298754D01*
X156632458Y-90307385D01*
X156783329Y-90424167D01*
X156793957Y-90430792D01*
X156965256Y-90514817D01*
X156976997Y-90519165D01*
X157056253Y-90539686D01*
X157067464Y-90539971D01*
X157068627Y-90534962D01*
X157570000Y-90534962D01*
X157572337Y-90545645D01*
X157577502Y-90545973D01*
X157577840Y-90545885D01*
X157756760Y-90479621D01*
X157768006Y-90474105D01*
X157929926Y-90373180D01*
X157939820Y-90365521D01*
X158078114Y-90234063D01*
X158086262Y-90224572D01*
X158195265Y-90067963D01*
X158201334Y-90057029D01*
X158276581Y-89881681D01*
X158280324Y-89869752D01*
X158318734Y-89682847D01*
X158320000Y-89670402D01*
X158320000Y-89441326D01*
X158316549Y-89428450D01*
X158303674Y-89425000D01*
X157586326Y-89425000D01*
X157573450Y-89428450D01*
X157570000Y-89441326D01*
X157570000Y-90534962D01*
X157068627Y-90534962D01*
X157070000Y-90529046D01*
X157070000Y-89441326D01*
X157066549Y-89428450D01*
X157053674Y-89425000D01*
X156336326Y-89425000D01*
X156323450Y-89428450D01*
X156320000Y-89441326D01*
X156320000Y-89622570D01*
X149680000Y-89622570D01*
X149680000Y-89441326D01*
X149676549Y-89428450D01*
X149663674Y-89425000D01*
X148946326Y-89425000D01*
X148933450Y-89428450D01*
X148930000Y-89441326D01*
X148930000Y-90534962D01*
X148428627Y-90534962D01*
X148430000Y-90529046D01*
X148430000Y-89441326D01*
X148426549Y-89428450D01*
X148413674Y-89425000D01*
X147696326Y-89425000D01*
X147683450Y-89428450D01*
X147680000Y-89441326D01*
X147680000Y-89622570D01*
X134727438Y-89622570D01*
X134750883Y-89599125D01*
X134846256Y-89447339D01*
X134905463Y-89278136D01*
X134925534Y-89100000D01*
X134919900Y-89050000D01*
X171049466Y-89050000D01*
X171050246Y-89056923D01*
X171068756Y-89221211D01*
X171068757Y-89221217D01*
X171069537Y-89228136D01*
X171071836Y-89234707D01*
X171071838Y-89234714D01*
X171122094Y-89378335D01*
X171128744Y-89397339D01*
X171224117Y-89549125D01*
X171350875Y-89675883D01*
X171502661Y-89771256D01*
X171671864Y-89830463D01*
X171805322Y-89845500D01*
X171891193Y-89845500D01*
X171894678Y-89845500D01*
X172028136Y-89830463D01*
X172197339Y-89771256D01*
X172349125Y-89675883D01*
X172475883Y-89549125D01*
X172571256Y-89397339D01*
X172630463Y-89228136D01*
X172650534Y-89050000D01*
X172630463Y-88871864D01*
X172571256Y-88702661D01*
X172475883Y-88550875D01*
X172349125Y-88424117D01*
X172197339Y-88328744D01*
X172028136Y-88269537D01*
X172021217Y-88268757D01*
X172021211Y-88268756D01*
X171898144Y-88254890D01*
X171898134Y-88254889D01*
X171894678Y-88254500D01*
X171805322Y-88254500D01*
X171801866Y-88254889D01*
X171801855Y-88254890D01*
X171678788Y-88268756D01*
X171678780Y-88268757D01*
X171671864Y-88269537D01*
X171665290Y-88271837D01*
X171665287Y-88271838D01*
X171509236Y-88326443D01*
X171509233Y-88326444D01*
X171502661Y-88328744D01*
X171496766Y-88332447D01*
X171496764Y-88332449D01*
X171356775Y-88420409D01*
X171356770Y-88420412D01*
X171350875Y-88424117D01*
X171345950Y-88429041D01*
X171345946Y-88429045D01*
X171229045Y-88545946D01*
X171229041Y-88545950D01*
X171224117Y-88550875D01*
X171220412Y-88556770D01*
X171220409Y-88556775D01*
X171143235Y-88679598D01*
X171128744Y-88702661D01*
X171126444Y-88709233D01*
X171126443Y-88709236D01*
X171071838Y-88865285D01*
X171071835Y-88865294D01*
X171069537Y-88871864D01*
X171068757Y-88878780D01*
X171068756Y-88878788D01*
X171050902Y-89037254D01*
X171049466Y-89050000D01*
X134919900Y-89050000D01*
X134905463Y-88921864D01*
X134846256Y-88752661D01*
X134750883Y-88600875D01*
X134624125Y-88474117D01*
X134472339Y-88378744D01*
X134303136Y-88319537D01*
X134296217Y-88318757D01*
X134296211Y-88318756D01*
X134173144Y-88304890D01*
X134173134Y-88304889D01*
X134169678Y-88304500D01*
X134080322Y-88304500D01*
X134076866Y-88304889D01*
X134076855Y-88304890D01*
X133953788Y-88318756D01*
X133953780Y-88318757D01*
X133946864Y-88319537D01*
X133940290Y-88321837D01*
X133940287Y-88321838D01*
X133784236Y-88376443D01*
X133784233Y-88376444D01*
X133777661Y-88378744D01*
X133771766Y-88382447D01*
X133771764Y-88382449D01*
X133631775Y-88470409D01*
X133631770Y-88470412D01*
X133625875Y-88474117D01*
X133620950Y-88479041D01*
X133620946Y-88479045D01*
X133504045Y-88595946D01*
X133504041Y-88595950D01*
X133499117Y-88600875D01*
X133495412Y-88606770D01*
X133495409Y-88606775D01*
X133407449Y-88746764D01*
X133403744Y-88752661D01*
X133401444Y-88759233D01*
X133401443Y-88759236D01*
X133346838Y-88915285D01*
X133346835Y-88915294D01*
X133344537Y-88921864D01*
X133343757Y-88928780D01*
X133343756Y-88928788D01*
X133325246Y-89093077D01*
X133324466Y-89100000D01*
X131371781Y-89100000D01*
X131374351Y-89042769D01*
X131343652Y-88816145D01*
X131299285Y-88679598D01*
X131274703Y-88603940D01*
X131274702Y-88603937D01*
X131272982Y-88598644D01*
X131164611Y-88397257D01*
X131149847Y-88378744D01*
X131102631Y-88319537D01*
X131022022Y-88218456D01*
X130936090Y-88143380D01*
X130853996Y-88071656D01*
X130853990Y-88071652D01*
X130849799Y-88067990D01*
X130845021Y-88065135D01*
X130845018Y-88065133D01*
X130658254Y-87953547D01*
X130658252Y-87953546D01*
X130653477Y-87950693D01*
X130648268Y-87948738D01*
X130648264Y-87948736D01*
X130444581Y-87872292D01*
X130444578Y-87872291D01*
X130439366Y-87870335D01*
X130433890Y-87869341D01*
X130433882Y-87869339D01*
X130305308Y-87846007D01*
X130250136Y-87820947D01*
X130213428Y-87772735D01*
X130203948Y-87712885D01*
X130223962Y-87655689D01*
X130268689Y-87614806D01*
X130327449Y-87600000D01*
X148281441Y-87600000D01*
X148347033Y-87618768D01*
G37*
%TD.AperFunction*%
%TD*%
M02*
