%TF.GenerationSoftware,KiCad,Pcbnew,(7.0.0-0)*%
%TF.CreationDate,2023-08-09T13:49:59+02:00*%
%TF.ProjectId,shine-usb-c,7368696e-652d-4757-9362-2d632e6b6963,1*%
%TF.SameCoordinates,Original*%
%TF.FileFunction,Legend,Top*%
%TF.FilePolarity,Positive*%
%FSLAX46Y46*%
G04 Gerber Fmt 4.6, Leading zero omitted, Abs format (unit mm)*
G04 Created by KiCad (PCBNEW (7.0.0-0)) date 2023-08-09 13:49:59*
%MOMM*%
%LPD*%
G01*
G04 APERTURE LIST*
G04 Aperture macros list*
%AMRoundRect*
0 Rectangle with rounded corners*
0 $1 Rounding radius*
0 $2 $3 $4 $5 $6 $7 $8 $9 X,Y pos of 4 corners*
0 Add a 4 corners polygon primitive as box body*
4,1,4,$2,$3,$4,$5,$6,$7,$8,$9,$2,$3,0*
0 Add four circle primitives for the rounded corners*
1,1,$1+$1,$2,$3*
1,1,$1+$1,$4,$5*
1,1,$1+$1,$6,$7*
1,1,$1+$1,$8,$9*
0 Add four rect primitives between the rounded corners*
20,1,$1+$1,$2,$3,$4,$5,0*
20,1,$1+$1,$4,$5,$6,$7,0*
20,1,$1+$1,$6,$7,$8,$9,0*
20,1,$1+$1,$8,$9,$2,$3,0*%
G04 Aperture macros list end*
%ADD10C,0.150000*%
%ADD11C,0.200000*%
%ADD12C,0.120000*%
%ADD13C,0.726000*%
%ADD14O,1.076000X1.876000*%
%ADD15O,1.076000X2.176000*%
%ADD16C,1.476000*%
%ADD17O,1.476000X1.476000*%
%ADD18C,1.326000*%
%ADD19C,2.276000*%
%ADD20RoundRect,0.038000X0.675000X0.675000X-0.675000X0.675000X-0.675000X-0.675000X0.675000X-0.675000X0*%
%ADD21O,1.426000X1.426000*%
G04 APERTURE END LIST*
D10*
X170150000Y-90800000D02*
X171800000Y-90800000D01*
X172400000Y-90800000D02*
X174050000Y-90800000D01*
X174650000Y-90800000D02*
X176300000Y-90800000D01*
X176900000Y-90800000D02*
X177300000Y-90800000D01*
X177300000Y-90800000D02*
X177300000Y-92450000D01*
X177300000Y-93050000D02*
X177300000Y-94700000D01*
X177300000Y-95300000D02*
X177300000Y-96950000D01*
X177300000Y-97550000D02*
X177300000Y-99200000D01*
X177300000Y-99800000D02*
X177300000Y-101200000D01*
X177300000Y-101200000D02*
X175650000Y-101200000D01*
X175050000Y-101200000D02*
X173400000Y-101200000D01*
X172800000Y-101200000D02*
X171150000Y-101200000D01*
X170550000Y-101200000D02*
X170150000Y-101200000D01*
X170150000Y-101200000D02*
X170150000Y-99550000D01*
X170150000Y-98950000D02*
X170150000Y-97300000D01*
X170150000Y-96700000D02*
X170150000Y-95050000D01*
X170150000Y-94450000D02*
X170150000Y-92800000D01*
X170150000Y-92200000D02*
X170150000Y-90800000D01*
X167920939Y-97399617D02*
X170156133Y-97399617D01*
X170156133Y-97399617D02*
X170156133Y-101199617D01*
X170156133Y-101199617D02*
X167920939Y-101199617D01*
X167920939Y-101199617D02*
X167920939Y-97399617D01*
G36*
X167920939Y-97399617D02*
G01*
X170156133Y-97399617D01*
X170156133Y-101199617D01*
X167920939Y-101199617D01*
X167920939Y-97399617D01*
G37*
X136838095Y-101982380D02*
X136838095Y-100982380D01*
X136838095Y-100982380D02*
X137171428Y-101696666D01*
X137171428Y-101696666D02*
X137504761Y-100982380D01*
X137504761Y-100982380D02*
X137504761Y-101982380D01*
X138123809Y-101982380D02*
X138028571Y-101934761D01*
X138028571Y-101934761D02*
X137980952Y-101887142D01*
X137980952Y-101887142D02*
X137933333Y-101791904D01*
X137933333Y-101791904D02*
X137933333Y-101506190D01*
X137933333Y-101506190D02*
X137980952Y-101410952D01*
X137980952Y-101410952D02*
X138028571Y-101363333D01*
X138028571Y-101363333D02*
X138123809Y-101315714D01*
X138123809Y-101315714D02*
X138266666Y-101315714D01*
X138266666Y-101315714D02*
X138361904Y-101363333D01*
X138361904Y-101363333D02*
X138409523Y-101410952D01*
X138409523Y-101410952D02*
X138457142Y-101506190D01*
X138457142Y-101506190D02*
X138457142Y-101791904D01*
X138457142Y-101791904D02*
X138409523Y-101887142D01*
X138409523Y-101887142D02*
X138361904Y-101934761D01*
X138361904Y-101934761D02*
X138266666Y-101982380D01*
X138266666Y-101982380D02*
X138123809Y-101982380D01*
X139314285Y-101982380D02*
X139314285Y-100982380D01*
X139314285Y-101934761D02*
X139219047Y-101982380D01*
X139219047Y-101982380D02*
X139028571Y-101982380D01*
X139028571Y-101982380D02*
X138933333Y-101934761D01*
X138933333Y-101934761D02*
X138885714Y-101887142D01*
X138885714Y-101887142D02*
X138838095Y-101791904D01*
X138838095Y-101791904D02*
X138838095Y-101506190D01*
X138838095Y-101506190D02*
X138885714Y-101410952D01*
X138885714Y-101410952D02*
X138933333Y-101363333D01*
X138933333Y-101363333D02*
X139028571Y-101315714D01*
X139028571Y-101315714D02*
X139219047Y-101315714D01*
X139219047Y-101315714D02*
X139314285Y-101363333D01*
X140247619Y-101315714D02*
X140628571Y-101315714D01*
X140390476Y-101982380D02*
X140390476Y-101125238D01*
X140390476Y-101125238D02*
X140438095Y-101030000D01*
X140438095Y-101030000D02*
X140533333Y-100982380D01*
X140533333Y-100982380D02*
X140628571Y-100982380D01*
X141104762Y-101982380D02*
X141009524Y-101934761D01*
X141009524Y-101934761D02*
X140961905Y-101887142D01*
X140961905Y-101887142D02*
X140914286Y-101791904D01*
X140914286Y-101791904D02*
X140914286Y-101506190D01*
X140914286Y-101506190D02*
X140961905Y-101410952D01*
X140961905Y-101410952D02*
X141009524Y-101363333D01*
X141009524Y-101363333D02*
X141104762Y-101315714D01*
X141104762Y-101315714D02*
X141247619Y-101315714D01*
X141247619Y-101315714D02*
X141342857Y-101363333D01*
X141342857Y-101363333D02*
X141390476Y-101410952D01*
X141390476Y-101410952D02*
X141438095Y-101506190D01*
X141438095Y-101506190D02*
X141438095Y-101791904D01*
X141438095Y-101791904D02*
X141390476Y-101887142D01*
X141390476Y-101887142D02*
X141342857Y-101934761D01*
X141342857Y-101934761D02*
X141247619Y-101982380D01*
X141247619Y-101982380D02*
X141104762Y-101982380D01*
X141866667Y-101982380D02*
X141866667Y-101315714D01*
X141866667Y-101506190D02*
X141914286Y-101410952D01*
X141914286Y-101410952D02*
X141961905Y-101363333D01*
X141961905Y-101363333D02*
X142057143Y-101315714D01*
X142057143Y-101315714D02*
X142152381Y-101315714D01*
X143085715Y-101982380D02*
X143085715Y-100982380D01*
X143085715Y-100982380D02*
X143323810Y-100982380D01*
X143323810Y-100982380D02*
X143466667Y-101030000D01*
X143466667Y-101030000D02*
X143561905Y-101125238D01*
X143561905Y-101125238D02*
X143609524Y-101220476D01*
X143609524Y-101220476D02*
X143657143Y-101410952D01*
X143657143Y-101410952D02*
X143657143Y-101553809D01*
X143657143Y-101553809D02*
X143609524Y-101744285D01*
X143609524Y-101744285D02*
X143561905Y-101839523D01*
X143561905Y-101839523D02*
X143466667Y-101934761D01*
X143466667Y-101934761D02*
X143323810Y-101982380D01*
X143323810Y-101982380D02*
X143085715Y-101982380D01*
X144085715Y-101982380D02*
X144085715Y-100982380D01*
X144657143Y-101982380D02*
X144228572Y-101410952D01*
X144657143Y-100982380D02*
X144085715Y-101553809D01*
X145133334Y-101982380D02*
X145323810Y-101982380D01*
X145323810Y-101982380D02*
X145419048Y-101934761D01*
X145419048Y-101934761D02*
X145466667Y-101887142D01*
X145466667Y-101887142D02*
X145561905Y-101744285D01*
X145561905Y-101744285D02*
X145609524Y-101553809D01*
X145609524Y-101553809D02*
X145609524Y-101172857D01*
X145609524Y-101172857D02*
X145561905Y-101077619D01*
X145561905Y-101077619D02*
X145514286Y-101030000D01*
X145514286Y-101030000D02*
X145419048Y-100982380D01*
X145419048Y-100982380D02*
X145228572Y-100982380D01*
X145228572Y-100982380D02*
X145133334Y-101030000D01*
X145133334Y-101030000D02*
X145085715Y-101077619D01*
X145085715Y-101077619D02*
X145038096Y-101172857D01*
X145038096Y-101172857D02*
X145038096Y-101410952D01*
X145038096Y-101410952D02*
X145085715Y-101506190D01*
X145085715Y-101506190D02*
X145133334Y-101553809D01*
X145133334Y-101553809D02*
X145228572Y-101601428D01*
X145228572Y-101601428D02*
X145419048Y-101601428D01*
X145419048Y-101601428D02*
X145514286Y-101553809D01*
X145514286Y-101553809D02*
X145561905Y-101506190D01*
X145561905Y-101506190D02*
X145609524Y-101410952D01*
X146228572Y-100982380D02*
X146323810Y-100982380D01*
X146323810Y-100982380D02*
X146419048Y-101030000D01*
X146419048Y-101030000D02*
X146466667Y-101077619D01*
X146466667Y-101077619D02*
X146514286Y-101172857D01*
X146514286Y-101172857D02*
X146561905Y-101363333D01*
X146561905Y-101363333D02*
X146561905Y-101601428D01*
X146561905Y-101601428D02*
X146514286Y-101791904D01*
X146514286Y-101791904D02*
X146466667Y-101887142D01*
X146466667Y-101887142D02*
X146419048Y-101934761D01*
X146419048Y-101934761D02*
X146323810Y-101982380D01*
X146323810Y-101982380D02*
X146228572Y-101982380D01*
X146228572Y-101982380D02*
X146133334Y-101934761D01*
X146133334Y-101934761D02*
X146085715Y-101887142D01*
X146085715Y-101887142D02*
X146038096Y-101791904D01*
X146038096Y-101791904D02*
X145990477Y-101601428D01*
X145990477Y-101601428D02*
X145990477Y-101363333D01*
X145990477Y-101363333D02*
X146038096Y-101172857D01*
X146038096Y-101172857D02*
X146085715Y-101077619D01*
X146085715Y-101077619D02*
X146133334Y-101030000D01*
X146133334Y-101030000D02*
X146228572Y-100982380D01*
X147180953Y-100982380D02*
X147276191Y-100982380D01*
X147276191Y-100982380D02*
X147371429Y-101030000D01*
X147371429Y-101030000D02*
X147419048Y-101077619D01*
X147419048Y-101077619D02*
X147466667Y-101172857D01*
X147466667Y-101172857D02*
X147514286Y-101363333D01*
X147514286Y-101363333D02*
X147514286Y-101601428D01*
X147514286Y-101601428D02*
X147466667Y-101791904D01*
X147466667Y-101791904D02*
X147419048Y-101887142D01*
X147419048Y-101887142D02*
X147371429Y-101934761D01*
X147371429Y-101934761D02*
X147276191Y-101982380D01*
X147276191Y-101982380D02*
X147180953Y-101982380D01*
X147180953Y-101982380D02*
X147085715Y-101934761D01*
X147085715Y-101934761D02*
X147038096Y-101887142D01*
X147038096Y-101887142D02*
X146990477Y-101791904D01*
X146990477Y-101791904D02*
X146942858Y-101601428D01*
X146942858Y-101601428D02*
X146942858Y-101363333D01*
X146942858Y-101363333D02*
X146990477Y-101172857D01*
X146990477Y-101172857D02*
X147038096Y-101077619D01*
X147038096Y-101077619D02*
X147085715Y-101030000D01*
X147085715Y-101030000D02*
X147180953Y-100982380D01*
X148085715Y-101410952D02*
X147990477Y-101363333D01*
X147990477Y-101363333D02*
X147942858Y-101315714D01*
X147942858Y-101315714D02*
X147895239Y-101220476D01*
X147895239Y-101220476D02*
X147895239Y-101172857D01*
X147895239Y-101172857D02*
X147942858Y-101077619D01*
X147942858Y-101077619D02*
X147990477Y-101030000D01*
X147990477Y-101030000D02*
X148085715Y-100982380D01*
X148085715Y-100982380D02*
X148276191Y-100982380D01*
X148276191Y-100982380D02*
X148371429Y-101030000D01*
X148371429Y-101030000D02*
X148419048Y-101077619D01*
X148419048Y-101077619D02*
X148466667Y-101172857D01*
X148466667Y-101172857D02*
X148466667Y-101220476D01*
X148466667Y-101220476D02*
X148419048Y-101315714D01*
X148419048Y-101315714D02*
X148371429Y-101363333D01*
X148371429Y-101363333D02*
X148276191Y-101410952D01*
X148276191Y-101410952D02*
X148085715Y-101410952D01*
X148085715Y-101410952D02*
X147990477Y-101458571D01*
X147990477Y-101458571D02*
X147942858Y-101506190D01*
X147942858Y-101506190D02*
X147895239Y-101601428D01*
X147895239Y-101601428D02*
X147895239Y-101791904D01*
X147895239Y-101791904D02*
X147942858Y-101887142D01*
X147942858Y-101887142D02*
X147990477Y-101934761D01*
X147990477Y-101934761D02*
X148085715Y-101982380D01*
X148085715Y-101982380D02*
X148276191Y-101982380D01*
X148276191Y-101982380D02*
X148371429Y-101934761D01*
X148371429Y-101934761D02*
X148419048Y-101887142D01*
X148419048Y-101887142D02*
X148466667Y-101791904D01*
X148466667Y-101791904D02*
X148466667Y-101601428D01*
X148466667Y-101601428D02*
X148419048Y-101506190D01*
X148419048Y-101506190D02*
X148371429Y-101458571D01*
X148371429Y-101458571D02*
X148276191Y-101410952D01*
X148847620Y-101934761D02*
X148990477Y-101982380D01*
X148990477Y-101982380D02*
X149228572Y-101982380D01*
X149228572Y-101982380D02*
X149323810Y-101934761D01*
X149323810Y-101934761D02*
X149371429Y-101887142D01*
X149371429Y-101887142D02*
X149419048Y-101791904D01*
X149419048Y-101791904D02*
X149419048Y-101696666D01*
X149419048Y-101696666D02*
X149371429Y-101601428D01*
X149371429Y-101601428D02*
X149323810Y-101553809D01*
X149323810Y-101553809D02*
X149228572Y-101506190D01*
X149228572Y-101506190D02*
X149038096Y-101458571D01*
X149038096Y-101458571D02*
X148942858Y-101410952D01*
X148942858Y-101410952D02*
X148895239Y-101363333D01*
X148895239Y-101363333D02*
X148847620Y-101268095D01*
X148847620Y-101268095D02*
X148847620Y-101172857D01*
X148847620Y-101172857D02*
X148895239Y-101077619D01*
X148895239Y-101077619D02*
X148942858Y-101030000D01*
X148942858Y-101030000D02*
X149038096Y-100982380D01*
X149038096Y-100982380D02*
X149276191Y-100982380D01*
X149276191Y-100982380D02*
X149419048Y-101030000D01*
X149752382Y-100982380D02*
X150371429Y-100982380D01*
X150371429Y-100982380D02*
X150038096Y-101363333D01*
X150038096Y-101363333D02*
X150180953Y-101363333D01*
X150180953Y-101363333D02*
X150276191Y-101410952D01*
X150276191Y-101410952D02*
X150323810Y-101458571D01*
X150323810Y-101458571D02*
X150371429Y-101553809D01*
X150371429Y-101553809D02*
X150371429Y-101791904D01*
X150371429Y-101791904D02*
X150323810Y-101887142D01*
X150323810Y-101887142D02*
X150276191Y-101934761D01*
X150276191Y-101934761D02*
X150180953Y-101982380D01*
X150180953Y-101982380D02*
X149895239Y-101982380D01*
X149895239Y-101982380D02*
X149800001Y-101934761D01*
X149800001Y-101934761D02*
X149752382Y-101887142D01*
X151638096Y-102315714D02*
X151638096Y-100887142D01*
X153523810Y-101982380D02*
X153190477Y-101506190D01*
X152952382Y-101982380D02*
X152952382Y-100982380D01*
X152952382Y-100982380D02*
X153333334Y-100982380D01*
X153333334Y-100982380D02*
X153428572Y-101030000D01*
X153428572Y-101030000D02*
X153476191Y-101077619D01*
X153476191Y-101077619D02*
X153523810Y-101172857D01*
X153523810Y-101172857D02*
X153523810Y-101315714D01*
X153523810Y-101315714D02*
X153476191Y-101410952D01*
X153476191Y-101410952D02*
X153428572Y-101458571D01*
X153428572Y-101458571D02*
X153333334Y-101506190D01*
X153333334Y-101506190D02*
X152952382Y-101506190D01*
X154333334Y-101934761D02*
X154238096Y-101982380D01*
X154238096Y-101982380D02*
X154047620Y-101982380D01*
X154047620Y-101982380D02*
X153952382Y-101934761D01*
X153952382Y-101934761D02*
X153904763Y-101839523D01*
X153904763Y-101839523D02*
X153904763Y-101458571D01*
X153904763Y-101458571D02*
X153952382Y-101363333D01*
X153952382Y-101363333D02*
X154047620Y-101315714D01*
X154047620Y-101315714D02*
X154238096Y-101315714D01*
X154238096Y-101315714D02*
X154333334Y-101363333D01*
X154333334Y-101363333D02*
X154380953Y-101458571D01*
X154380953Y-101458571D02*
X154380953Y-101553809D01*
X154380953Y-101553809D02*
X153904763Y-101649047D01*
X154714287Y-101315714D02*
X154952382Y-101982380D01*
X154952382Y-101982380D02*
X155190477Y-101315714D01*
X156095239Y-101982380D02*
X155523811Y-101982380D01*
X155809525Y-101982380D02*
X155809525Y-100982380D01*
X155809525Y-100982380D02*
X155714287Y-101125238D01*
X155714287Y-101125238D02*
X155619049Y-101220476D01*
X155619049Y-101220476D02*
X155523811Y-101268095D01*
X157409525Y-102363333D02*
X157361906Y-102315714D01*
X157361906Y-102315714D02*
X157266668Y-102172857D01*
X157266668Y-102172857D02*
X157219049Y-102077619D01*
X157219049Y-102077619D02*
X157171430Y-101934761D01*
X157171430Y-101934761D02*
X157123811Y-101696666D01*
X157123811Y-101696666D02*
X157123811Y-101506190D01*
X157123811Y-101506190D02*
X157171430Y-101268095D01*
X157171430Y-101268095D02*
X157219049Y-101125238D01*
X157219049Y-101125238D02*
X157266668Y-101030000D01*
X157266668Y-101030000D02*
X157361906Y-100887142D01*
X157361906Y-100887142D02*
X157409525Y-100839523D01*
X157742859Y-101077619D02*
X157790478Y-101030000D01*
X157790478Y-101030000D02*
X157885716Y-100982380D01*
X157885716Y-100982380D02*
X158123811Y-100982380D01*
X158123811Y-100982380D02*
X158219049Y-101030000D01*
X158219049Y-101030000D02*
X158266668Y-101077619D01*
X158266668Y-101077619D02*
X158314287Y-101172857D01*
X158314287Y-101172857D02*
X158314287Y-101268095D01*
X158314287Y-101268095D02*
X158266668Y-101410952D01*
X158266668Y-101410952D02*
X157695240Y-101982380D01*
X157695240Y-101982380D02*
X158314287Y-101982380D01*
X158933335Y-100982380D02*
X159028573Y-100982380D01*
X159028573Y-100982380D02*
X159123811Y-101030000D01*
X159123811Y-101030000D02*
X159171430Y-101077619D01*
X159171430Y-101077619D02*
X159219049Y-101172857D01*
X159219049Y-101172857D02*
X159266668Y-101363333D01*
X159266668Y-101363333D02*
X159266668Y-101601428D01*
X159266668Y-101601428D02*
X159219049Y-101791904D01*
X159219049Y-101791904D02*
X159171430Y-101887142D01*
X159171430Y-101887142D02*
X159123811Y-101934761D01*
X159123811Y-101934761D02*
X159028573Y-101982380D01*
X159028573Y-101982380D02*
X158933335Y-101982380D01*
X158933335Y-101982380D02*
X158838097Y-101934761D01*
X158838097Y-101934761D02*
X158790478Y-101887142D01*
X158790478Y-101887142D02*
X158742859Y-101791904D01*
X158742859Y-101791904D02*
X158695240Y-101601428D01*
X158695240Y-101601428D02*
X158695240Y-101363333D01*
X158695240Y-101363333D02*
X158742859Y-101172857D01*
X158742859Y-101172857D02*
X158790478Y-101077619D01*
X158790478Y-101077619D02*
X158838097Y-101030000D01*
X158838097Y-101030000D02*
X158933335Y-100982380D01*
X159647621Y-101077619D02*
X159695240Y-101030000D01*
X159695240Y-101030000D02*
X159790478Y-100982380D01*
X159790478Y-100982380D02*
X160028573Y-100982380D01*
X160028573Y-100982380D02*
X160123811Y-101030000D01*
X160123811Y-101030000D02*
X160171430Y-101077619D01*
X160171430Y-101077619D02*
X160219049Y-101172857D01*
X160219049Y-101172857D02*
X160219049Y-101268095D01*
X160219049Y-101268095D02*
X160171430Y-101410952D01*
X160171430Y-101410952D02*
X159600002Y-101982380D01*
X159600002Y-101982380D02*
X160219049Y-101982380D01*
X160552383Y-100982380D02*
X161171430Y-100982380D01*
X161171430Y-100982380D02*
X160838097Y-101363333D01*
X160838097Y-101363333D02*
X160980954Y-101363333D01*
X160980954Y-101363333D02*
X161076192Y-101410952D01*
X161076192Y-101410952D02*
X161123811Y-101458571D01*
X161123811Y-101458571D02*
X161171430Y-101553809D01*
X161171430Y-101553809D02*
X161171430Y-101791904D01*
X161171430Y-101791904D02*
X161123811Y-101887142D01*
X161123811Y-101887142D02*
X161076192Y-101934761D01*
X161076192Y-101934761D02*
X160980954Y-101982380D01*
X160980954Y-101982380D02*
X160695240Y-101982380D01*
X160695240Y-101982380D02*
X160600002Y-101934761D01*
X160600002Y-101934761D02*
X160552383Y-101887142D01*
X161504764Y-102363333D02*
X161552383Y-102315714D01*
X161552383Y-102315714D02*
X161647621Y-102172857D01*
X161647621Y-102172857D02*
X161695240Y-102077619D01*
X161695240Y-102077619D02*
X161742859Y-101934761D01*
X161742859Y-101934761D02*
X161790478Y-101696666D01*
X161790478Y-101696666D02*
X161790478Y-101506190D01*
X161790478Y-101506190D02*
X161742859Y-101268095D01*
X161742859Y-101268095D02*
X161695240Y-101125238D01*
X161695240Y-101125238D02*
X161647621Y-101030000D01*
X161647621Y-101030000D02*
X161552383Y-100887142D01*
X161552383Y-100887142D02*
X161504764Y-100839523D01*
D11*
G36*
X136674933Y-99548131D02*
G01*
X136676973Y-99562271D01*
X136679048Y-99575947D01*
X136681164Y-99589174D01*
X136683325Y-99601969D01*
X136687807Y-99626325D01*
X136692535Y-99649140D01*
X136697555Y-99670542D01*
X136702907Y-99690656D01*
X136708635Y-99709609D01*
X136714781Y-99727527D01*
X136721389Y-99744538D01*
X136728502Y-99760767D01*
X136736161Y-99776341D01*
X136744410Y-99791387D01*
X136753291Y-99806032D01*
X136762848Y-99820400D01*
X136773123Y-99834620D01*
X136784159Y-99848818D01*
X136793599Y-99860289D01*
X136803519Y-99871424D01*
X136813915Y-99882220D01*
X136824782Y-99892676D01*
X136836114Y-99902789D01*
X136847907Y-99912559D01*
X136860156Y-99921983D01*
X136872855Y-99931060D01*
X136885999Y-99939787D01*
X136899584Y-99948163D01*
X136913605Y-99956186D01*
X136928056Y-99963855D01*
X136942933Y-99971167D01*
X136958231Y-99978121D01*
X136973944Y-99984714D01*
X136990068Y-99990946D01*
X137006597Y-99996814D01*
X137023527Y-100002317D01*
X137040852Y-100007452D01*
X137058568Y-100012218D01*
X137076669Y-100016613D01*
X137095151Y-100020635D01*
X137114009Y-100024283D01*
X137133237Y-100027555D01*
X137152831Y-100030448D01*
X137172786Y-100032961D01*
X137193096Y-100035093D01*
X137213756Y-100036841D01*
X137234762Y-100038204D01*
X137256109Y-100039180D01*
X137277791Y-100039767D01*
X137299804Y-100039963D01*
X137333822Y-100039452D01*
X137366929Y-100037928D01*
X137399113Y-100035398D01*
X137430364Y-100031871D01*
X137460670Y-100027357D01*
X137490020Y-100021864D01*
X137518404Y-100015402D01*
X137545809Y-100007978D01*
X137572226Y-99999602D01*
X137597643Y-99990283D01*
X137622049Y-99980030D01*
X137645434Y-99968851D01*
X137667785Y-99956756D01*
X137689092Y-99943753D01*
X137709344Y-99929851D01*
X137728530Y-99915060D01*
X137746638Y-99899387D01*
X137763659Y-99882843D01*
X137779580Y-99865436D01*
X137794391Y-99847174D01*
X137808080Y-99828067D01*
X137820637Y-99808124D01*
X137832050Y-99787353D01*
X137842309Y-99765763D01*
X137851403Y-99743363D01*
X137859320Y-99720163D01*
X137866049Y-99696171D01*
X137871579Y-99671396D01*
X137875900Y-99645846D01*
X137879000Y-99619531D01*
X137880868Y-99592460D01*
X137881493Y-99564642D01*
X137881273Y-99548191D01*
X137880615Y-99532061D01*
X137879517Y-99516249D01*
X137877980Y-99500756D01*
X137876005Y-99485582D01*
X137873590Y-99470724D01*
X137870736Y-99456185D01*
X137867443Y-99441961D01*
X137863711Y-99428054D01*
X137859540Y-99414463D01*
X137854929Y-99401188D01*
X137849880Y-99388227D01*
X137844392Y-99375580D01*
X137838465Y-99363248D01*
X137832098Y-99351229D01*
X137825293Y-99339523D01*
X137817000Y-99326507D01*
X137808099Y-99313786D01*
X137798620Y-99301379D01*
X137788595Y-99289306D01*
X137778054Y-99277586D01*
X137767029Y-99266240D01*
X137755551Y-99255286D01*
X137743651Y-99244744D01*
X137731361Y-99234634D01*
X137718711Y-99224975D01*
X137705733Y-99215787D01*
X137692457Y-99207089D01*
X137678915Y-99198901D01*
X137665139Y-99191242D01*
X137651159Y-99184132D01*
X137637006Y-99177590D01*
X137623052Y-99171500D01*
X137608602Y-99165586D01*
X137593517Y-99159808D01*
X137577660Y-99154128D01*
X137560891Y-99148506D01*
X137543072Y-99142902D01*
X137524064Y-99137276D01*
X137503729Y-99131590D01*
X137481927Y-99125803D01*
X137458521Y-99119876D01*
X137446173Y-99116847D01*
X137433372Y-99113769D01*
X137420100Y-99110636D01*
X137406341Y-99107444D01*
X137392076Y-99104186D01*
X137377289Y-99100860D01*
X137361962Y-99097458D01*
X137346078Y-99093977D01*
X137329620Y-99090412D01*
X137312570Y-99086757D01*
X137294911Y-99083008D01*
X137276625Y-99079160D01*
X137259680Y-99075162D01*
X137244027Y-99071362D01*
X137229573Y-99067728D01*
X137216228Y-99064227D01*
X137203898Y-99060826D01*
X137187107Y-99055842D01*
X137172083Y-99050901D01*
X137158516Y-99045893D01*
X137146095Y-99040708D01*
X137134509Y-99035237D01*
X137119823Y-99027305D01*
X137108977Y-99020737D01*
X137098829Y-99012683D01*
X137086796Y-99001309D01*
X137076492Y-98989166D01*
X137067937Y-98976206D01*
X137061147Y-98962379D01*
X137056143Y-98947638D01*
X137052943Y-98931934D01*
X137051564Y-98915219D01*
X137051507Y-98910877D01*
X137052525Y-98892834D01*
X137055543Y-98875645D01*
X137060509Y-98859353D01*
X137067368Y-98844000D01*
X137076067Y-98829630D01*
X137086552Y-98816284D01*
X137098770Y-98804007D01*
X137112668Y-98792840D01*
X137128192Y-98782827D01*
X137145289Y-98774010D01*
X137163904Y-98766432D01*
X137183985Y-98760136D01*
X137205478Y-98755165D01*
X137228330Y-98751561D01*
X137252487Y-98749367D01*
X137277896Y-98748626D01*
X137293714Y-98748926D01*
X137309127Y-98749822D01*
X137324117Y-98751307D01*
X137338665Y-98753374D01*
X137352754Y-98756016D01*
X137366365Y-98759225D01*
X137379481Y-98762996D01*
X137392082Y-98767320D01*
X137404152Y-98772191D01*
X137415671Y-98777603D01*
X137431878Y-98786717D01*
X137446745Y-98797007D01*
X137460212Y-98808449D01*
X137472215Y-98821020D01*
X137480902Y-98832703D01*
X137488483Y-98844298D01*
X137495104Y-98856338D01*
X137500911Y-98869362D01*
X137506047Y-98883903D01*
X137509548Y-98896127D01*
X137512814Y-98909733D01*
X137515908Y-98924946D01*
X137518890Y-98941993D01*
X137860219Y-98905479D01*
X137855294Y-98883839D01*
X137850379Y-98863616D01*
X137845439Y-98844704D01*
X137840439Y-98826993D01*
X137835344Y-98810376D01*
X137830119Y-98794745D01*
X137824730Y-98779993D01*
X137819141Y-98766010D01*
X137813317Y-98752690D01*
X137807225Y-98739924D01*
X137800828Y-98727605D01*
X137794092Y-98715624D01*
X137786982Y-98703874D01*
X137779463Y-98692247D01*
X137771501Y-98680635D01*
X137763060Y-98668930D01*
X137753801Y-98657284D01*
X137744125Y-98645982D01*
X137734038Y-98635025D01*
X137723541Y-98624416D01*
X137712640Y-98614156D01*
X137701338Y-98604247D01*
X137689640Y-98594690D01*
X137677549Y-98585488D01*
X137665068Y-98576641D01*
X137652203Y-98568151D01*
X137638958Y-98560021D01*
X137625335Y-98552252D01*
X137611339Y-98544845D01*
X137596974Y-98537803D01*
X137582244Y-98531126D01*
X137567152Y-98524817D01*
X137551704Y-98518878D01*
X137535902Y-98513309D01*
X137519751Y-98508113D01*
X137503255Y-98503291D01*
X137486417Y-98498846D01*
X137469242Y-98494778D01*
X137451733Y-98491089D01*
X137433895Y-98487782D01*
X137415731Y-98484857D01*
X137397246Y-98482317D01*
X137378443Y-98480163D01*
X137359326Y-98478397D01*
X137339899Y-98477021D01*
X137320167Y-98476035D01*
X137300133Y-98475443D01*
X137279801Y-98475245D01*
X137248276Y-98475755D01*
X137217474Y-98477276D01*
X137187414Y-98479794D01*
X137158113Y-98483293D01*
X137129591Y-98487761D01*
X137101864Y-98493182D01*
X137074952Y-98499543D01*
X137048872Y-98506828D01*
X137023643Y-98515024D01*
X136999283Y-98524117D01*
X136975810Y-98534091D01*
X136953243Y-98544934D01*
X136931598Y-98556629D01*
X136910896Y-98569165D01*
X136891153Y-98582524D01*
X136872388Y-98596695D01*
X136854620Y-98611662D01*
X136837866Y-98627410D01*
X136822145Y-98643927D01*
X136807474Y-98661196D01*
X136793873Y-98679205D01*
X136781359Y-98697939D01*
X136769950Y-98717383D01*
X136759665Y-98737523D01*
X136750522Y-98758345D01*
X136742539Y-98779835D01*
X136735734Y-98801977D01*
X136730126Y-98824759D01*
X136725732Y-98848166D01*
X136722571Y-98872182D01*
X136720661Y-98896795D01*
X136720020Y-98921990D01*
X136720187Y-98934726D01*
X136721511Y-98959807D01*
X136724146Y-98984349D01*
X136728076Y-99008330D01*
X136733289Y-99031726D01*
X136739768Y-99054515D01*
X136747501Y-99076676D01*
X136756471Y-99098185D01*
X136766666Y-99119021D01*
X136778070Y-99139162D01*
X136790669Y-99158584D01*
X136804449Y-99177265D01*
X136819395Y-99195184D01*
X136835494Y-99212318D01*
X136852729Y-99228644D01*
X136871088Y-99244141D01*
X136880683Y-99251571D01*
X136893821Y-99260573D01*
X136906901Y-99269042D01*
X136920074Y-99277032D01*
X136933490Y-99284598D01*
X136947301Y-99291793D01*
X136961657Y-99298672D01*
X136976709Y-99305290D01*
X136992608Y-99311701D01*
X137009503Y-99317959D01*
X137027547Y-99324119D01*
X137046889Y-99330235D01*
X137067680Y-99336363D01*
X137090072Y-99342555D01*
X137114214Y-99348867D01*
X137126988Y-99352084D01*
X137140257Y-99355352D01*
X137154039Y-99358677D01*
X137168353Y-99362066D01*
X137186511Y-99366243D01*
X137203855Y-99370264D01*
X137220411Y-99374138D01*
X137236205Y-99377873D01*
X137251264Y-99381479D01*
X137265614Y-99384963D01*
X137279282Y-99388334D01*
X137292293Y-99391600D01*
X137304674Y-99394770D01*
X137327654Y-99400855D01*
X137348430Y-99406656D01*
X137367216Y-99412240D01*
X137384222Y-99417676D01*
X137399659Y-99423029D01*
X137413738Y-99428369D01*
X137426671Y-99433762D01*
X137438669Y-99439275D01*
X137455373Y-99447919D01*
X137471161Y-99457214D01*
X137476343Y-99460496D01*
X137488398Y-99468690D01*
X137499210Y-99477555D01*
X137508791Y-99487093D01*
X137517154Y-99497305D01*
X137524311Y-99508194D01*
X137530275Y-99519760D01*
X137535059Y-99532005D01*
X137538675Y-99544931D01*
X137541136Y-99558539D01*
X137542454Y-99572831D01*
X137542704Y-99582740D01*
X137541621Y-99603058D01*
X137538403Y-99622314D01*
X137533095Y-99640475D01*
X137525741Y-99657505D01*
X137516388Y-99673371D01*
X137505080Y-99688037D01*
X137491862Y-99701470D01*
X137476779Y-99713636D01*
X137459877Y-99724499D01*
X137441201Y-99734025D01*
X137420795Y-99742180D01*
X137398705Y-99748930D01*
X137374976Y-99754239D01*
X137349653Y-99758074D01*
X137336408Y-99759428D01*
X137322782Y-99760401D01*
X137308779Y-99760987D01*
X137294406Y-99761184D01*
X137274926Y-99760805D01*
X137256025Y-99759672D01*
X137237718Y-99757789D01*
X137220018Y-99755161D01*
X137202940Y-99751792D01*
X137186497Y-99747688D01*
X137170703Y-99742853D01*
X137155573Y-99737291D01*
X137141119Y-99731007D01*
X137127357Y-99724006D01*
X137114300Y-99716292D01*
X137101962Y-99707871D01*
X137090357Y-99698746D01*
X137079499Y-99688923D01*
X137069402Y-99678406D01*
X137060080Y-99667199D01*
X137052279Y-99657008D01*
X137043338Y-99643329D01*
X137035871Y-99628936D01*
X137029667Y-99613169D01*
X137025715Y-99600043D01*
X137022264Y-99585492D01*
X137019224Y-99569236D01*
X137016507Y-99550995D01*
X137014831Y-99537595D01*
X137013232Y-99523105D01*
X137012452Y-99515427D01*
X136674933Y-99548131D01*
G37*
G36*
X138386025Y-100019642D02*
G01*
X138383862Y-100001267D01*
X138381893Y-99983585D01*
X138380109Y-99966502D01*
X138378504Y-99949922D01*
X138377070Y-99933749D01*
X138375800Y-99917888D01*
X138374687Y-99902244D01*
X138373722Y-99886721D01*
X138372898Y-99871225D01*
X138372208Y-99855659D01*
X138371645Y-99839928D01*
X138371201Y-99823938D01*
X138370869Y-99807592D01*
X138370641Y-99790795D01*
X138370509Y-99773453D01*
X138370467Y-99755468D01*
X138370467Y-99389690D01*
X138378284Y-99376650D01*
X138386197Y-99364020D01*
X138394203Y-99351802D01*
X138402302Y-99339996D01*
X138410491Y-99328602D01*
X138418769Y-99317619D01*
X138427135Y-99307049D01*
X138435588Y-99296891D01*
X138444124Y-99287146D01*
X138452744Y-99277814D01*
X138470228Y-99260388D01*
X138488026Y-99244615D01*
X138506126Y-99230496D01*
X138524516Y-99218033D01*
X138543184Y-99207227D01*
X138562119Y-99198080D01*
X138581307Y-99190593D01*
X138600738Y-99184767D01*
X138620398Y-99180604D01*
X138640276Y-99178106D01*
X138660359Y-99177272D01*
X138676429Y-99177664D01*
X138691341Y-99178855D01*
X138705160Y-99180872D01*
X138717948Y-99183742D01*
X138732580Y-99188566D01*
X138745824Y-99194814D01*
X138757804Y-99202536D01*
X138760059Y-99204261D01*
X138770854Y-99212812D01*
X138780250Y-99222166D01*
X138788320Y-99232525D01*
X138795137Y-99244090D01*
X138800777Y-99257061D01*
X138805312Y-99271639D01*
X138808815Y-99288026D01*
X138811362Y-99306422D01*
X138812565Y-99319901D01*
X138813397Y-99334423D01*
X138813880Y-99350046D01*
X138814036Y-99366829D01*
X138814036Y-99755468D01*
X138813994Y-99774070D01*
X138813862Y-99791954D01*
X138813633Y-99809215D01*
X138813297Y-99825947D01*
X138812849Y-99842243D01*
X138812278Y-99858198D01*
X138811579Y-99873906D01*
X138810742Y-99889460D01*
X138809760Y-99904955D01*
X138808626Y-99920484D01*
X138807330Y-99936141D01*
X138805865Y-99952021D01*
X138804224Y-99968217D01*
X138802398Y-99984823D01*
X138800380Y-100001933D01*
X138798161Y-100019642D01*
X139140125Y-100019642D01*
X139137850Y-100003813D01*
X139135783Y-99988300D01*
X139133914Y-99973014D01*
X139132237Y-99957870D01*
X139130741Y-99942779D01*
X139129420Y-99927656D01*
X139128264Y-99912412D01*
X139127266Y-99896961D01*
X139126416Y-99881217D01*
X139125707Y-99865091D01*
X139125129Y-99848498D01*
X139124676Y-99831350D01*
X139124338Y-99813560D01*
X139124107Y-99795041D01*
X139123974Y-99775706D01*
X139123932Y-99755468D01*
X139123932Y-99297928D01*
X139123522Y-99274667D01*
X139122295Y-99252040D01*
X139120259Y-99230054D01*
X139117420Y-99208715D01*
X139113782Y-99188031D01*
X139109354Y-99168008D01*
X139104141Y-99148652D01*
X139098149Y-99129972D01*
X139091384Y-99111974D01*
X139083853Y-99094665D01*
X139075562Y-99078051D01*
X139066517Y-99062139D01*
X139056724Y-99046937D01*
X139046190Y-99032451D01*
X139034920Y-99018688D01*
X139022922Y-99005655D01*
X139010201Y-98993359D01*
X138996763Y-98981806D01*
X138982615Y-98971004D01*
X138967763Y-98960959D01*
X138952213Y-98951678D01*
X138935971Y-98943168D01*
X138919044Y-98935436D01*
X138901438Y-98928489D01*
X138883158Y-98922333D01*
X138864212Y-98916976D01*
X138844605Y-98912425D01*
X138824344Y-98908685D01*
X138803435Y-98905765D01*
X138781883Y-98903670D01*
X138759697Y-98902408D01*
X138736880Y-98901986D01*
X138722120Y-98902140D01*
X138707603Y-98902602D01*
X138693326Y-98903370D01*
X138679285Y-98904443D01*
X138665475Y-98905820D01*
X138651895Y-98907499D01*
X138638538Y-98909480D01*
X138625402Y-98911760D01*
X138612483Y-98914339D01*
X138599777Y-98917215D01*
X138587280Y-98920387D01*
X138574988Y-98923854D01*
X138551005Y-98931667D01*
X138527796Y-98940644D01*
X138505332Y-98950774D01*
X138483581Y-98962048D01*
X138462513Y-98974454D01*
X138442097Y-98987983D01*
X138422302Y-99002625D01*
X138403098Y-99018369D01*
X138384454Y-99035206D01*
X138366339Y-99053124D01*
X138367182Y-99039701D01*
X138367942Y-99026981D01*
X138368479Y-99013503D01*
X138368562Y-99007084D01*
X138368562Y-98784823D01*
X138368604Y-98762404D01*
X138368737Y-98741374D01*
X138368968Y-98721594D01*
X138369306Y-98702929D01*
X138369760Y-98685240D01*
X138370337Y-98668391D01*
X138371046Y-98652244D01*
X138371896Y-98636662D01*
X138372894Y-98621508D01*
X138374050Y-98606645D01*
X138375372Y-98591935D01*
X138376867Y-98577242D01*
X138378545Y-98562428D01*
X138380413Y-98547355D01*
X138382480Y-98531888D01*
X138384755Y-98515887D01*
X138046284Y-98515887D01*
X138048506Y-98531061D01*
X138050535Y-98546040D01*
X138052376Y-98560913D01*
X138054038Y-98575769D01*
X138055526Y-98590695D01*
X138056849Y-98605780D01*
X138058012Y-98621113D01*
X138059024Y-98636781D01*
X138059890Y-98652874D01*
X138060618Y-98669479D01*
X138061215Y-98686685D01*
X138061688Y-98704581D01*
X138062044Y-98723254D01*
X138062289Y-98742793D01*
X138062431Y-98763287D01*
X138062477Y-98784823D01*
X138062477Y-99755468D01*
X138062431Y-99774736D01*
X138062289Y-99793191D01*
X138062044Y-99810929D01*
X138061688Y-99828046D01*
X138061215Y-99844635D01*
X138060618Y-99860794D01*
X138059890Y-99876616D01*
X138059024Y-99892199D01*
X138058012Y-99907636D01*
X138056849Y-99923023D01*
X138055526Y-99938456D01*
X138054038Y-99954030D01*
X138052376Y-99969840D01*
X138050535Y-99985982D01*
X138048506Y-100002550D01*
X138046284Y-100019642D01*
X138386025Y-100019642D01*
G37*
G36*
X139329047Y-98515887D02*
G01*
X139329047Y-98787681D01*
X139666249Y-98787681D01*
X139666249Y-98515887D01*
X139329047Y-98515887D01*
G37*
G36*
X139323967Y-98922307D02*
G01*
X139326189Y-98938247D01*
X139328218Y-98953859D01*
X139330059Y-98969231D01*
X139331721Y-98984451D01*
X139333210Y-98999608D01*
X139334532Y-99014790D01*
X139335696Y-99030085D01*
X139336707Y-99045583D01*
X139337573Y-99061370D01*
X139338301Y-99077536D01*
X139338898Y-99094170D01*
X139339371Y-99111358D01*
X139339727Y-99129190D01*
X139339972Y-99147755D01*
X139340114Y-99167139D01*
X139340160Y-99187433D01*
X139340160Y-99754833D01*
X139340114Y-99774321D01*
X139339973Y-99792753D01*
X139339729Y-99810271D01*
X139339376Y-99827019D01*
X139338908Y-99843137D01*
X139338318Y-99858769D01*
X139337600Y-99874057D01*
X139336747Y-99889143D01*
X139335752Y-99904169D01*
X139334610Y-99919278D01*
X139333313Y-99934612D01*
X139331855Y-99950314D01*
X139330230Y-99966525D01*
X139328431Y-99983389D01*
X139326451Y-100001047D01*
X139324284Y-100019642D01*
X139669741Y-100019642D01*
X139667466Y-100003436D01*
X139665399Y-99987514D01*
X139663531Y-99971803D01*
X139661853Y-99956228D01*
X139660358Y-99940716D01*
X139659036Y-99925194D01*
X139657881Y-99909589D01*
X139656882Y-99893826D01*
X139656032Y-99877832D01*
X139655323Y-99861535D01*
X139654746Y-99844860D01*
X139654292Y-99827733D01*
X139653954Y-99810082D01*
X139653723Y-99791833D01*
X139653590Y-99772912D01*
X139653548Y-99753246D01*
X139653548Y-99189020D01*
X139653590Y-99167181D01*
X139653724Y-99146487D01*
X139653956Y-99126840D01*
X139654297Y-99108143D01*
X139654755Y-99090298D01*
X139655340Y-99073208D01*
X139656059Y-99056774D01*
X139656922Y-99040899D01*
X139657937Y-99025486D01*
X139659114Y-99010436D01*
X139660461Y-98995653D01*
X139661987Y-98981038D01*
X139663701Y-98966493D01*
X139665612Y-98951922D01*
X139667728Y-98937226D01*
X139670059Y-98922307D01*
X139323967Y-98922307D01*
G37*
G36*
X140194595Y-100019642D02*
G01*
X140192432Y-100001267D01*
X140190462Y-99983585D01*
X140188679Y-99966502D01*
X140187074Y-99949922D01*
X140185640Y-99933749D01*
X140184370Y-99917888D01*
X140183256Y-99902244D01*
X140182291Y-99886721D01*
X140181467Y-99871225D01*
X140180778Y-99855659D01*
X140180215Y-99839928D01*
X140179771Y-99823938D01*
X140179438Y-99807592D01*
X140179210Y-99790795D01*
X140179079Y-99773453D01*
X140179036Y-99755468D01*
X140179036Y-99389690D01*
X140186217Y-99377460D01*
X140193583Y-99365538D01*
X140201130Y-99353929D01*
X140208849Y-99342640D01*
X140216735Y-99331674D01*
X140224780Y-99321039D01*
X140232977Y-99310737D01*
X140241319Y-99300776D01*
X140249800Y-99291160D01*
X140267151Y-99272984D01*
X140284973Y-99256251D01*
X140303213Y-99241003D01*
X140321815Y-99227282D01*
X140340725Y-99215130D01*
X140359887Y-99204588D01*
X140379247Y-99195700D01*
X140398750Y-99188505D01*
X140418340Y-99183047D01*
X140437964Y-99179367D01*
X140457565Y-99177507D01*
X140467341Y-99177272D01*
X140482671Y-99177733D01*
X140497232Y-99179108D01*
X140511026Y-99181391D01*
X140524057Y-99184575D01*
X140536329Y-99188652D01*
X140550607Y-99194993D01*
X140563713Y-99202702D01*
X140568628Y-99206166D01*
X140579424Y-99215036D01*
X140588819Y-99224485D01*
X140596889Y-99234755D01*
X140603707Y-99246090D01*
X140609346Y-99258732D01*
X140613881Y-99272927D01*
X140617385Y-99288916D01*
X140619932Y-99306943D01*
X140621135Y-99320213D01*
X140621967Y-99334570D01*
X140622450Y-99350084D01*
X140622606Y-99366829D01*
X140622606Y-99755468D01*
X140622564Y-99774070D01*
X140622432Y-99791954D01*
X140622202Y-99809215D01*
X140621867Y-99825947D01*
X140621418Y-99842243D01*
X140620848Y-99858198D01*
X140620148Y-99873906D01*
X140619312Y-99889460D01*
X140618330Y-99904955D01*
X140617195Y-99920484D01*
X140615899Y-99936141D01*
X140614435Y-99952021D01*
X140612794Y-99968217D01*
X140610968Y-99984823D01*
X140608949Y-100001933D01*
X140606730Y-100019642D01*
X140948695Y-100019642D01*
X140946420Y-100003813D01*
X140944352Y-99988300D01*
X140942484Y-99973014D01*
X140940806Y-99957870D01*
X140939311Y-99942779D01*
X140937990Y-99927656D01*
X140936834Y-99912412D01*
X140935835Y-99896961D01*
X140934985Y-99881217D01*
X140934276Y-99865091D01*
X140933699Y-99848498D01*
X140933245Y-99831350D01*
X140932907Y-99813560D01*
X140932676Y-99795041D01*
X140932544Y-99775706D01*
X140932501Y-99755468D01*
X140932501Y-99297928D01*
X140932091Y-99274667D01*
X140930865Y-99252040D01*
X140928829Y-99230054D01*
X140925989Y-99208715D01*
X140922352Y-99188031D01*
X140917924Y-99168008D01*
X140912710Y-99148652D01*
X140906718Y-99129972D01*
X140899953Y-99111974D01*
X140892422Y-99094665D01*
X140884131Y-99078051D01*
X140875086Y-99062139D01*
X140865293Y-99046937D01*
X140854759Y-99032451D01*
X140843490Y-99018688D01*
X140831492Y-99005655D01*
X140818770Y-98993359D01*
X140805333Y-98981806D01*
X140791185Y-98971004D01*
X140776333Y-98960959D01*
X140760782Y-98951678D01*
X140744541Y-98943168D01*
X140727614Y-98935436D01*
X140710007Y-98928489D01*
X140691728Y-98922333D01*
X140672781Y-98916976D01*
X140653175Y-98912425D01*
X140632913Y-98908685D01*
X140612004Y-98905765D01*
X140590453Y-98903670D01*
X140568266Y-98902408D01*
X140545450Y-98901986D01*
X140530857Y-98902140D01*
X140516486Y-98902602D01*
X140502335Y-98903370D01*
X140488401Y-98904443D01*
X140474681Y-98905820D01*
X140461172Y-98907499D01*
X140447871Y-98909480D01*
X140434776Y-98911760D01*
X140421883Y-98914339D01*
X140409191Y-98917215D01*
X140396696Y-98920387D01*
X140384395Y-98923854D01*
X140360365Y-98931667D01*
X140337080Y-98940644D01*
X140314516Y-98950774D01*
X140292653Y-98962048D01*
X140271466Y-98974454D01*
X140250934Y-98987983D01*
X140231035Y-99002625D01*
X140211746Y-99018369D01*
X140193044Y-99035206D01*
X140183907Y-99044030D01*
X140174909Y-99053124D01*
X140175752Y-99039198D01*
X140176512Y-99026144D01*
X140177049Y-99012956D01*
X140177131Y-99007084D01*
X140177131Y-98922307D01*
X139854853Y-98922307D01*
X139857075Y-98937246D01*
X139859104Y-98951997D01*
X139860946Y-98966646D01*
X139862607Y-98981281D01*
X139864096Y-98995988D01*
X139865418Y-99010855D01*
X139866582Y-99025968D01*
X139867593Y-99041415D01*
X139868460Y-99057283D01*
X139869188Y-99073657D01*
X139869785Y-99090627D01*
X139870257Y-99108277D01*
X139870613Y-99126696D01*
X139870858Y-99145970D01*
X139871000Y-99166187D01*
X139871046Y-99187433D01*
X139871046Y-99754833D01*
X139871000Y-99774161D01*
X139870858Y-99792675D01*
X139870613Y-99810471D01*
X139870257Y-99827644D01*
X139869785Y-99844288D01*
X139869188Y-99860499D01*
X139868460Y-99876372D01*
X139867593Y-99892000D01*
X139866582Y-99907480D01*
X139865418Y-99922906D01*
X139864096Y-99938373D01*
X139862607Y-99953975D01*
X139860946Y-99969809D01*
X139859104Y-99985967D01*
X139857075Y-100002547D01*
X139854853Y-100019642D01*
X140194595Y-100019642D01*
G37*
G36*
X141665566Y-98882016D02*
G01*
X141687651Y-98883065D01*
X141709349Y-98884806D01*
X141730654Y-98887235D01*
X141751560Y-98890346D01*
X141772061Y-98894133D01*
X141792150Y-98898592D01*
X141811821Y-98903718D01*
X141831068Y-98909504D01*
X141849885Y-98915946D01*
X141868265Y-98923038D01*
X141886202Y-98930775D01*
X141903689Y-98939152D01*
X141920721Y-98948164D01*
X141937292Y-98957805D01*
X141953394Y-98968069D01*
X141969021Y-98978952D01*
X141984168Y-98990449D01*
X141998828Y-99002553D01*
X142012995Y-99015261D01*
X142026662Y-99028565D01*
X142039823Y-99042462D01*
X142052473Y-99056946D01*
X142064603Y-99072011D01*
X142076210Y-99087652D01*
X142087285Y-99103865D01*
X142097823Y-99120643D01*
X142107818Y-99137982D01*
X142117263Y-99155875D01*
X142126152Y-99174319D01*
X142134478Y-99193307D01*
X142142236Y-99212834D01*
X142148157Y-99229184D01*
X142153559Y-99244999D01*
X142158471Y-99260436D01*
X142162924Y-99275653D01*
X142166950Y-99290806D01*
X142170578Y-99306053D01*
X142173840Y-99321552D01*
X142176766Y-99337459D01*
X142179387Y-99353932D01*
X142181733Y-99371127D01*
X142183836Y-99389202D01*
X142185726Y-99408315D01*
X142187433Y-99428622D01*
X142188989Y-99450280D01*
X142190424Y-99473447D01*
X142191769Y-99498281D01*
X142192292Y-99509978D01*
X142193655Y-99523498D01*
X142195172Y-99537307D01*
X142196849Y-99552258D01*
X141395757Y-99552258D01*
X141396495Y-99559311D01*
X141398119Y-99572888D01*
X141399956Y-99585799D01*
X141403149Y-99604018D01*
X141406919Y-99621003D01*
X141411327Y-99636911D01*
X141416432Y-99651902D01*
X141422293Y-99666133D01*
X141428970Y-99679764D01*
X141436524Y-99692952D01*
X141445013Y-99705857D01*
X141454497Y-99718637D01*
X141463598Y-99729591D01*
X141473158Y-99739832D01*
X141483175Y-99749360D01*
X141493646Y-99758177D01*
X141504569Y-99766283D01*
X141515942Y-99773680D01*
X141527762Y-99780367D01*
X141540028Y-99786347D01*
X141552736Y-99791620D01*
X141565885Y-99796186D01*
X141579472Y-99800048D01*
X141593495Y-99803205D01*
X141607951Y-99805659D01*
X141622838Y-99807411D01*
X141638154Y-99808461D01*
X141653897Y-99808811D01*
X141676680Y-99808129D01*
X141698475Y-99806077D01*
X141719283Y-99802649D01*
X141739105Y-99797837D01*
X141757943Y-99791633D01*
X141775799Y-99784030D01*
X141792673Y-99775020D01*
X141808567Y-99764597D01*
X141823482Y-99752752D01*
X141837420Y-99739479D01*
X141850383Y-99724769D01*
X141862371Y-99708615D01*
X141873386Y-99691010D01*
X141883429Y-99671947D01*
X141892502Y-99651418D01*
X141900607Y-99629415D01*
X142184783Y-99716732D01*
X142176517Y-99735120D01*
X142168589Y-99752246D01*
X142160941Y-99768198D01*
X142153518Y-99783068D01*
X142146262Y-99796946D01*
X142139117Y-99809923D01*
X142132025Y-99822090D01*
X142124931Y-99833538D01*
X142117778Y-99844356D01*
X142106812Y-99859604D01*
X142095393Y-99873946D01*
X142083329Y-99887691D01*
X142070429Y-99901142D01*
X142061270Y-99910099D01*
X142051973Y-99919162D01*
X142042420Y-99927954D01*
X142032616Y-99936474D01*
X142022564Y-99944721D01*
X142012266Y-99952694D01*
X142001727Y-99960391D01*
X141990949Y-99967812D01*
X141979936Y-99974956D01*
X141968692Y-99981821D01*
X141957219Y-99988407D01*
X141945521Y-99994711D01*
X141933602Y-100000734D01*
X141921465Y-100006473D01*
X141909113Y-100011929D01*
X141896550Y-100017099D01*
X141883778Y-100021983D01*
X141870802Y-100026580D01*
X141857625Y-100030888D01*
X141844250Y-100034906D01*
X141830680Y-100038634D01*
X141816919Y-100042069D01*
X141802970Y-100045212D01*
X141788837Y-100048061D01*
X141774523Y-100050614D01*
X141760031Y-100052871D01*
X141745365Y-100054831D01*
X141730528Y-100056493D01*
X141715523Y-100057854D01*
X141700355Y-100058915D01*
X141685025Y-100059675D01*
X141669538Y-100060131D01*
X141653897Y-100060284D01*
X141638433Y-100060137D01*
X141623122Y-100059697D01*
X141607967Y-100058964D01*
X141592970Y-100057940D01*
X141578137Y-100056625D01*
X141563469Y-100055020D01*
X141548971Y-100053125D01*
X141534645Y-100050942D01*
X141520496Y-100048470D01*
X141506526Y-100045712D01*
X141492740Y-100042667D01*
X141479140Y-100039337D01*
X141465730Y-100035721D01*
X141452514Y-100031822D01*
X141439494Y-100027639D01*
X141426675Y-100023174D01*
X141414059Y-100018427D01*
X141401651Y-100013398D01*
X141389453Y-100008090D01*
X141377469Y-100002501D01*
X141365703Y-99996634D01*
X141354157Y-99990489D01*
X141342836Y-99984066D01*
X141331743Y-99977367D01*
X141320880Y-99970392D01*
X141310252Y-99963142D01*
X141299863Y-99955618D01*
X141289714Y-99947820D01*
X141279811Y-99939750D01*
X141270156Y-99931407D01*
X141260753Y-99922793D01*
X141251605Y-99913909D01*
X141241863Y-99903971D01*
X141232403Y-99893689D01*
X141223229Y-99883071D01*
X141214340Y-99872124D01*
X141205739Y-99860858D01*
X141197428Y-99849278D01*
X141189408Y-99837394D01*
X141181682Y-99825213D01*
X141174250Y-99812742D01*
X141167115Y-99799990D01*
X141160278Y-99786964D01*
X141153741Y-99773672D01*
X141147507Y-99760122D01*
X141141576Y-99746322D01*
X141135950Y-99732279D01*
X141130631Y-99718002D01*
X141125621Y-99703497D01*
X141120922Y-99688773D01*
X141116535Y-99673838D01*
X141112462Y-99658699D01*
X141108705Y-99643365D01*
X141105265Y-99627842D01*
X141102145Y-99612139D01*
X141099346Y-99596264D01*
X141096869Y-99580224D01*
X141094718Y-99564027D01*
X141092892Y-99547682D01*
X141091394Y-99531194D01*
X141090226Y-99514574D01*
X141089390Y-99497828D01*
X141088887Y-99480963D01*
X141088719Y-99463989D01*
X141089367Y-99431813D01*
X141091296Y-99400310D01*
X141094487Y-99369505D01*
X141098918Y-99339419D01*
X141102444Y-99321107D01*
X141403060Y-99321107D01*
X141881873Y-99321107D01*
X141878487Y-99305071D01*
X141874670Y-99290154D01*
X141870286Y-99276138D01*
X141865204Y-99262803D01*
X141859287Y-99249929D01*
X141852404Y-99237298D01*
X141844419Y-99224688D01*
X141835198Y-99211882D01*
X141822805Y-99197454D01*
X141809222Y-99184366D01*
X141794483Y-99172636D01*
X141778620Y-99162280D01*
X141767438Y-99156149D01*
X141755780Y-99150641D01*
X141743657Y-99145762D01*
X141731079Y-99141516D01*
X141718055Y-99137910D01*
X141704595Y-99134949D01*
X141690710Y-99132636D01*
X141676408Y-99130978D01*
X141661699Y-99129979D01*
X141646594Y-99129645D01*
X141622587Y-99130431D01*
X141599743Y-99132780D01*
X141578064Y-99136675D01*
X141557551Y-99142103D01*
X141538206Y-99149046D01*
X141520032Y-99157490D01*
X141503030Y-99167420D01*
X141487201Y-99178820D01*
X141472549Y-99191675D01*
X141459074Y-99205970D01*
X141446778Y-99221688D01*
X141435664Y-99238816D01*
X141425734Y-99257337D01*
X141416988Y-99277236D01*
X141409429Y-99298498D01*
X141403060Y-99321107D01*
X141102444Y-99321107D01*
X141104569Y-99310075D01*
X141111420Y-99281496D01*
X141119449Y-99253705D01*
X141128637Y-99226725D01*
X141138962Y-99200579D01*
X141150404Y-99175289D01*
X141162943Y-99150877D01*
X141176558Y-99127368D01*
X141191228Y-99104783D01*
X141206933Y-99083146D01*
X141223652Y-99062479D01*
X141241365Y-99042804D01*
X141260050Y-99024146D01*
X141279688Y-99006526D01*
X141300258Y-98989968D01*
X141321740Y-98974494D01*
X141344111Y-98960127D01*
X141367353Y-98946889D01*
X141391445Y-98934804D01*
X141416365Y-98923895D01*
X141442094Y-98914183D01*
X141468611Y-98905693D01*
X141495895Y-98898446D01*
X141523925Y-98892466D01*
X141552682Y-98887775D01*
X141582143Y-98884396D01*
X141612290Y-98882352D01*
X141643101Y-98881665D01*
X141665566Y-98882016D01*
G37*
G36*
X142297501Y-99640528D02*
G01*
X142303881Y-99661668D01*
X142310077Y-99681458D01*
X142316146Y-99699999D01*
X142322143Y-99717391D01*
X142328124Y-99733736D01*
X142334143Y-99749135D01*
X142340256Y-99763688D01*
X142346518Y-99777496D01*
X142352985Y-99790661D01*
X142359711Y-99803282D01*
X142366754Y-99815462D01*
X142374166Y-99827301D01*
X142382005Y-99838900D01*
X142390326Y-99850360D01*
X142399183Y-99861782D01*
X142408632Y-99873267D01*
X142418707Y-99884698D01*
X142429168Y-99895774D01*
X142440010Y-99906493D01*
X142451232Y-99916856D01*
X142462830Y-99926861D01*
X142474803Y-99936509D01*
X142487148Y-99945798D01*
X142499863Y-99954729D01*
X142512944Y-99963301D01*
X142526390Y-99971514D01*
X142540198Y-99979366D01*
X142554366Y-99986858D01*
X142568890Y-99993989D01*
X142583769Y-100000759D01*
X142599000Y-100007166D01*
X142614580Y-100013212D01*
X142630508Y-100018894D01*
X142646779Y-100024214D01*
X142663393Y-100029170D01*
X142680346Y-100033761D01*
X142697637Y-100037988D01*
X142715261Y-100041850D01*
X142733218Y-100045346D01*
X142751504Y-100048476D01*
X142770117Y-100051240D01*
X142789055Y-100053636D01*
X142808314Y-100055665D01*
X142827893Y-100057327D01*
X142847789Y-100058620D01*
X142868000Y-100059544D01*
X142888522Y-100060098D01*
X142909354Y-100060284D01*
X142929165Y-100060126D01*
X142948709Y-100059652D01*
X142967983Y-100058864D01*
X142986983Y-100057762D01*
X143005706Y-100056347D01*
X143024149Y-100054620D01*
X143042310Y-100052581D01*
X143060184Y-100050232D01*
X143077769Y-100047573D01*
X143095061Y-100044605D01*
X143112058Y-100041329D01*
X143128756Y-100037746D01*
X143145152Y-100033856D01*
X143161244Y-100029661D01*
X143177027Y-100025160D01*
X143192499Y-100020356D01*
X143207656Y-100015248D01*
X143222496Y-100009838D01*
X143237015Y-100004126D01*
X143251211Y-99998114D01*
X143265079Y-99991801D01*
X143278617Y-99985189D01*
X143291822Y-99978279D01*
X143304691Y-99971072D01*
X143317220Y-99963567D01*
X143329406Y-99955767D01*
X143341247Y-99947671D01*
X143352739Y-99939282D01*
X143363878Y-99930598D01*
X143374663Y-99921622D01*
X143385089Y-99912355D01*
X143395153Y-99902796D01*
X143408105Y-99889477D01*
X143420394Y-99875393D01*
X143431995Y-99860600D01*
X143442885Y-99845152D01*
X143453040Y-99829102D01*
X143462436Y-99812507D01*
X143471050Y-99795419D01*
X143478858Y-99777893D01*
X143485836Y-99759984D01*
X143491961Y-99741746D01*
X143497209Y-99723234D01*
X143501556Y-99704502D01*
X143504978Y-99685605D01*
X143507451Y-99666596D01*
X143508953Y-99647530D01*
X143509459Y-99628462D01*
X143509123Y-99608694D01*
X143508114Y-99589503D01*
X143506428Y-99570871D01*
X143504061Y-99552779D01*
X143501009Y-99535211D01*
X143497269Y-99518147D01*
X143492837Y-99501570D01*
X143487709Y-99485461D01*
X143481881Y-99469802D01*
X143475351Y-99454576D01*
X143468113Y-99439763D01*
X143460164Y-99425346D01*
X143451502Y-99411307D01*
X143442121Y-99397628D01*
X143432018Y-99384289D01*
X143421189Y-99371274D01*
X143409233Y-99358736D01*
X143397056Y-99346945D01*
X143384653Y-99335883D01*
X143372019Y-99325532D01*
X143359149Y-99315874D01*
X143346037Y-99306888D01*
X143332678Y-99298558D01*
X143319068Y-99290864D01*
X143305202Y-99283787D01*
X143291073Y-99277310D01*
X143276677Y-99271413D01*
X143262010Y-99266078D01*
X143247065Y-99261286D01*
X143231838Y-99257018D01*
X143216323Y-99253257D01*
X143200516Y-99249983D01*
X143215903Y-99245359D01*
X143230543Y-99240624D01*
X143244486Y-99235737D01*
X143257783Y-99230655D01*
X143270482Y-99225334D01*
X143282634Y-99219733D01*
X143294288Y-99213807D01*
X143305495Y-99207516D01*
X143316303Y-99200815D01*
X143331877Y-99189902D01*
X143341908Y-99181991D01*
X143351714Y-99173520D01*
X143361347Y-99164448D01*
X143370855Y-99154731D01*
X143380288Y-99144326D01*
X143384993Y-99138853D01*
X143394815Y-99127094D01*
X143404037Y-99114810D01*
X143412655Y-99102020D01*
X143420663Y-99088740D01*
X143428058Y-99074990D01*
X143434834Y-99060787D01*
X143440986Y-99046150D01*
X143446511Y-99031096D01*
X143451403Y-99015644D01*
X143455658Y-98999813D01*
X143459272Y-98983619D01*
X143462238Y-98967082D01*
X143464554Y-98950219D01*
X143466213Y-98933049D01*
X143467212Y-98915589D01*
X143467547Y-98897859D01*
X143467081Y-98880188D01*
X143465701Y-98862565D01*
X143463428Y-98845033D01*
X143460283Y-98827633D01*
X143456291Y-98810406D01*
X143451472Y-98793393D01*
X143445850Y-98776636D01*
X143439446Y-98760176D01*
X143432284Y-98744055D01*
X143424384Y-98728313D01*
X143415770Y-98712993D01*
X143406465Y-98698136D01*
X143396489Y-98683783D01*
X143385866Y-98669976D01*
X143374617Y-98656756D01*
X143362766Y-98644163D01*
X143353547Y-98635273D01*
X143343990Y-98626640D01*
X143334100Y-98618268D01*
X143323882Y-98610156D01*
X143313341Y-98602308D01*
X143302481Y-98594725D01*
X143291308Y-98587407D01*
X143279825Y-98580358D01*
X143268039Y-98573577D01*
X143255953Y-98567068D01*
X143243572Y-98560831D01*
X143230902Y-98554868D01*
X143217946Y-98549180D01*
X143204710Y-98543770D01*
X143191199Y-98538638D01*
X143177417Y-98533787D01*
X143163368Y-98529218D01*
X143149059Y-98524932D01*
X143134493Y-98520931D01*
X143119675Y-98517216D01*
X143104610Y-98513790D01*
X143089303Y-98510653D01*
X143073758Y-98507808D01*
X143057981Y-98505255D01*
X143041976Y-98502997D01*
X143025748Y-98501035D01*
X143009301Y-98499371D01*
X142992641Y-98498005D01*
X142975772Y-98496940D01*
X142958699Y-98496178D01*
X142941427Y-98495719D01*
X142923960Y-98495566D01*
X142905662Y-98495725D01*
X142887622Y-98496202D01*
X142869840Y-98496995D01*
X142852317Y-98498104D01*
X142835052Y-98499530D01*
X142818047Y-98501270D01*
X142801302Y-98503324D01*
X142784818Y-98505692D01*
X142768596Y-98508373D01*
X142752635Y-98511366D01*
X142736937Y-98514671D01*
X142721503Y-98518288D01*
X142706331Y-98522214D01*
X142691425Y-98526451D01*
X142676783Y-98530997D01*
X142662406Y-98535851D01*
X142648296Y-98541013D01*
X142634452Y-98546483D01*
X142620875Y-98552259D01*
X142607566Y-98558341D01*
X142594526Y-98564728D01*
X142581755Y-98571420D01*
X142569253Y-98578416D01*
X142557021Y-98585716D01*
X142545060Y-98593318D01*
X142533370Y-98601223D01*
X142521952Y-98609429D01*
X142510806Y-98617936D01*
X142499933Y-98626743D01*
X142489335Y-98635849D01*
X142479010Y-98645255D01*
X142468960Y-98654959D01*
X142457541Y-98666746D01*
X142446820Y-98678482D01*
X142436736Y-98690275D01*
X142427226Y-98702229D01*
X142418230Y-98714451D01*
X142409686Y-98727047D01*
X142401533Y-98740124D01*
X142393709Y-98753786D01*
X142386152Y-98768140D01*
X142378803Y-98783292D01*
X142371598Y-98799349D01*
X142364477Y-98816416D01*
X142357379Y-98834599D01*
X142350241Y-98854004D01*
X142343003Y-98874738D01*
X142335603Y-98896906D01*
X142680108Y-98950566D01*
X142684640Y-98935119D01*
X142688837Y-98921492D01*
X142694086Y-98905767D01*
X142699156Y-98892354D01*
X142704286Y-98880723D01*
X142711145Y-98867885D01*
X142718934Y-98855975D01*
X142726147Y-98846421D01*
X142737682Y-98833332D01*
X142750474Y-98821408D01*
X142764492Y-98810675D01*
X142779706Y-98801162D01*
X142796083Y-98792894D01*
X142813593Y-98785898D01*
X142825880Y-98781954D01*
X142838646Y-98778594D01*
X142851884Y-98775828D01*
X142865582Y-98773663D01*
X142879733Y-98772107D01*
X142894327Y-98771167D01*
X142909354Y-98770852D01*
X142922968Y-98771007D01*
X142936128Y-98771472D01*
X142948835Y-98772248D01*
X142972895Y-98774738D01*
X142995162Y-98778488D01*
X143015646Y-98783508D01*
X143034359Y-98789808D01*
X143051312Y-98797396D01*
X143066519Y-98806283D01*
X143079989Y-98816478D01*
X143091734Y-98827992D01*
X143101767Y-98840835D01*
X143110099Y-98855015D01*
X143116741Y-98870542D01*
X143121706Y-98887427D01*
X143125004Y-98905680D01*
X143126647Y-98925309D01*
X143126852Y-98935643D01*
X143126150Y-98953727D01*
X143124046Y-98970846D01*
X143120544Y-98987020D01*
X143115651Y-99002273D01*
X143109369Y-99016625D01*
X143101705Y-99030100D01*
X143092662Y-99042718D01*
X143082246Y-99054503D01*
X143070461Y-99065475D01*
X143057312Y-99075658D01*
X143047791Y-99082018D01*
X143035767Y-99089021D01*
X143022392Y-99095378D01*
X143007687Y-99101080D01*
X142991676Y-99106118D01*
X142974380Y-99110482D01*
X142955820Y-99114162D01*
X142942756Y-99116231D01*
X142929147Y-99117990D01*
X142915000Y-99119435D01*
X142900320Y-99120564D01*
X142885115Y-99121373D01*
X142869391Y-99121861D01*
X142853154Y-99122025D01*
X142837214Y-99121931D01*
X142821009Y-99121644D01*
X142804543Y-99121153D01*
X142787819Y-99120451D01*
X142770839Y-99119526D01*
X142753607Y-99118370D01*
X142736125Y-99116974D01*
X142718398Y-99115327D01*
X142700428Y-99113421D01*
X142682218Y-99111246D01*
X142669947Y-99109642D01*
X142669947Y-99400168D01*
X142684407Y-99398638D01*
X142698540Y-99397257D01*
X142712416Y-99396018D01*
X142726103Y-99394914D01*
X142739668Y-99393939D01*
X142753182Y-99393086D01*
X142766710Y-99392346D01*
X142780324Y-99391715D01*
X142794089Y-99391183D01*
X142808076Y-99390745D01*
X142822352Y-99390394D01*
X142836985Y-99390122D01*
X142852045Y-99389923D01*
X142867599Y-99389789D01*
X142883716Y-99389714D01*
X142900464Y-99389690D01*
X142916922Y-99389884D01*
X142932841Y-99390464D01*
X142948220Y-99391431D01*
X142963061Y-99392784D01*
X142977366Y-99394523D01*
X142991135Y-99396647D01*
X143004370Y-99399158D01*
X143017071Y-99402054D01*
X143040879Y-99409000D01*
X143062568Y-99417485D01*
X143082147Y-99427507D01*
X143099625Y-99439064D01*
X143115013Y-99452154D01*
X143128318Y-99466775D01*
X143139551Y-99482925D01*
X143148721Y-99500603D01*
X143155837Y-99519806D01*
X143160908Y-99540533D01*
X143163944Y-99562781D01*
X143164954Y-99586550D01*
X143163846Y-99609263D01*
X143160555Y-99630817D01*
X143155132Y-99651170D01*
X143147625Y-99670280D01*
X143138084Y-99688104D01*
X143126560Y-99704601D01*
X143113102Y-99719727D01*
X143097760Y-99733441D01*
X143080583Y-99745700D01*
X143061622Y-99756461D01*
X143040926Y-99765683D01*
X143018545Y-99773324D01*
X142994528Y-99779340D01*
X142981922Y-99781726D01*
X142968926Y-99783690D01*
X142955546Y-99785226D01*
X142941788Y-99786330D01*
X142927659Y-99786997D01*
X142913164Y-99787220D01*
X142897266Y-99786937D01*
X142881724Y-99786087D01*
X142866545Y-99784669D01*
X142851735Y-99782681D01*
X142837301Y-99780121D01*
X142823249Y-99776989D01*
X142809586Y-99773284D01*
X142796318Y-99769003D01*
X142783453Y-99764145D01*
X142770995Y-99758709D01*
X142758953Y-99752693D01*
X142747332Y-99746097D01*
X142736138Y-99738918D01*
X142725380Y-99731156D01*
X142715062Y-99722808D01*
X142705191Y-99713874D01*
X142695430Y-99704554D01*
X142684118Y-99692247D01*
X142674467Y-99679471D01*
X142666170Y-99665570D01*
X142660650Y-99654008D01*
X142655587Y-99641164D01*
X142650852Y-99626760D01*
X142646312Y-99610519D01*
X142641840Y-99592163D01*
X142638831Y-99578612D01*
X142297501Y-99640528D01*
G37*
G36*
X145295167Y-98515887D02*
G01*
X145297390Y-98531481D01*
X145299418Y-98546676D01*
X145301260Y-98561602D01*
X145302921Y-98576389D01*
X145304410Y-98591167D01*
X145305732Y-98606065D01*
X145306896Y-98621213D01*
X145307907Y-98636742D01*
X145308774Y-98652780D01*
X145309502Y-98669457D01*
X145310099Y-98686904D01*
X145310571Y-98705251D01*
X145310927Y-98724625D01*
X145311172Y-98745159D01*
X145311314Y-98766981D01*
X145311360Y-98790221D01*
X145311360Y-99428745D01*
X145311133Y-99448128D01*
X145310449Y-99466872D01*
X145309305Y-99484984D01*
X145307699Y-99502473D01*
X145305628Y-99519346D01*
X145303089Y-99535611D01*
X145300079Y-99551275D01*
X145296596Y-99566348D01*
X145292636Y-99580837D01*
X145288198Y-99594749D01*
X145283277Y-99608093D01*
X145277872Y-99620877D01*
X145271980Y-99633107D01*
X145265597Y-99644794D01*
X145258721Y-99655943D01*
X145251350Y-99666564D01*
X145240894Y-99679872D01*
X145229428Y-99692402D01*
X145216973Y-99704143D01*
X145203554Y-99715084D01*
X145189193Y-99725215D01*
X145173914Y-99734522D01*
X145157741Y-99742997D01*
X145140696Y-99750626D01*
X145122802Y-99757400D01*
X145104083Y-99763307D01*
X145084563Y-99768336D01*
X145064264Y-99772475D01*
X145043209Y-99775714D01*
X145021423Y-99778042D01*
X144998927Y-99779446D01*
X144975746Y-99779917D01*
X144953275Y-99779526D01*
X144931584Y-99778353D01*
X144910671Y-99776395D01*
X144890533Y-99773651D01*
X144871169Y-99770121D01*
X144852577Y-99765802D01*
X144834756Y-99760693D01*
X144817703Y-99754794D01*
X144801416Y-99748101D01*
X144785894Y-99740615D01*
X144771135Y-99732334D01*
X144757137Y-99723255D01*
X144743897Y-99713379D01*
X144731415Y-99702703D01*
X144719689Y-99691226D01*
X144708715Y-99678947D01*
X144699761Y-99667399D01*
X144691465Y-99655473D01*
X144683817Y-99643132D01*
X144676805Y-99630342D01*
X144670418Y-99617067D01*
X144664645Y-99603270D01*
X144659475Y-99588916D01*
X144654897Y-99573969D01*
X144650898Y-99558393D01*
X144647470Y-99542152D01*
X144644599Y-99525211D01*
X144642275Y-99507533D01*
X144640487Y-99489084D01*
X144639224Y-99469826D01*
X144638474Y-99449725D01*
X144638227Y-99428745D01*
X144638227Y-98790221D01*
X144638269Y-98767145D01*
X144638402Y-98745250D01*
X144638635Y-98724453D01*
X144638976Y-98704670D01*
X144639434Y-98685817D01*
X144640019Y-98667811D01*
X144640738Y-98650567D01*
X144641601Y-98634003D01*
X144642616Y-98618034D01*
X144643793Y-98602576D01*
X144645140Y-98587547D01*
X144646666Y-98572861D01*
X144648380Y-98558436D01*
X144650291Y-98544188D01*
X144652407Y-98530033D01*
X144654738Y-98515887D01*
X144301025Y-98515887D01*
X144303356Y-98530671D01*
X144305472Y-98545425D01*
X144307383Y-98560223D01*
X144309097Y-98575139D01*
X144310623Y-98590246D01*
X144311970Y-98605618D01*
X144313147Y-98621330D01*
X144314163Y-98637456D01*
X144315025Y-98654069D01*
X144315745Y-98671243D01*
X144316329Y-98689053D01*
X144316787Y-98707572D01*
X144317128Y-98726875D01*
X144317361Y-98747034D01*
X144317494Y-98768125D01*
X144317536Y-98790221D01*
X144317536Y-99428745D01*
X144317684Y-99446805D01*
X144318127Y-99464611D01*
X144318866Y-99482163D01*
X144319900Y-99499461D01*
X144321228Y-99516506D01*
X144322850Y-99533298D01*
X144324767Y-99549837D01*
X144326977Y-99566125D01*
X144329481Y-99582161D01*
X144332278Y-99597946D01*
X144335368Y-99613479D01*
X144338751Y-99628763D01*
X144342426Y-99643796D01*
X144346393Y-99658580D01*
X144350651Y-99673115D01*
X144355201Y-99687401D01*
X144360043Y-99701439D01*
X144365175Y-99715228D01*
X144370598Y-99728770D01*
X144376311Y-99742065D01*
X144382314Y-99755113D01*
X144388606Y-99767915D01*
X144395189Y-99780471D01*
X144402060Y-99792782D01*
X144409220Y-99804847D01*
X144416669Y-99816667D01*
X144424405Y-99828244D01*
X144432430Y-99839576D01*
X144440743Y-99850665D01*
X144449343Y-99861511D01*
X144458230Y-99872114D01*
X144467404Y-99882475D01*
X144477534Y-99893098D01*
X144488097Y-99903413D01*
X144499086Y-99913420D01*
X144510493Y-99923115D01*
X144522311Y-99932498D01*
X144534534Y-99941566D01*
X144547156Y-99950316D01*
X144560168Y-99958748D01*
X144573564Y-99966859D01*
X144587338Y-99974647D01*
X144601482Y-99982109D01*
X144615990Y-99989246D01*
X144630854Y-99996053D01*
X144646069Y-100002529D01*
X144661626Y-100008673D01*
X144677520Y-100014482D01*
X144693742Y-100019954D01*
X144710288Y-100025087D01*
X144727149Y-100029880D01*
X144744318Y-100034330D01*
X144761790Y-100038436D01*
X144779556Y-100042195D01*
X144797611Y-100045605D01*
X144815946Y-100048664D01*
X144834557Y-100051372D01*
X144853435Y-100053724D01*
X144872573Y-100055720D01*
X144891965Y-100057358D01*
X144911605Y-100058635D01*
X144931484Y-100059549D01*
X144951597Y-100060100D01*
X144971936Y-100060284D01*
X145010565Y-100059613D01*
X145048157Y-100057608D01*
X145084698Y-100054279D01*
X145120178Y-100049637D01*
X145154583Y-100043694D01*
X145187901Y-100036459D01*
X145220119Y-100027943D01*
X145251226Y-100018158D01*
X145281208Y-100007114D01*
X145310054Y-99994821D01*
X145337751Y-99981291D01*
X145364287Y-99966534D01*
X145389649Y-99950561D01*
X145413825Y-99933383D01*
X145436802Y-99915010D01*
X145458568Y-99895453D01*
X145479112Y-99874724D01*
X145498419Y-99852832D01*
X145516479Y-99829788D01*
X145533278Y-99805604D01*
X145548805Y-99780290D01*
X145563046Y-99753857D01*
X145575990Y-99726315D01*
X145587624Y-99697676D01*
X145597935Y-99667949D01*
X145606912Y-99637146D01*
X145614542Y-99605278D01*
X145620812Y-99572356D01*
X145625711Y-99538389D01*
X145629225Y-99503389D01*
X145631343Y-99467366D01*
X145632051Y-99430332D01*
X145632051Y-98788316D01*
X145632093Y-98766301D01*
X145632226Y-98745432D01*
X145632457Y-98725608D01*
X145632795Y-98706724D01*
X145633249Y-98688677D01*
X145633826Y-98671364D01*
X145634535Y-98654682D01*
X145635385Y-98638528D01*
X145636384Y-98622797D01*
X145637539Y-98607387D01*
X145638861Y-98592196D01*
X145640356Y-98577118D01*
X145642034Y-98562052D01*
X145643902Y-98546893D01*
X145645970Y-98531540D01*
X145648244Y-98515887D01*
X145295167Y-98515887D01*
G37*
G36*
X145819385Y-99548131D02*
G01*
X145821425Y-99562271D01*
X145823500Y-99575947D01*
X145825616Y-99589174D01*
X145827777Y-99601969D01*
X145832259Y-99626325D01*
X145836988Y-99649140D01*
X145842007Y-99670542D01*
X145847359Y-99690656D01*
X145853087Y-99709609D01*
X145859234Y-99727527D01*
X145865842Y-99744538D01*
X145872954Y-99760767D01*
X145880613Y-99776341D01*
X145888862Y-99791387D01*
X145897743Y-99806032D01*
X145907300Y-99820400D01*
X145917575Y-99834620D01*
X145928611Y-99848818D01*
X145938051Y-99860289D01*
X145947971Y-99871424D01*
X145958367Y-99882220D01*
X145969234Y-99892676D01*
X145980567Y-99902789D01*
X145992359Y-99912559D01*
X146004608Y-99921983D01*
X146017307Y-99931060D01*
X146030451Y-99939787D01*
X146044037Y-99948163D01*
X146058057Y-99956186D01*
X146072509Y-99963855D01*
X146087386Y-99971167D01*
X146102683Y-99978121D01*
X146118396Y-99984714D01*
X146134520Y-99990946D01*
X146151049Y-99996814D01*
X146167979Y-100002317D01*
X146185304Y-100007452D01*
X146203020Y-100012218D01*
X146221122Y-100016613D01*
X146239604Y-100020635D01*
X146258461Y-100024283D01*
X146277690Y-100027555D01*
X146297283Y-100030448D01*
X146317238Y-100032961D01*
X146337548Y-100035093D01*
X146358208Y-100036841D01*
X146379214Y-100038204D01*
X146400561Y-100039180D01*
X146422243Y-100039767D01*
X146444256Y-100039963D01*
X146478275Y-100039452D01*
X146511381Y-100037928D01*
X146543565Y-100035398D01*
X146574816Y-100031871D01*
X146605122Y-100027357D01*
X146634472Y-100021864D01*
X146662856Y-100015402D01*
X146690262Y-100007978D01*
X146716678Y-99999602D01*
X146742095Y-99990283D01*
X146766502Y-99980030D01*
X146789886Y-99968851D01*
X146812237Y-99956756D01*
X146833544Y-99943753D01*
X146853796Y-99929851D01*
X146872982Y-99915060D01*
X146891091Y-99899387D01*
X146908111Y-99882843D01*
X146924032Y-99865436D01*
X146938843Y-99847174D01*
X146952532Y-99828067D01*
X146965089Y-99808124D01*
X146976503Y-99787353D01*
X146986762Y-99765763D01*
X146995855Y-99743363D01*
X147003772Y-99720163D01*
X147010501Y-99696171D01*
X147016031Y-99671396D01*
X147020352Y-99645846D01*
X147023452Y-99619531D01*
X147025320Y-99592460D01*
X147025945Y-99564642D01*
X147025726Y-99548191D01*
X147025067Y-99532061D01*
X147023969Y-99516249D01*
X147022433Y-99500756D01*
X147020457Y-99485582D01*
X147018042Y-99470724D01*
X147015188Y-99456185D01*
X147011895Y-99441961D01*
X147008163Y-99428054D01*
X147003992Y-99414463D01*
X146999382Y-99401188D01*
X146994332Y-99388227D01*
X146988844Y-99375580D01*
X146982917Y-99363248D01*
X146976550Y-99351229D01*
X146969745Y-99339523D01*
X146961452Y-99326507D01*
X146952551Y-99313786D01*
X146943072Y-99301379D01*
X146933047Y-99289306D01*
X146922506Y-99277586D01*
X146911481Y-99266240D01*
X146900003Y-99255286D01*
X146888104Y-99244744D01*
X146875813Y-99234634D01*
X146863163Y-99224975D01*
X146850185Y-99215787D01*
X146836909Y-99207089D01*
X146823367Y-99198901D01*
X146809591Y-99191242D01*
X146795611Y-99184132D01*
X146781458Y-99177590D01*
X146767504Y-99171500D01*
X146753054Y-99165586D01*
X146737970Y-99159808D01*
X146722112Y-99154128D01*
X146705343Y-99148506D01*
X146687524Y-99142902D01*
X146668516Y-99137276D01*
X146648181Y-99131590D01*
X146626379Y-99125803D01*
X146602973Y-99119876D01*
X146590625Y-99116847D01*
X146577824Y-99113769D01*
X146564552Y-99110636D01*
X146550793Y-99107444D01*
X146536528Y-99104186D01*
X146521741Y-99100860D01*
X146506414Y-99097458D01*
X146490530Y-99093977D01*
X146474072Y-99090412D01*
X146457022Y-99086757D01*
X146439363Y-99083008D01*
X146421078Y-99079160D01*
X146404132Y-99075162D01*
X146388479Y-99071362D01*
X146374026Y-99067728D01*
X146360680Y-99064227D01*
X146348351Y-99060826D01*
X146331559Y-99055842D01*
X146316536Y-99050901D01*
X146302969Y-99045893D01*
X146290548Y-99040708D01*
X146278962Y-99035237D01*
X146264275Y-99027305D01*
X146253429Y-99020737D01*
X146243281Y-99012683D01*
X146231248Y-99001309D01*
X146220944Y-98989166D01*
X146212389Y-98976206D01*
X146205599Y-98962379D01*
X146200595Y-98947638D01*
X146197395Y-98931934D01*
X146196017Y-98915219D01*
X146195959Y-98910877D01*
X146196977Y-98892834D01*
X146199996Y-98875645D01*
X146204961Y-98859353D01*
X146211820Y-98844000D01*
X146220519Y-98829630D01*
X146231004Y-98816284D01*
X146243223Y-98804007D01*
X146257120Y-98792840D01*
X146272644Y-98782827D01*
X146289741Y-98774010D01*
X146308356Y-98766432D01*
X146328437Y-98760136D01*
X146349931Y-98755165D01*
X146372782Y-98751561D01*
X146396939Y-98749367D01*
X146422348Y-98748626D01*
X146438166Y-98748926D01*
X146453579Y-98749822D01*
X146468569Y-98751307D01*
X146483117Y-98753374D01*
X146497206Y-98756016D01*
X146510817Y-98759225D01*
X146523933Y-98762996D01*
X146536534Y-98767320D01*
X146548604Y-98772191D01*
X146560123Y-98777603D01*
X146576330Y-98786717D01*
X146591198Y-98797007D01*
X146604664Y-98808449D01*
X146616667Y-98821020D01*
X146625354Y-98832703D01*
X146632935Y-98844298D01*
X146639556Y-98856338D01*
X146645363Y-98869362D01*
X146650499Y-98883903D01*
X146654000Y-98896127D01*
X146657266Y-98909733D01*
X146660360Y-98924946D01*
X146663342Y-98941993D01*
X147004672Y-98905479D01*
X146999747Y-98883839D01*
X146994832Y-98863616D01*
X146989891Y-98844704D01*
X146984891Y-98826993D01*
X146979796Y-98810376D01*
X146974571Y-98794745D01*
X146969182Y-98779993D01*
X146963593Y-98766010D01*
X146957770Y-98752690D01*
X146951677Y-98739924D01*
X146945280Y-98727605D01*
X146938544Y-98715624D01*
X146931434Y-98703874D01*
X146923915Y-98692247D01*
X146915953Y-98680635D01*
X146907512Y-98668930D01*
X146898253Y-98657284D01*
X146888578Y-98645982D01*
X146878490Y-98635025D01*
X146867993Y-98624416D01*
X146857092Y-98614156D01*
X146845791Y-98604247D01*
X146834092Y-98594690D01*
X146822001Y-98585488D01*
X146809521Y-98576641D01*
X146796656Y-98568151D01*
X146783410Y-98560021D01*
X146769787Y-98552252D01*
X146755791Y-98544845D01*
X146741426Y-98537803D01*
X146726696Y-98531126D01*
X146711605Y-98524817D01*
X146696156Y-98518878D01*
X146680354Y-98513309D01*
X146664203Y-98508113D01*
X146647707Y-98503291D01*
X146630869Y-98498846D01*
X146613694Y-98494778D01*
X146596185Y-98491089D01*
X146578347Y-98487782D01*
X146560183Y-98484857D01*
X146541698Y-98482317D01*
X146522895Y-98480163D01*
X146503778Y-98478397D01*
X146484352Y-98477021D01*
X146464619Y-98476035D01*
X146444585Y-98475443D01*
X146424253Y-98475245D01*
X146392728Y-98475755D01*
X146361926Y-98477276D01*
X146331866Y-98479794D01*
X146302566Y-98483293D01*
X146274043Y-98487761D01*
X146246317Y-98493182D01*
X146219404Y-98499543D01*
X146193325Y-98506828D01*
X146168096Y-98515024D01*
X146143736Y-98524117D01*
X146120262Y-98534091D01*
X146097695Y-98544934D01*
X146076050Y-98556629D01*
X146055348Y-98569165D01*
X146035605Y-98582524D01*
X146016840Y-98596695D01*
X145999072Y-98611662D01*
X145982318Y-98627410D01*
X145966597Y-98643927D01*
X145951927Y-98661196D01*
X145938325Y-98679205D01*
X145925811Y-98697939D01*
X145914402Y-98717383D01*
X145904117Y-98737523D01*
X145894974Y-98758345D01*
X145886991Y-98779835D01*
X145880186Y-98801977D01*
X145874578Y-98824759D01*
X145870184Y-98848166D01*
X145867023Y-98872182D01*
X145865113Y-98896795D01*
X145864473Y-98921990D01*
X145864639Y-98934726D01*
X145865963Y-98959807D01*
X145868598Y-98984349D01*
X145872529Y-99008330D01*
X145877741Y-99031726D01*
X145884220Y-99054515D01*
X145891953Y-99076676D01*
X145900924Y-99098185D01*
X145911118Y-99119021D01*
X145922522Y-99139162D01*
X145935122Y-99158584D01*
X145948901Y-99177265D01*
X145963848Y-99195184D01*
X145979946Y-99212318D01*
X145997181Y-99228644D01*
X146015540Y-99244141D01*
X146025136Y-99251571D01*
X146038273Y-99260573D01*
X146051353Y-99269042D01*
X146064526Y-99277032D01*
X146077942Y-99284598D01*
X146091753Y-99291793D01*
X146106110Y-99298672D01*
X146121161Y-99305290D01*
X146137060Y-99311701D01*
X146153955Y-99317959D01*
X146171999Y-99324119D01*
X146191341Y-99330235D01*
X146212132Y-99336363D01*
X146234524Y-99342555D01*
X146258666Y-99348867D01*
X146271441Y-99352084D01*
X146284709Y-99355352D01*
X146298491Y-99358677D01*
X146312805Y-99362066D01*
X146330963Y-99366243D01*
X146348307Y-99370264D01*
X146364863Y-99374138D01*
X146380658Y-99377873D01*
X146395717Y-99381479D01*
X146410066Y-99384963D01*
X146423734Y-99388334D01*
X146436745Y-99391600D01*
X146449127Y-99394770D01*
X146472106Y-99400855D01*
X146492883Y-99406656D01*
X146511668Y-99412240D01*
X146528674Y-99417676D01*
X146544111Y-99423029D01*
X146558191Y-99428369D01*
X146571123Y-99433762D01*
X146583121Y-99439275D01*
X146599825Y-99447919D01*
X146615613Y-99457214D01*
X146620795Y-99460496D01*
X146632850Y-99468690D01*
X146643662Y-99477555D01*
X146653243Y-99487093D01*
X146661606Y-99497305D01*
X146668763Y-99508194D01*
X146674727Y-99519760D01*
X146679511Y-99532005D01*
X146683127Y-99544931D01*
X146685588Y-99558539D01*
X146686906Y-99572831D01*
X146687156Y-99582740D01*
X146686073Y-99603058D01*
X146682855Y-99622314D01*
X146677547Y-99640475D01*
X146670194Y-99657505D01*
X146660840Y-99673371D01*
X146649532Y-99688037D01*
X146636314Y-99701470D01*
X146621232Y-99713636D01*
X146604330Y-99724499D01*
X146585653Y-99734025D01*
X146565247Y-99742180D01*
X146543157Y-99748930D01*
X146519429Y-99754239D01*
X146494106Y-99758074D01*
X146480861Y-99759428D01*
X146467234Y-99760401D01*
X146453231Y-99760987D01*
X146438859Y-99761184D01*
X146419378Y-99760805D01*
X146400478Y-99759672D01*
X146382170Y-99757789D01*
X146364471Y-99755161D01*
X146347392Y-99751792D01*
X146330949Y-99747688D01*
X146315155Y-99742853D01*
X146300025Y-99737291D01*
X146285571Y-99731007D01*
X146271809Y-99724006D01*
X146258752Y-99716292D01*
X146246414Y-99707871D01*
X146234809Y-99698746D01*
X146223951Y-99688923D01*
X146213854Y-99678406D01*
X146204532Y-99667199D01*
X146196731Y-99657008D01*
X146187790Y-99643329D01*
X146180324Y-99628936D01*
X146174119Y-99613169D01*
X146170167Y-99600043D01*
X146166716Y-99585492D01*
X146163677Y-99569236D01*
X146160960Y-99550995D01*
X146159283Y-99537595D01*
X146157684Y-99523105D01*
X146156905Y-99515427D01*
X145819385Y-99548131D01*
G37*
G36*
X147225606Y-98516369D02*
G01*
X147242302Y-98517337D01*
X147257629Y-98518159D01*
X147271881Y-98518834D01*
X147285351Y-98519364D01*
X147298334Y-98519751D01*
X147311123Y-98519994D01*
X147324013Y-98520094D01*
X147337297Y-98520053D01*
X147351270Y-98519872D01*
X147366225Y-98519551D01*
X147382456Y-98519092D01*
X147400257Y-98518495D01*
X147419923Y-98517761D01*
X147441746Y-98516892D01*
X147466022Y-98515887D01*
X147919752Y-98515887D01*
X147946837Y-98516286D01*
X147973198Y-98517479D01*
X147998825Y-98519460D01*
X148023708Y-98522223D01*
X148047841Y-98525761D01*
X148071212Y-98530069D01*
X148093815Y-98535141D01*
X148115639Y-98540971D01*
X148136676Y-98547552D01*
X148156918Y-98554879D01*
X148176355Y-98562945D01*
X148194978Y-98571745D01*
X148212779Y-98581272D01*
X148229749Y-98591521D01*
X148245879Y-98602485D01*
X148261161Y-98614158D01*
X148275584Y-98626535D01*
X148289141Y-98639609D01*
X148301823Y-98653373D01*
X148313620Y-98667823D01*
X148324525Y-98682952D01*
X148334527Y-98698754D01*
X148343619Y-98715224D01*
X148351791Y-98732353D01*
X148359035Y-98750138D01*
X148365342Y-98768572D01*
X148370703Y-98787648D01*
X148375109Y-98807362D01*
X148378551Y-98827705D01*
X148381021Y-98848674D01*
X148382509Y-98870261D01*
X148383007Y-98892461D01*
X148382583Y-98914088D01*
X148381314Y-98935037D01*
X148379200Y-98955316D01*
X148376245Y-98974931D01*
X148372451Y-98993889D01*
X148367820Y-99012197D01*
X148362355Y-99029863D01*
X148356058Y-99046892D01*
X148348931Y-99063293D01*
X148340977Y-99079073D01*
X148332197Y-99094237D01*
X148322595Y-99108793D01*
X148312172Y-99122749D01*
X148300931Y-99136110D01*
X148288875Y-99148885D01*
X148276004Y-99161079D01*
X148269064Y-99167539D01*
X148258733Y-99176481D01*
X148248475Y-99184595D01*
X148234864Y-99194254D01*
X148221273Y-99202753D01*
X148207636Y-99210269D01*
X148193892Y-99216982D01*
X148179976Y-99223069D01*
X148165826Y-99228710D01*
X148175875Y-99231492D01*
X148190690Y-99236079D01*
X148205228Y-99241212D01*
X148219524Y-99246948D01*
X148233611Y-99253343D01*
X148247524Y-99260454D01*
X148261298Y-99268337D01*
X148274968Y-99277049D01*
X148288567Y-99286647D01*
X148302131Y-99297186D01*
X148315694Y-99308724D01*
X148329945Y-99322365D01*
X148343286Y-99336618D01*
X148355717Y-99351485D01*
X148367236Y-99366968D01*
X148377841Y-99383069D01*
X148387531Y-99399789D01*
X148396305Y-99417130D01*
X148404162Y-99435095D01*
X148411099Y-99453685D01*
X148417116Y-99472902D01*
X148422211Y-99492747D01*
X148426383Y-99513224D01*
X148429630Y-99534333D01*
X148431951Y-99556076D01*
X148433345Y-99578456D01*
X148433810Y-99601473D01*
X148433286Y-99626195D01*
X148431722Y-99650227D01*
X148429123Y-99673564D01*
X148425500Y-99696200D01*
X148420858Y-99718127D01*
X148415207Y-99739341D01*
X148408554Y-99759833D01*
X148400907Y-99779600D01*
X148392274Y-99798633D01*
X148382663Y-99816927D01*
X148372082Y-99834475D01*
X148360538Y-99851271D01*
X148348040Y-99867310D01*
X148334595Y-99882584D01*
X148320212Y-99897087D01*
X148304898Y-99910813D01*
X148288662Y-99923756D01*
X148271510Y-99935909D01*
X148253452Y-99947267D01*
X148234494Y-99957823D01*
X148214645Y-99967570D01*
X148193914Y-99976502D01*
X148172306Y-99984614D01*
X148149832Y-99991899D01*
X148126497Y-99998350D01*
X148102312Y-100003961D01*
X148077282Y-100008726D01*
X148051417Y-100012639D01*
X148024723Y-100015693D01*
X147997210Y-100017882D01*
X147968885Y-100019201D01*
X147939755Y-100019642D01*
X147468244Y-100019642D01*
X147446557Y-100019664D01*
X147426282Y-100019732D01*
X147407272Y-100019847D01*
X147389377Y-100020009D01*
X147372447Y-100020219D01*
X147356333Y-100020479D01*
X147340887Y-100020789D01*
X147325958Y-100021150D01*
X147311397Y-100021563D01*
X147297056Y-100022029D01*
X147282784Y-100022549D01*
X147268433Y-100023124D01*
X147253853Y-100023755D01*
X147238895Y-100024443D01*
X147223409Y-100025188D01*
X147207247Y-100025992D01*
X147209466Y-100009169D01*
X147211484Y-99993120D01*
X147213310Y-99977682D01*
X147214951Y-99962692D01*
X147216416Y-99947987D01*
X147217712Y-99933403D01*
X147218846Y-99918777D01*
X147219828Y-99903947D01*
X147220665Y-99888748D01*
X147221364Y-99873017D01*
X147221934Y-99856591D01*
X147222383Y-99839307D01*
X147222718Y-99821002D01*
X147222948Y-99801513D01*
X147223080Y-99780675D01*
X147223122Y-99758326D01*
X147223122Y-99371274D01*
X147542226Y-99371274D01*
X147542226Y-99746578D01*
X147894033Y-99746578D01*
X147918558Y-99745789D01*
X147941636Y-99743434D01*
X147963247Y-99739533D01*
X147983374Y-99734106D01*
X148001998Y-99727171D01*
X148019099Y-99718749D01*
X148034661Y-99708860D01*
X148048663Y-99697522D01*
X148061088Y-99684755D01*
X148071916Y-99670579D01*
X148081130Y-99655013D01*
X148088710Y-99638077D01*
X148094638Y-99619790D01*
X148098895Y-99600172D01*
X148101463Y-99579243D01*
X148102323Y-99557021D01*
X148102108Y-99545789D01*
X148100389Y-99524340D01*
X148096963Y-99504252D01*
X148091845Y-99485535D01*
X148085047Y-99468200D01*
X148076584Y-99452256D01*
X148066469Y-99437712D01*
X148054714Y-99424579D01*
X148041334Y-99412866D01*
X148026343Y-99402583D01*
X148009753Y-99393740D01*
X147991578Y-99386346D01*
X147971832Y-99380412D01*
X147950528Y-99375947D01*
X147927679Y-99372960D01*
X147903300Y-99371462D01*
X147890540Y-99371274D01*
X147542226Y-99371274D01*
X147223122Y-99371274D01*
X147223122Y-98787681D01*
X147542226Y-98787681D01*
X147542226Y-99105196D01*
X147879427Y-99105196D01*
X147900611Y-99104498D01*
X147920569Y-99102419D01*
X147939283Y-99098988D01*
X147956732Y-99094232D01*
X147972898Y-99088177D01*
X147987761Y-99080851D01*
X148001301Y-99072279D01*
X148013498Y-99062490D01*
X148024334Y-99051511D01*
X148033788Y-99039368D01*
X148041842Y-99026088D01*
X148048475Y-99011698D01*
X148053668Y-98996225D01*
X148057401Y-98979697D01*
X148059655Y-98962140D01*
X148060411Y-98943581D01*
X148059697Y-98924877D01*
X148057554Y-98907346D01*
X148053984Y-98890992D01*
X148048986Y-98875821D01*
X148042561Y-98861837D01*
X148034709Y-98849044D01*
X148025432Y-98837448D01*
X148014729Y-98827053D01*
X148002600Y-98817863D01*
X147989048Y-98809883D01*
X147974071Y-98803118D01*
X147957670Y-98797573D01*
X147939846Y-98793252D01*
X147920600Y-98790160D01*
X147899931Y-98788301D01*
X147877840Y-98787681D01*
X147542226Y-98787681D01*
X147223122Y-98787681D01*
X147223122Y-98770217D01*
X147223080Y-98753519D01*
X147222948Y-98737201D01*
X147222718Y-98721202D01*
X147222383Y-98705464D01*
X147221934Y-98689927D01*
X147221364Y-98674531D01*
X147220665Y-98659217D01*
X147219828Y-98643925D01*
X147218846Y-98628597D01*
X147217712Y-98613171D01*
X147216416Y-98597589D01*
X147214951Y-98581792D01*
X147213310Y-98565719D01*
X147211484Y-98549311D01*
X147209466Y-98532508D01*
X147207247Y-98515252D01*
X147225606Y-98516369D01*
G37*
G36*
X148562721Y-99587503D02*
G01*
X148575530Y-99589081D01*
X148593781Y-99590930D01*
X148611107Y-99592231D01*
X148627768Y-99593067D01*
X148644023Y-99593522D01*
X148660129Y-99593679D01*
X148676348Y-99593620D01*
X148692936Y-99593430D01*
X148710154Y-99593191D01*
X148728261Y-99592987D01*
X148747515Y-99592900D01*
X149066936Y-99592900D01*
X149079888Y-99590315D01*
X149098232Y-99587203D01*
X149115531Y-99584953D01*
X149132072Y-99583497D01*
X149148143Y-99582772D01*
X149164031Y-99582709D01*
X149180023Y-99583245D01*
X149196406Y-99584312D01*
X149213468Y-99585844D01*
X149231496Y-99587777D01*
X149244194Y-99589254D01*
X149250778Y-99590043D01*
X149250778Y-99274115D01*
X149238719Y-99278964D01*
X149221299Y-99285269D01*
X149204490Y-99290496D01*
X149188074Y-99294745D01*
X149171835Y-99298111D01*
X149155556Y-99300692D01*
X149139021Y-99302586D01*
X149122013Y-99303889D01*
X149104315Y-99304700D01*
X149085710Y-99305114D01*
X149072697Y-99305219D01*
X149065983Y-99305231D01*
X148747515Y-99305231D01*
X148734211Y-99305186D01*
X148721408Y-99305050D01*
X148703017Y-99304671D01*
X148685431Y-99304076D01*
X148668458Y-99303260D01*
X148651903Y-99302215D01*
X148635575Y-99300936D01*
X148619280Y-99299416D01*
X148602824Y-99297649D01*
X148586016Y-99295629D01*
X148568661Y-99293349D01*
X148562721Y-99292531D01*
X148562721Y-99587503D01*
G37*
G36*
X150723415Y-98965172D02*
G01*
X150718055Y-98945545D01*
X150712665Y-98926970D01*
X150707207Y-98909362D01*
X150701646Y-98892634D01*
X150695943Y-98876701D01*
X150690061Y-98861476D01*
X150683964Y-98846874D01*
X150677614Y-98832808D01*
X150670973Y-98819191D01*
X150664005Y-98805940D01*
X150656673Y-98792966D01*
X150648938Y-98780184D01*
X150640765Y-98767509D01*
X150632115Y-98754853D01*
X150622951Y-98742131D01*
X150613237Y-98729258D01*
X150602182Y-98715094D01*
X150590749Y-98701360D01*
X150578940Y-98688057D01*
X150566758Y-98675185D01*
X150554207Y-98662747D01*
X150541289Y-98650743D01*
X150528008Y-98639175D01*
X150514366Y-98628045D01*
X150500366Y-98617353D01*
X150486012Y-98607101D01*
X150471306Y-98597290D01*
X150456251Y-98587922D01*
X150440851Y-98578997D01*
X150425107Y-98570519D01*
X150409024Y-98562486D01*
X150392604Y-98554902D01*
X150375850Y-98547767D01*
X150358764Y-98541082D01*
X150341351Y-98534850D01*
X150323613Y-98529071D01*
X150305553Y-98523746D01*
X150287173Y-98518878D01*
X150268477Y-98514467D01*
X150249469Y-98510514D01*
X150230150Y-98507022D01*
X150210523Y-98503990D01*
X150190593Y-98501422D01*
X150170361Y-98499317D01*
X150149830Y-98497678D01*
X150129005Y-98496506D01*
X150107887Y-98495801D01*
X150086479Y-98495566D01*
X150067972Y-98495741D01*
X150049660Y-98496264D01*
X150031546Y-98497136D01*
X150013633Y-98498354D01*
X149995923Y-98499919D01*
X149978417Y-98501828D01*
X149961118Y-98504082D01*
X149944028Y-98506679D01*
X149927151Y-98509619D01*
X149910487Y-98512899D01*
X149894039Y-98516520D01*
X149877810Y-98520481D01*
X149861801Y-98524781D01*
X149846015Y-98529418D01*
X149830455Y-98534391D01*
X149815122Y-98539701D01*
X149800019Y-98545345D01*
X149785148Y-98551324D01*
X149770511Y-98557635D01*
X149756111Y-98564279D01*
X149741949Y-98571253D01*
X149728029Y-98578558D01*
X149714352Y-98586192D01*
X149700921Y-98594155D01*
X149687737Y-98602445D01*
X149674804Y-98611061D01*
X149662123Y-98620003D01*
X149649697Y-98629270D01*
X149637528Y-98638860D01*
X149625618Y-98648774D01*
X149613970Y-98659009D01*
X149602585Y-98669565D01*
X149588827Y-98683149D01*
X149575477Y-98697108D01*
X149562536Y-98711436D01*
X149550007Y-98726128D01*
X149537891Y-98741181D01*
X149526190Y-98756587D01*
X149514906Y-98772344D01*
X149504041Y-98788445D01*
X149493597Y-98804885D01*
X149483576Y-98821660D01*
X149473980Y-98838764D01*
X149464810Y-98856193D01*
X149456069Y-98873942D01*
X149447758Y-98892005D01*
X149439880Y-98910377D01*
X149432436Y-98929054D01*
X149425429Y-98948031D01*
X149418859Y-98967302D01*
X149412730Y-98986863D01*
X149407043Y-99006708D01*
X149401800Y-99026833D01*
X149397002Y-99047232D01*
X149392653Y-99067901D01*
X149388753Y-99088834D01*
X149385305Y-99110027D01*
X149382310Y-99131475D01*
X149379771Y-99153172D01*
X149377689Y-99175113D01*
X149376066Y-99197294D01*
X149374905Y-99219710D01*
X149374207Y-99242355D01*
X149373974Y-99265224D01*
X149374190Y-99287435D01*
X149374837Y-99309470D01*
X149375913Y-99331322D01*
X149377415Y-99352982D01*
X149379340Y-99374443D01*
X149381686Y-99395697D01*
X149384451Y-99416735D01*
X149387632Y-99437551D01*
X149391226Y-99458135D01*
X149395231Y-99478480D01*
X149399645Y-99498578D01*
X149404464Y-99518421D01*
X149409688Y-99538001D01*
X149415312Y-99557310D01*
X149421334Y-99576340D01*
X149427753Y-99595083D01*
X149434565Y-99613532D01*
X149441768Y-99631677D01*
X149449360Y-99649512D01*
X149457337Y-99667027D01*
X149465698Y-99684216D01*
X149474440Y-99701071D01*
X149483561Y-99717582D01*
X149493057Y-99733743D01*
X149502927Y-99749546D01*
X149513168Y-99764982D01*
X149523777Y-99780043D01*
X149534753Y-99794722D01*
X149546091Y-99809010D01*
X149557791Y-99822900D01*
X149569850Y-99836384D01*
X149582264Y-99849453D01*
X149593692Y-99860867D01*
X149605467Y-99871947D01*
X149617585Y-99882692D01*
X149630038Y-99893101D01*
X149642822Y-99903171D01*
X149655931Y-99912900D01*
X149669359Y-99922286D01*
X149683100Y-99931327D01*
X149697148Y-99940023D01*
X149711499Y-99948369D01*
X149726145Y-99956366D01*
X149741081Y-99964010D01*
X149756301Y-99971300D01*
X149771801Y-99978234D01*
X149787573Y-99984810D01*
X149803612Y-99991025D01*
X149819913Y-99996879D01*
X149836469Y-100002370D01*
X149853275Y-100007494D01*
X149870326Y-100012251D01*
X149887614Y-100016639D01*
X149905136Y-100020655D01*
X149922884Y-100024297D01*
X149940853Y-100027565D01*
X149959038Y-100030455D01*
X149977432Y-100032966D01*
X149996030Y-100035096D01*
X150014826Y-100036843D01*
X150033815Y-100038205D01*
X150052990Y-100039180D01*
X150072346Y-100039767D01*
X150091877Y-100039963D01*
X150112274Y-100039756D01*
X150132441Y-100039139D01*
X150152373Y-100038112D01*
X150172064Y-100036677D01*
X150191506Y-100034836D01*
X150210696Y-100032591D01*
X150229625Y-100029943D01*
X150248288Y-100026895D01*
X150266679Y-100023447D01*
X150284792Y-100019602D01*
X150302620Y-100015362D01*
X150320159Y-100010728D01*
X150337400Y-100005701D01*
X150354339Y-100000284D01*
X150370970Y-99994479D01*
X150387285Y-99988287D01*
X150403280Y-99981710D01*
X150418948Y-99974749D01*
X150434282Y-99967407D01*
X150449277Y-99959684D01*
X150463927Y-99951584D01*
X150478225Y-99943107D01*
X150492166Y-99934256D01*
X150505744Y-99925032D01*
X150518951Y-99915436D01*
X150531783Y-99905472D01*
X150544232Y-99895139D01*
X150556294Y-99884441D01*
X150567961Y-99873378D01*
X150579228Y-99861953D01*
X150590089Y-99850167D01*
X150600537Y-99838023D01*
X150612571Y-99823201D01*
X150623942Y-99808309D01*
X150634699Y-99793228D01*
X150644895Y-99777843D01*
X150654578Y-99762038D01*
X150663801Y-99745696D01*
X150672614Y-99728701D01*
X150681067Y-99710937D01*
X150689211Y-99692287D01*
X150697097Y-99672635D01*
X150704776Y-99651865D01*
X150712297Y-99629861D01*
X150719713Y-99606506D01*
X150723397Y-99594286D01*
X150727074Y-99581684D01*
X150730749Y-99568687D01*
X150734429Y-99555279D01*
X150738121Y-99541447D01*
X150741831Y-99527175D01*
X150403677Y-99473515D01*
X150401054Y-99489402D01*
X150398411Y-99504142D01*
X150395726Y-99517820D01*
X150392981Y-99530523D01*
X150388702Y-99547942D01*
X150384171Y-99563658D01*
X150379317Y-99577964D01*
X150374071Y-99591153D01*
X150368365Y-99603521D01*
X150362130Y-99615359D01*
X150355296Y-99626962D01*
X150347794Y-99638623D01*
X150337085Y-99652496D01*
X150325569Y-99665536D01*
X150313265Y-99677732D01*
X150300192Y-99689078D01*
X150286369Y-99699564D01*
X150271816Y-99709182D01*
X150256551Y-99717924D01*
X150240593Y-99725781D01*
X150223962Y-99732745D01*
X150206677Y-99738808D01*
X150188756Y-99743961D01*
X150170219Y-99748195D01*
X150151084Y-99751504D01*
X150131372Y-99753877D01*
X150111101Y-99755307D01*
X150090289Y-99755786D01*
X150068188Y-99755252D01*
X150046658Y-99753656D01*
X150025709Y-99751010D01*
X150005350Y-99747323D01*
X149985588Y-99742605D01*
X149966432Y-99736867D01*
X149947891Y-99730120D01*
X149929973Y-99722372D01*
X149912687Y-99713636D01*
X149896041Y-99703920D01*
X149880043Y-99693236D01*
X149864703Y-99681593D01*
X149850028Y-99669003D01*
X149836027Y-99655474D01*
X149822709Y-99641018D01*
X149810081Y-99625644D01*
X149798154Y-99609364D01*
X149786934Y-99592187D01*
X149776431Y-99574123D01*
X149766653Y-99555184D01*
X149757608Y-99535378D01*
X149749305Y-99514717D01*
X149741753Y-99493211D01*
X149734959Y-99470870D01*
X149728933Y-99447705D01*
X149723683Y-99423724D01*
X149719218Y-99398940D01*
X149715545Y-99373362D01*
X149712674Y-99347001D01*
X149710612Y-99319867D01*
X149709369Y-99291969D01*
X149708953Y-99263319D01*
X149709083Y-99247499D01*
X149709472Y-99231892D01*
X149710119Y-99216500D01*
X149711023Y-99201327D01*
X149712182Y-99186373D01*
X149713595Y-99171643D01*
X149715261Y-99157138D01*
X149717178Y-99142862D01*
X149719346Y-99128816D01*
X149721763Y-99115003D01*
X149724427Y-99101426D01*
X149727338Y-99088088D01*
X149730493Y-99074990D01*
X149733893Y-99062136D01*
X149737535Y-99049528D01*
X149741419Y-99037169D01*
X149745542Y-99025060D01*
X149754504Y-99001607D01*
X149764410Y-98979190D01*
X149775251Y-98957828D01*
X149787016Y-98937543D01*
X149799695Y-98918354D01*
X149813278Y-98900283D01*
X149827754Y-98883349D01*
X149835324Y-98875315D01*
X149847263Y-98863549D01*
X149859735Y-98852543D01*
X149872731Y-98842296D01*
X149886241Y-98832808D01*
X149900255Y-98824078D01*
X149914763Y-98816108D01*
X149929756Y-98808897D01*
X149945224Y-98802445D01*
X149961157Y-98796752D01*
X149977546Y-98791818D01*
X149994380Y-98787643D01*
X150011649Y-98784228D01*
X150029345Y-98781571D01*
X150047457Y-98779673D01*
X150065976Y-98778535D01*
X150084891Y-98778155D01*
X150105285Y-98778595D01*
X150125028Y-98779914D01*
X150144117Y-98782117D01*
X150162549Y-98785205D01*
X150180320Y-98789180D01*
X150197428Y-98794045D01*
X150213868Y-98799802D01*
X150229639Y-98806454D01*
X150244736Y-98814002D01*
X150259156Y-98822449D01*
X150272896Y-98831798D01*
X150285953Y-98842050D01*
X150298324Y-98853209D01*
X150310004Y-98865275D01*
X150320992Y-98878253D01*
X150331284Y-98892143D01*
X150340727Y-98905729D01*
X150349203Y-98919450D01*
X150356935Y-98933825D01*
X150362380Y-98945349D01*
X150367626Y-98957755D01*
X150372768Y-98971261D01*
X150377899Y-98986088D01*
X150383114Y-99002456D01*
X150388506Y-99020584D01*
X150392247Y-99033755D01*
X150723415Y-98965172D01*
G37*
G36*
X152458004Y-100019642D02*
G01*
X152460221Y-100006859D01*
X152462925Y-99993319D01*
X152466091Y-99979081D01*
X152469692Y-99964205D01*
X152473703Y-99948753D01*
X152478096Y-99932785D01*
X152482847Y-99916361D01*
X152487930Y-99899541D01*
X152493317Y-99882387D01*
X152498983Y-99864958D01*
X152504902Y-99847315D01*
X152511049Y-99829519D01*
X152517396Y-99811630D01*
X152523918Y-99793708D01*
X152530589Y-99775814D01*
X152537383Y-99758009D01*
X152766629Y-99183305D01*
X152771652Y-99169764D01*
X152776355Y-99156211D01*
X152781629Y-99140508D01*
X152787267Y-99123340D01*
X152793062Y-99105395D01*
X152798807Y-99087357D01*
X152804295Y-99069914D01*
X152809317Y-99053750D01*
X152813668Y-99039552D01*
X152818066Y-99024865D01*
X152821587Y-99010715D01*
X152824667Y-98998277D01*
X152828522Y-98982450D01*
X152831541Y-98969503D01*
X152834430Y-98955720D01*
X152836529Y-98942143D01*
X152837406Y-98927660D01*
X152837280Y-98913943D01*
X152837117Y-98907384D01*
X152835204Y-98923288D01*
X152833389Y-98938623D01*
X152831672Y-98953401D01*
X152830050Y-98967636D01*
X152828520Y-98981339D01*
X152827079Y-98994525D01*
X152825726Y-99007205D01*
X152823269Y-99031101D01*
X152821130Y-99053130D01*
X152819287Y-99073396D01*
X152817721Y-99092000D01*
X152816410Y-99109046D01*
X152815335Y-99124636D01*
X152814474Y-99138874D01*
X152813808Y-99151862D01*
X152813129Y-99169224D01*
X152812772Y-99184352D01*
X152812669Y-99197593D01*
X152812669Y-99734195D01*
X152812623Y-99757361D01*
X152812481Y-99779200D01*
X152812238Y-99799845D01*
X152811885Y-99819428D01*
X152811417Y-99838081D01*
X152810827Y-99855935D01*
X152810109Y-99873123D01*
X152809255Y-99889778D01*
X152808261Y-99906030D01*
X152807118Y-99922013D01*
X152805822Y-99937858D01*
X152804364Y-99953697D01*
X152802738Y-99969663D01*
X152800939Y-99985888D01*
X152798960Y-100002503D01*
X152796793Y-100019642D01*
X153123834Y-100019642D01*
X153121612Y-100004698D01*
X153119583Y-99989912D01*
X153117741Y-99975169D01*
X153116080Y-99960350D01*
X153114591Y-99945340D01*
X153113269Y-99930022D01*
X153112105Y-99914279D01*
X153111094Y-99897993D01*
X153110228Y-99881049D01*
X153109499Y-99863330D01*
X153108902Y-99844719D01*
X153108430Y-99825099D01*
X153108074Y-99804353D01*
X153107829Y-99782365D01*
X153107687Y-99759018D01*
X153107641Y-99734195D01*
X153107641Y-98803556D01*
X153107687Y-98781318D01*
X153107828Y-98760240D01*
X153108072Y-98740195D01*
X153108425Y-98721057D01*
X153108893Y-98702698D01*
X153109483Y-98684992D01*
X153110201Y-98667812D01*
X153111054Y-98651030D01*
X153112049Y-98634519D01*
X153113191Y-98618154D01*
X153114488Y-98601806D01*
X153115946Y-98585349D01*
X153117571Y-98568655D01*
X153119370Y-98551598D01*
X153121350Y-98534051D01*
X153123517Y-98515887D01*
X152699316Y-98515887D01*
X152696962Y-98530353D01*
X152694416Y-98544725D01*
X152691664Y-98559041D01*
X152688694Y-98573343D01*
X152685491Y-98587668D01*
X152682041Y-98602057D01*
X152678333Y-98616550D01*
X152674351Y-98631185D01*
X152670083Y-98646003D01*
X152665514Y-98661042D01*
X152660633Y-98676343D01*
X152655424Y-98691945D01*
X152649875Y-98707887D01*
X152643972Y-98724209D01*
X152637701Y-98740951D01*
X152631050Y-98758152D01*
X152318614Y-99583375D01*
X152003956Y-98758152D01*
X151997622Y-98741244D01*
X151991594Y-98724678D01*
X151985866Y-98708431D01*
X151980430Y-98692480D01*
X151975281Y-98676803D01*
X151970412Y-98661377D01*
X151965817Y-98646178D01*
X151961489Y-98631185D01*
X151957420Y-98616374D01*
X151953606Y-98601722D01*
X151950040Y-98587208D01*
X151946714Y-98572807D01*
X151943623Y-98558497D01*
X151940759Y-98544256D01*
X151938117Y-98530060D01*
X151935690Y-98515887D01*
X151511489Y-98515887D01*
X151513708Y-98532353D01*
X151515727Y-98548798D01*
X151517553Y-98565272D01*
X151519194Y-98581821D01*
X151520659Y-98598493D01*
X151521954Y-98615335D01*
X151523089Y-98632395D01*
X151524071Y-98649720D01*
X151524908Y-98667357D01*
X151525607Y-98685355D01*
X151526177Y-98703760D01*
X151526626Y-98722620D01*
X151526961Y-98741982D01*
X151527191Y-98761894D01*
X151527323Y-98782403D01*
X151527365Y-98803556D01*
X151527365Y-99734195D01*
X151527323Y-99756792D01*
X151527191Y-99778328D01*
X151526961Y-99798893D01*
X151526626Y-99818580D01*
X151526177Y-99837479D01*
X151525607Y-99855684D01*
X151524908Y-99873284D01*
X151524071Y-99890373D01*
X151523089Y-99907041D01*
X151521954Y-99923380D01*
X151520659Y-99939482D01*
X151519194Y-99955439D01*
X151517553Y-99971341D01*
X151515727Y-99987282D01*
X151513708Y-100003351D01*
X151511489Y-100019642D01*
X151838848Y-100019642D01*
X151836573Y-100004021D01*
X151834506Y-99988532D01*
X151832637Y-99973083D01*
X151830960Y-99957582D01*
X151829464Y-99941938D01*
X151828143Y-99926059D01*
X151826987Y-99909854D01*
X151825989Y-99893231D01*
X151825139Y-99876097D01*
X151824430Y-99858363D01*
X151823852Y-99839935D01*
X151823399Y-99820723D01*
X151823061Y-99800634D01*
X151822830Y-99779578D01*
X151822697Y-99757462D01*
X151822655Y-99734195D01*
X151822655Y-99202991D01*
X151822551Y-99189341D01*
X151822192Y-99173861D01*
X151821508Y-99156176D01*
X151820836Y-99142978D01*
X151819968Y-99128523D01*
X151818881Y-99112702D01*
X151817555Y-99095402D01*
X151815970Y-99076515D01*
X151814104Y-99055928D01*
X151811936Y-99033532D01*
X151809446Y-99009215D01*
X151808074Y-98996302D01*
X151806613Y-98982867D01*
X151805061Y-98968896D01*
X151803415Y-98954377D01*
X151801672Y-98939294D01*
X151799831Y-98923634D01*
X151797889Y-98907384D01*
X151800559Y-98920321D01*
X151803213Y-98932938D01*
X151808469Y-98957239D01*
X151813655Y-98980326D01*
X151818770Y-99002242D01*
X151823813Y-99023026D01*
X151828781Y-99042720D01*
X151833674Y-99061365D01*
X151838491Y-99079001D01*
X151843229Y-99095670D01*
X151847888Y-99111413D01*
X151852466Y-99126270D01*
X151856961Y-99140282D01*
X151861373Y-99153490D01*
X151865700Y-99165936D01*
X151872027Y-99183264D01*
X151874092Y-99188703D01*
X152096036Y-99756103D01*
X152104033Y-99776295D01*
X152111596Y-99795922D01*
X152118730Y-99814998D01*
X152125441Y-99833538D01*
X152131733Y-99851557D01*
X152137611Y-99869070D01*
X152143081Y-99886091D01*
X152148148Y-99902637D01*
X152152817Y-99918721D01*
X152157092Y-99934359D01*
X152160980Y-99949565D01*
X152164485Y-99964354D01*
X152167613Y-99978742D01*
X152170367Y-99992742D01*
X152172755Y-100006370D01*
X152174780Y-100019642D01*
X152458004Y-100019642D01*
G37*
G36*
X153893716Y-98882331D02*
G01*
X153925571Y-98884315D01*
X153956653Y-98887599D01*
X153986943Y-98892162D01*
X154016423Y-98897987D01*
X154045075Y-98905055D01*
X154072879Y-98913344D01*
X154099818Y-98922838D01*
X154125873Y-98933516D01*
X154151026Y-98945360D01*
X154175259Y-98958350D01*
X154198553Y-98972468D01*
X154220890Y-98987693D01*
X154242251Y-99004008D01*
X154262618Y-99021393D01*
X154281973Y-99039828D01*
X154300297Y-99059295D01*
X154317572Y-99079774D01*
X154333780Y-99101247D01*
X154348901Y-99123693D01*
X154362919Y-99147095D01*
X154375814Y-99171433D01*
X154387569Y-99196688D01*
X154398164Y-99222841D01*
X154407581Y-99249872D01*
X154415802Y-99277763D01*
X154422809Y-99306494D01*
X154428583Y-99336046D01*
X154433106Y-99366400D01*
X154436359Y-99397537D01*
X154438325Y-99429438D01*
X154438984Y-99462084D01*
X154438310Y-99494750D01*
X154436300Y-99526709D01*
X154432975Y-99557941D01*
X154428358Y-99588422D01*
X154422468Y-99618133D01*
X154415327Y-99647050D01*
X154406956Y-99675152D01*
X154397375Y-99702419D01*
X154386606Y-99728826D01*
X154374669Y-99754355D01*
X154361586Y-99778981D01*
X154347378Y-99802685D01*
X154332065Y-99825443D01*
X154315669Y-99847235D01*
X154298210Y-99868039D01*
X154279710Y-99887833D01*
X154260190Y-99906595D01*
X154239670Y-99924304D01*
X154218172Y-99940938D01*
X154195716Y-99956475D01*
X154172323Y-99970894D01*
X154148015Y-99984173D01*
X154122813Y-99996290D01*
X154096737Y-100007224D01*
X154069808Y-100016952D01*
X154042048Y-100025454D01*
X154013478Y-100032707D01*
X153984117Y-100038691D01*
X153953989Y-100043382D01*
X153923112Y-100046760D01*
X153891509Y-100048802D01*
X153859200Y-100049488D01*
X153826590Y-100048818D01*
X153794735Y-100046820D01*
X153763653Y-100043514D01*
X153733363Y-100038919D01*
X153703883Y-100033054D01*
X153675231Y-100025940D01*
X153647427Y-100017594D01*
X153620488Y-100008037D01*
X153594433Y-99997288D01*
X153569280Y-99985367D01*
X153545047Y-99972292D01*
X153521753Y-99958083D01*
X153499417Y-99942759D01*
X153478055Y-99926340D01*
X153457688Y-99908845D01*
X153438333Y-99890294D01*
X153420009Y-99870705D01*
X153402734Y-99850098D01*
X153386526Y-99828493D01*
X153371405Y-99805909D01*
X153357387Y-99782366D01*
X153344492Y-99757881D01*
X153332737Y-99732476D01*
X153322143Y-99706169D01*
X153312725Y-99678980D01*
X153304504Y-99650928D01*
X153297497Y-99622032D01*
X153291723Y-99592312D01*
X153287200Y-99561787D01*
X153283947Y-99530477D01*
X153281981Y-99498400D01*
X153281322Y-99465577D01*
X153281393Y-99462084D01*
X153590900Y-99462084D01*
X153591193Y-99481564D01*
X153592068Y-99500527D01*
X153593520Y-99518967D01*
X153595543Y-99536877D01*
X153598131Y-99554251D01*
X153601279Y-99571081D01*
X153604981Y-99587362D01*
X153609231Y-99603086D01*
X153614024Y-99618247D01*
X153619355Y-99632837D01*
X153625217Y-99646852D01*
X153631604Y-99660283D01*
X153638512Y-99673124D01*
X153645935Y-99685368D01*
X153653866Y-99697009D01*
X153662301Y-99708040D01*
X153671233Y-99718454D01*
X153680658Y-99728244D01*
X153690569Y-99737405D01*
X153700960Y-99745929D01*
X153711827Y-99753809D01*
X153723163Y-99761039D01*
X153734963Y-99767612D01*
X153747222Y-99773522D01*
X153759932Y-99778762D01*
X153773090Y-99783324D01*
X153786689Y-99787203D01*
X153800724Y-99790392D01*
X153815188Y-99792884D01*
X153830077Y-99794672D01*
X153845385Y-99795750D01*
X153861106Y-99796110D01*
X153876821Y-99795760D01*
X153892113Y-99794712D01*
X153906976Y-99792972D01*
X153921406Y-99790546D01*
X153935397Y-99787440D01*
X153948945Y-99783659D01*
X153962045Y-99779210D01*
X153974692Y-99774098D01*
X153986880Y-99768328D01*
X153998606Y-99761907D01*
X154009863Y-99754841D01*
X154020648Y-99747134D01*
X154030955Y-99738794D01*
X154040778Y-99729824D01*
X154050114Y-99720233D01*
X154058958Y-99710024D01*
X154067303Y-99699204D01*
X154075146Y-99687779D01*
X154082482Y-99675754D01*
X154089304Y-99663135D01*
X154095610Y-99649928D01*
X154101393Y-99636139D01*
X154106649Y-99621773D01*
X154111372Y-99606836D01*
X154115559Y-99591334D01*
X154119203Y-99575273D01*
X154122300Y-99558658D01*
X154124845Y-99541496D01*
X154126833Y-99523791D01*
X154128259Y-99505550D01*
X154129119Y-99486778D01*
X154129406Y-99467482D01*
X154129124Y-99447689D01*
X154128281Y-99428442D01*
X154126880Y-99409745D01*
X154124927Y-99391604D01*
X154122425Y-99374025D01*
X154119379Y-99357012D01*
X154115792Y-99340571D01*
X154111670Y-99324709D01*
X154107016Y-99309429D01*
X154101835Y-99294739D01*
X154096131Y-99280642D01*
X154089907Y-99267145D01*
X154083169Y-99254254D01*
X154075921Y-99241973D01*
X154068166Y-99230307D01*
X154059910Y-99219264D01*
X154051156Y-99208847D01*
X154041909Y-99199063D01*
X154032172Y-99189917D01*
X154021950Y-99181414D01*
X154011248Y-99173560D01*
X154000069Y-99166360D01*
X153988418Y-99159820D01*
X153976299Y-99153945D01*
X153963717Y-99148741D01*
X153950675Y-99144213D01*
X153937177Y-99140366D01*
X153923229Y-99137207D01*
X153908834Y-99134740D01*
X153893996Y-99132972D01*
X153878720Y-99131906D01*
X153863011Y-99131550D01*
X153847257Y-99131907D01*
X153831909Y-99132974D01*
X153816973Y-99134743D01*
X153802456Y-99137210D01*
X153788363Y-99140365D01*
X153774701Y-99144204D01*
X153761477Y-99148720D01*
X153748695Y-99153905D01*
X153736363Y-99159754D01*
X153724486Y-99166259D01*
X153713071Y-99173414D01*
X153702123Y-99181213D01*
X153691650Y-99189648D01*
X153681656Y-99198714D01*
X153672149Y-99208402D01*
X153663135Y-99218708D01*
X153654618Y-99229624D01*
X153646607Y-99241144D01*
X153639107Y-99253260D01*
X153632123Y-99265967D01*
X153625663Y-99279258D01*
X153619733Y-99293125D01*
X153614338Y-99307564D01*
X153609484Y-99322566D01*
X153605179Y-99338125D01*
X153601427Y-99354234D01*
X153598236Y-99370888D01*
X153595612Y-99388079D01*
X153593559Y-99405801D01*
X153592086Y-99424047D01*
X153591197Y-99442810D01*
X153590900Y-99462084D01*
X153281393Y-99462084D01*
X153281987Y-99432781D01*
X153283968Y-99400729D01*
X153287247Y-99369440D01*
X153291805Y-99338932D01*
X153297622Y-99309227D01*
X153304680Y-99280343D01*
X153312959Y-99252300D01*
X153322440Y-99225118D01*
X153333105Y-99198816D01*
X153344934Y-99173413D01*
X153357907Y-99148929D01*
X153372007Y-99125383D01*
X153387214Y-99102796D01*
X153403509Y-99081187D01*
X153420873Y-99060574D01*
X153439286Y-99040979D01*
X153458730Y-99022419D01*
X153479186Y-99004916D01*
X153500634Y-98988488D01*
X153523056Y-98973154D01*
X153546432Y-98958936D01*
X153570743Y-98945851D01*
X153595971Y-98933919D01*
X153622096Y-98923161D01*
X153649099Y-98913595D01*
X153676961Y-98905241D01*
X153705663Y-98898119D01*
X153735186Y-98892247D01*
X153765511Y-98887647D01*
X153796618Y-98884337D01*
X153828490Y-98882336D01*
X153861106Y-98881665D01*
X153893716Y-98882331D01*
G37*
G36*
X155731964Y-98533906D02*
G01*
X155729984Y-98551466D01*
X155728185Y-98568650D01*
X155726560Y-98585542D01*
X155725102Y-98602226D01*
X155723805Y-98618785D01*
X155722663Y-98635303D01*
X155721668Y-98651863D01*
X155720815Y-98668550D01*
X155720097Y-98685448D01*
X155719507Y-98702639D01*
X155719039Y-98720209D01*
X155718686Y-98738239D01*
X155718442Y-98756815D01*
X155718301Y-98776019D01*
X155718255Y-98795936D01*
X155718255Y-99746260D01*
X155718301Y-99767201D01*
X155718442Y-99787010D01*
X155718686Y-99805818D01*
X155719039Y-99823759D01*
X155719507Y-99840965D01*
X155720097Y-99857569D01*
X155720815Y-99873703D01*
X155721668Y-99889500D01*
X155722663Y-99905092D01*
X155723805Y-99920612D01*
X155725102Y-99936192D01*
X155726560Y-99951966D01*
X155728185Y-99968065D01*
X155729984Y-99984622D01*
X155731964Y-100001770D01*
X155734131Y-100019642D01*
X155415980Y-100019642D01*
X155415980Y-99933595D01*
X155416228Y-99920368D01*
X155417568Y-99907241D01*
X155409972Y-99915332D01*
X155394207Y-99930764D01*
X155377645Y-99945194D01*
X155360251Y-99958617D01*
X155341991Y-99971029D01*
X155322830Y-99982428D01*
X155302733Y-99992809D01*
X155281665Y-100002169D01*
X155259591Y-100010504D01*
X155236477Y-100017809D01*
X155212287Y-100024083D01*
X155199778Y-100026831D01*
X155186987Y-100029320D01*
X155173909Y-100031548D01*
X155160541Y-100033517D01*
X155146877Y-100035224D01*
X155132915Y-100036670D01*
X155118648Y-100037854D01*
X155104074Y-100038776D01*
X155089186Y-100039435D01*
X155073982Y-100039831D01*
X155058457Y-100039963D01*
X155044525Y-100039837D01*
X155030770Y-100039462D01*
X155017191Y-100038839D01*
X155003789Y-100037969D01*
X154990564Y-100036855D01*
X154977515Y-100035496D01*
X154964642Y-100033896D01*
X154951946Y-100032054D01*
X154927082Y-100027656D01*
X154902922Y-100022314D01*
X154879467Y-100016040D01*
X154856716Y-100008846D01*
X154834668Y-100000744D01*
X154813322Y-99991746D01*
X154792679Y-99981864D01*
X154772738Y-99971111D01*
X154753498Y-99959498D01*
X154734959Y-99947038D01*
X154717121Y-99933743D01*
X154699982Y-99919624D01*
X154690245Y-99909682D01*
X154680799Y-99899443D01*
X154671645Y-99888913D01*
X154662786Y-99878095D01*
X154654221Y-99866992D01*
X154645952Y-99855608D01*
X154637980Y-99843948D01*
X154630307Y-99832015D01*
X154622934Y-99819812D01*
X154615861Y-99807344D01*
X154609089Y-99794614D01*
X154602621Y-99781626D01*
X154596457Y-99768384D01*
X154590599Y-99754891D01*
X154585047Y-99741152D01*
X154579802Y-99727170D01*
X154574867Y-99712949D01*
X154570241Y-99698492D01*
X154565927Y-99683805D01*
X154561925Y-99668889D01*
X154558236Y-99653749D01*
X154554862Y-99638390D01*
X154551804Y-99622814D01*
X154549063Y-99607025D01*
X154546640Y-99591027D01*
X154544536Y-99574825D01*
X154542753Y-99558421D01*
X154541291Y-99541819D01*
X154540152Y-99525024D01*
X154539337Y-99508039D01*
X154538848Y-99490868D01*
X154538684Y-99473515D01*
X154538742Y-99470339D01*
X154850167Y-99470339D01*
X154850534Y-99490123D01*
X154851631Y-99509450D01*
X154853451Y-99528297D01*
X154855986Y-99546637D01*
X154859231Y-99564448D01*
X154863177Y-99581704D01*
X154867818Y-99598380D01*
X154873147Y-99614452D01*
X154879157Y-99629895D01*
X154885841Y-99644685D01*
X154893192Y-99658796D01*
X154901203Y-99672205D01*
X154909867Y-99684886D01*
X154919176Y-99696815D01*
X154929125Y-99707968D01*
X154939706Y-99718319D01*
X154948247Y-99725870D01*
X154961989Y-99736469D01*
X154976732Y-99746151D01*
X154992341Y-99754871D01*
X155008683Y-99762581D01*
X155025624Y-99769235D01*
X155043032Y-99774784D01*
X155060773Y-99779181D01*
X155078713Y-99782381D01*
X155096719Y-99784335D01*
X155114658Y-99784997D01*
X155128387Y-99784684D01*
X155142157Y-99783756D01*
X155155918Y-99782233D01*
X155169623Y-99780130D01*
X155183221Y-99777468D01*
X155196664Y-99774265D01*
X155209904Y-99770537D01*
X155222891Y-99766304D01*
X155235576Y-99761583D01*
X155247912Y-99756393D01*
X155259848Y-99750752D01*
X155271337Y-99744678D01*
X155282328Y-99738189D01*
X155297778Y-99727717D01*
X155311835Y-99716414D01*
X155323147Y-99705616D01*
X155333854Y-99693970D01*
X155343939Y-99681520D01*
X155353385Y-99668310D01*
X155362173Y-99654387D01*
X155370288Y-99639794D01*
X155377712Y-99624575D01*
X155384427Y-99608776D01*
X155390416Y-99592441D01*
X155395663Y-99575616D01*
X155400150Y-99558343D01*
X155403860Y-99540669D01*
X155406775Y-99522638D01*
X155408879Y-99504294D01*
X155410153Y-99485682D01*
X155410582Y-99466847D01*
X155410233Y-99449276D01*
X155409193Y-99432111D01*
X155407472Y-99415362D01*
X155405081Y-99399039D01*
X155402029Y-99383152D01*
X155398328Y-99367712D01*
X155393986Y-99352727D01*
X155389016Y-99338208D01*
X155383426Y-99324165D01*
X155377228Y-99310608D01*
X155370431Y-99297546D01*
X155363046Y-99284990D01*
X155355083Y-99272950D01*
X155346552Y-99261435D01*
X155337465Y-99250455D01*
X155327830Y-99240021D01*
X155317658Y-99230143D01*
X155306960Y-99220829D01*
X155295746Y-99212091D01*
X155284026Y-99203938D01*
X155271810Y-99196380D01*
X155259109Y-99189427D01*
X155245933Y-99183089D01*
X155232292Y-99177377D01*
X155218197Y-99172298D01*
X155203658Y-99167865D01*
X155188685Y-99164087D01*
X155173288Y-99160973D01*
X155157478Y-99158534D01*
X155141266Y-99156779D01*
X155124660Y-99155719D01*
X155107672Y-99155364D01*
X155093245Y-99155728D01*
X155079141Y-99156812D01*
X155065369Y-99158605D01*
X155051938Y-99161097D01*
X155038857Y-99164277D01*
X155026135Y-99168133D01*
X155013779Y-99172656D01*
X155001801Y-99177833D01*
X154990207Y-99183655D01*
X154979007Y-99190109D01*
X154968210Y-99197187D01*
X154957825Y-99204876D01*
X154947860Y-99213165D01*
X154938324Y-99222045D01*
X154929227Y-99231503D01*
X154920576Y-99241530D01*
X154912381Y-99252113D01*
X154904651Y-99263243D01*
X154897395Y-99274909D01*
X154890620Y-99287099D01*
X154884337Y-99299802D01*
X154878554Y-99313009D01*
X154873280Y-99326708D01*
X154868523Y-99340887D01*
X154864293Y-99355537D01*
X154860598Y-99370646D01*
X154857448Y-99386204D01*
X154854850Y-99402199D01*
X154852815Y-99418621D01*
X154851350Y-99435459D01*
X154850464Y-99452702D01*
X154850167Y-99470339D01*
X154538742Y-99470339D01*
X154539274Y-99441229D01*
X154541033Y-99409695D01*
X154543945Y-99378930D01*
X154547995Y-99348952D01*
X154553166Y-99319779D01*
X154559442Y-99291428D01*
X154566808Y-99263919D01*
X154575248Y-99237268D01*
X154584745Y-99211494D01*
X154595284Y-99186614D01*
X154606849Y-99162648D01*
X154619424Y-99139611D01*
X154632992Y-99117524D01*
X154647539Y-99096403D01*
X154663047Y-99076266D01*
X154679502Y-99057132D01*
X154696887Y-99039019D01*
X154715187Y-99021944D01*
X154734384Y-99005925D01*
X154754465Y-98990981D01*
X154775411Y-98977128D01*
X154797208Y-98964387D01*
X154819840Y-98952773D01*
X154843291Y-98942306D01*
X154867544Y-98933003D01*
X154892584Y-98924882D01*
X154918395Y-98917961D01*
X154944962Y-98912258D01*
X154972267Y-98907791D01*
X155000295Y-98904578D01*
X155029031Y-98902637D01*
X155058457Y-98901986D01*
X155076941Y-98902232D01*
X155095130Y-98902973D01*
X155113037Y-98904211D01*
X155130672Y-98905950D01*
X155148047Y-98908194D01*
X155165172Y-98910944D01*
X155182060Y-98914206D01*
X155198720Y-98917981D01*
X155215164Y-98922274D01*
X155231404Y-98927087D01*
X155247450Y-98932423D01*
X155263314Y-98938287D01*
X155279007Y-98944681D01*
X155294540Y-98951609D01*
X155309924Y-98959073D01*
X155325170Y-98967077D01*
X155338103Y-98974161D01*
X155349832Y-98980989D01*
X155363804Y-98989799D01*
X155376132Y-98998406D01*
X155387098Y-99006955D01*
X155396985Y-99015592D01*
X155408257Y-99026731D01*
X155417487Y-99037013D01*
X155416934Y-99026658D01*
X155416429Y-99012589D01*
X155416143Y-98998106D01*
X155416028Y-98985267D01*
X155415986Y-98971341D01*
X155415980Y-98955964D01*
X155415980Y-98797841D01*
X155415934Y-98775695D01*
X155415792Y-98754666D01*
X155415547Y-98734644D01*
X155415191Y-98715520D01*
X155414718Y-98697183D01*
X155414121Y-98679522D01*
X155413393Y-98662428D01*
X155412527Y-98645791D01*
X155411516Y-98629499D01*
X155410352Y-98613443D01*
X155409030Y-98597513D01*
X155407541Y-98581598D01*
X155405879Y-98565588D01*
X155404038Y-98549373D01*
X155402009Y-98532843D01*
X155399787Y-98515887D01*
X155734131Y-98515887D01*
X155731964Y-98533906D01*
G37*
G36*
X156670167Y-98922307D02*
G01*
X156672334Y-98940682D01*
X156674313Y-98958363D01*
X156676112Y-98975444D01*
X156677738Y-98992022D01*
X156679196Y-99008190D01*
X156680492Y-99024044D01*
X156681635Y-99039678D01*
X156682629Y-99055188D01*
X156683483Y-99070667D01*
X156684201Y-99086212D01*
X156684791Y-99101917D01*
X156685259Y-99117877D01*
X156685612Y-99134187D01*
X156685855Y-99150941D01*
X156685997Y-99168235D01*
X156686043Y-99186163D01*
X156686043Y-99551623D01*
X156678996Y-99563633D01*
X156671733Y-99575368D01*
X156664263Y-99586821D01*
X156656594Y-99597986D01*
X156648735Y-99608854D01*
X156640697Y-99619420D01*
X156632486Y-99629676D01*
X156624112Y-99639615D01*
X156615585Y-99649230D01*
X156606912Y-99658515D01*
X156589168Y-99676065D01*
X156570949Y-99692208D01*
X156552329Y-99706889D01*
X156533377Y-99720051D01*
X156514166Y-99731640D01*
X156494765Y-99741599D01*
X156475247Y-99749872D01*
X156455682Y-99756404D01*
X156436142Y-99761139D01*
X156416698Y-99764021D01*
X156397421Y-99764994D01*
X156382090Y-99764534D01*
X156367530Y-99763158D01*
X156353736Y-99760875D01*
X156340705Y-99757691D01*
X156328433Y-99753614D01*
X156314154Y-99747274D01*
X156301049Y-99739564D01*
X156296133Y-99736100D01*
X156285338Y-99727236D01*
X156275942Y-99717800D01*
X156267873Y-99707537D01*
X156261055Y-99696193D01*
X156255415Y-99683514D01*
X156250881Y-99669245D01*
X156247377Y-99653133D01*
X156244830Y-99634922D01*
X156243627Y-99621490D01*
X156242795Y-99606937D01*
X156242312Y-99591188D01*
X156242156Y-99574167D01*
X156242156Y-99186163D01*
X156242198Y-99167621D01*
X156242330Y-99149795D01*
X156242560Y-99132590D01*
X156242895Y-99115912D01*
X156243344Y-99099666D01*
X156243914Y-99083757D01*
X156244613Y-99068089D01*
X156245450Y-99052568D01*
X156246432Y-99037099D01*
X156247567Y-99021588D01*
X156248862Y-99005939D01*
X156250327Y-98990057D01*
X156251968Y-98973848D01*
X156253794Y-98957217D01*
X156255813Y-98940068D01*
X156258032Y-98922307D01*
X155916385Y-98922307D01*
X155918604Y-98938188D01*
X155920622Y-98953739D01*
X155922448Y-98969050D01*
X155924089Y-98984208D01*
X155925554Y-98999301D01*
X155926850Y-99014416D01*
X155927984Y-99029642D01*
X155928966Y-99045067D01*
X155929803Y-99060778D01*
X155930502Y-99076864D01*
X155931073Y-99093412D01*
X155931521Y-99110510D01*
X155931857Y-99128246D01*
X155932086Y-99146708D01*
X155932218Y-99165985D01*
X155932260Y-99186163D01*
X155932260Y-99642750D01*
X155932662Y-99666539D01*
X155933865Y-99689570D01*
X155935867Y-99711849D01*
X155938665Y-99733386D01*
X155942258Y-99754188D01*
X155946644Y-99774263D01*
X155951818Y-99793619D01*
X155957781Y-99812264D01*
X155964528Y-99830206D01*
X155972058Y-99847452D01*
X155980369Y-99864011D01*
X155989458Y-99879890D01*
X155999323Y-99895098D01*
X156009961Y-99909642D01*
X156021370Y-99923530D01*
X156033548Y-99936770D01*
X156046497Y-99949074D01*
X156060204Y-99960621D01*
X156074649Y-99971407D01*
X156089808Y-99981426D01*
X156105659Y-99990672D01*
X156122180Y-99999141D01*
X156139348Y-100006828D01*
X156157141Y-100013728D01*
X156175537Y-100019835D01*
X156194514Y-100025144D01*
X156214048Y-100029651D01*
X156234119Y-100033349D01*
X156254703Y-100036235D01*
X156275778Y-100038302D01*
X156297322Y-100039547D01*
X156319312Y-100039963D01*
X156333905Y-100039809D01*
X156348275Y-100039350D01*
X156362425Y-100038585D01*
X156376357Y-100037517D01*
X156390074Y-100036145D01*
X156403578Y-100034470D01*
X156416871Y-100032495D01*
X156429956Y-100030219D01*
X156442836Y-100027643D01*
X156455513Y-100024769D01*
X156467989Y-100021597D01*
X156480267Y-100018128D01*
X156504237Y-100010305D01*
X156527444Y-100001305D01*
X156549906Y-99991137D01*
X156571644Y-99979808D01*
X156592677Y-99967326D01*
X156613024Y-99953697D01*
X156632705Y-99938931D01*
X156651740Y-99923032D01*
X156670148Y-99906011D01*
X156687948Y-99887872D01*
X156687206Y-99901335D01*
X156686562Y-99914328D01*
X156686112Y-99927619D01*
X156686043Y-99933595D01*
X156686043Y-100019642D01*
X157009909Y-100019642D01*
X157007686Y-100004758D01*
X157005658Y-99990057D01*
X157003816Y-99975450D01*
X157002154Y-99960851D01*
X157000666Y-99946175D01*
X156999343Y-99931334D01*
X156998180Y-99916241D01*
X156997168Y-99900811D01*
X156996302Y-99884957D01*
X156995574Y-99868592D01*
X156994977Y-99851630D01*
X156994504Y-99833984D01*
X156994149Y-99815568D01*
X156993903Y-99796295D01*
X156993761Y-99776079D01*
X156993715Y-99754833D01*
X156993715Y-99187433D01*
X156993761Y-99168106D01*
X156993903Y-99149591D01*
X156994147Y-99131793D01*
X156994499Y-99114618D01*
X156994967Y-99097968D01*
X156995557Y-99081750D01*
X156996276Y-99065868D01*
X156997129Y-99050226D01*
X156998123Y-99034730D01*
X156999266Y-99019283D01*
X157000563Y-99003790D01*
X157002021Y-98988157D01*
X157003646Y-98972287D01*
X157005445Y-98956086D01*
X157007425Y-98939458D01*
X157009591Y-98922307D01*
X156670167Y-98922307D01*
G37*
G36*
X157197561Y-98515887D02*
G01*
X157199783Y-98531123D01*
X157201812Y-98546060D01*
X157203653Y-98560802D01*
X157205315Y-98575451D01*
X157206803Y-98590112D01*
X157208126Y-98604887D01*
X157209289Y-98619880D01*
X157210301Y-98635194D01*
X157211167Y-98650932D01*
X157211895Y-98667197D01*
X157212492Y-98684093D01*
X157212965Y-98701723D01*
X157213321Y-98720190D01*
X157213566Y-98739598D01*
X157213708Y-98760049D01*
X157213754Y-98781648D01*
X157213754Y-99754198D01*
X157213708Y-99775957D01*
X157213566Y-99796326D01*
X157213321Y-99815454D01*
X157212965Y-99833493D01*
X157212492Y-99850592D01*
X157211895Y-99866902D01*
X157211167Y-99882573D01*
X157210301Y-99897755D01*
X157209289Y-99912599D01*
X157208126Y-99927254D01*
X157206803Y-99941871D01*
X157205315Y-99956600D01*
X157203653Y-99971591D01*
X157201812Y-99986995D01*
X157199783Y-100002962D01*
X157197561Y-100019642D01*
X157539207Y-100019642D01*
X157537324Y-100001839D01*
X157535599Y-99984677D01*
X157534027Y-99968054D01*
X157532604Y-99951867D01*
X157531324Y-99936013D01*
X157530182Y-99920389D01*
X157529174Y-99904892D01*
X157528293Y-99889420D01*
X157527535Y-99873870D01*
X157526894Y-99858140D01*
X157526367Y-99842125D01*
X157525946Y-99825724D01*
X157525628Y-99808833D01*
X157525407Y-99791351D01*
X157525279Y-99773173D01*
X157525237Y-99754198D01*
X157525237Y-98781648D01*
X157525279Y-98760384D01*
X157525407Y-98740223D01*
X157525628Y-98721061D01*
X157525946Y-98702795D01*
X157526367Y-98685321D01*
X157526894Y-98668537D01*
X157527535Y-98652338D01*
X157528293Y-98636622D01*
X157529174Y-98621286D01*
X157530182Y-98606227D01*
X157531324Y-98591340D01*
X157532604Y-98576523D01*
X157534027Y-98561672D01*
X157535599Y-98546685D01*
X157537324Y-98531458D01*
X157539207Y-98515887D01*
X157197561Y-98515887D01*
G37*
G36*
X158260207Y-98882016D02*
G01*
X158282291Y-98883065D01*
X158303989Y-98884806D01*
X158325294Y-98887235D01*
X158346201Y-98890346D01*
X158366701Y-98894133D01*
X158386791Y-98898592D01*
X158406462Y-98903718D01*
X158425709Y-98909504D01*
X158444526Y-98915946D01*
X158462906Y-98923038D01*
X158480842Y-98930775D01*
X158498330Y-98939152D01*
X158515362Y-98948164D01*
X158531932Y-98957805D01*
X158548034Y-98968069D01*
X158563662Y-98978952D01*
X158578809Y-98990449D01*
X158593469Y-99002553D01*
X158607635Y-99015261D01*
X158621303Y-99028565D01*
X158634464Y-99042462D01*
X158647113Y-99056946D01*
X158659244Y-99072011D01*
X158670850Y-99087652D01*
X158681926Y-99103865D01*
X158692464Y-99120643D01*
X158702458Y-99137982D01*
X158711903Y-99155875D01*
X158720792Y-99174319D01*
X158729119Y-99193307D01*
X158736877Y-99212834D01*
X158742798Y-99229184D01*
X158748199Y-99244999D01*
X158753111Y-99260436D01*
X158757565Y-99275653D01*
X158761590Y-99290806D01*
X158765219Y-99306053D01*
X158768481Y-99321552D01*
X158771407Y-99337459D01*
X158774027Y-99353932D01*
X158776374Y-99371127D01*
X158778477Y-99389202D01*
X158780366Y-99408315D01*
X158782074Y-99428622D01*
X158783630Y-99450280D01*
X158785064Y-99473447D01*
X158786409Y-99498281D01*
X158786932Y-99509978D01*
X158788295Y-99523498D01*
X158789813Y-99537307D01*
X158791489Y-99552258D01*
X157990397Y-99552258D01*
X157991135Y-99559311D01*
X157992760Y-99572888D01*
X157994597Y-99585799D01*
X157997789Y-99604018D01*
X158001560Y-99621003D01*
X158005967Y-99636911D01*
X158011072Y-99651902D01*
X158016933Y-99666133D01*
X158023611Y-99679764D01*
X158031164Y-99692952D01*
X158039653Y-99705857D01*
X158049138Y-99718637D01*
X158058239Y-99729591D01*
X158067799Y-99739832D01*
X158077815Y-99749360D01*
X158088286Y-99758177D01*
X158099210Y-99766283D01*
X158110583Y-99773680D01*
X158122403Y-99780367D01*
X158134668Y-99786347D01*
X158147377Y-99791620D01*
X158160526Y-99796186D01*
X158174112Y-99800048D01*
X158188135Y-99803205D01*
X158202591Y-99805659D01*
X158217479Y-99807411D01*
X158232795Y-99808461D01*
X158248538Y-99808811D01*
X158271321Y-99808129D01*
X158293116Y-99806077D01*
X158313924Y-99802649D01*
X158333746Y-99797837D01*
X158352584Y-99791633D01*
X158370439Y-99784030D01*
X158387313Y-99775020D01*
X158403207Y-99764597D01*
X158418123Y-99752752D01*
X158432061Y-99739479D01*
X158445023Y-99724769D01*
X158457011Y-99708615D01*
X158468026Y-99691010D01*
X158478070Y-99671947D01*
X158487143Y-99651418D01*
X158495247Y-99629415D01*
X158779424Y-99716732D01*
X158771158Y-99735120D01*
X158763229Y-99752246D01*
X158755582Y-99768198D01*
X158748158Y-99783068D01*
X158740903Y-99796946D01*
X158733757Y-99809923D01*
X158726666Y-99822090D01*
X158719572Y-99833538D01*
X158712419Y-99844356D01*
X158701452Y-99859604D01*
X158690033Y-99873946D01*
X158677969Y-99887691D01*
X158665069Y-99901142D01*
X158655910Y-99910099D01*
X158646613Y-99919162D01*
X158637061Y-99927954D01*
X158627257Y-99936474D01*
X158617204Y-99944721D01*
X158606907Y-99952694D01*
X158596367Y-99960391D01*
X158585589Y-99967812D01*
X158574577Y-99974956D01*
X158563332Y-99981821D01*
X158551859Y-99988407D01*
X158540162Y-99994711D01*
X158528243Y-100000734D01*
X158516106Y-100006473D01*
X158503754Y-100011929D01*
X158491190Y-100017099D01*
X158478419Y-100021983D01*
X158465443Y-100026580D01*
X158452266Y-100030888D01*
X158438890Y-100034906D01*
X158425321Y-100038634D01*
X158411560Y-100042069D01*
X158397611Y-100045212D01*
X158383478Y-100048061D01*
X158369164Y-100050614D01*
X158354672Y-100052871D01*
X158340006Y-100054831D01*
X158325169Y-100056493D01*
X158310164Y-100057854D01*
X158294995Y-100058915D01*
X158279666Y-100059675D01*
X158264179Y-100060131D01*
X158248538Y-100060284D01*
X158233074Y-100060137D01*
X158217763Y-100059697D01*
X158202607Y-100058964D01*
X158187611Y-100057940D01*
X158172777Y-100056625D01*
X158158110Y-100055020D01*
X158143611Y-100053125D01*
X158129286Y-100050942D01*
X158115136Y-100048470D01*
X158101167Y-100045712D01*
X158087380Y-100042667D01*
X158073780Y-100039337D01*
X158060371Y-100035721D01*
X158047154Y-100031822D01*
X158034135Y-100027639D01*
X158021315Y-100023174D01*
X158008700Y-100018427D01*
X157996291Y-100013398D01*
X157984094Y-100008090D01*
X157972110Y-100002501D01*
X157960343Y-99996634D01*
X157948798Y-99990489D01*
X157937477Y-99984066D01*
X157926383Y-99977367D01*
X157915521Y-99970392D01*
X157904893Y-99963142D01*
X157894503Y-99955618D01*
X157884355Y-99947820D01*
X157874452Y-99939750D01*
X157864797Y-99931407D01*
X157855393Y-99922793D01*
X157846245Y-99913909D01*
X157836503Y-99903971D01*
X157827044Y-99893689D01*
X157817869Y-99883071D01*
X157808980Y-99872124D01*
X157800380Y-99860858D01*
X157792069Y-99849278D01*
X157784049Y-99837394D01*
X157776322Y-99825213D01*
X157768891Y-99812742D01*
X157761755Y-99799990D01*
X157754919Y-99786964D01*
X157748382Y-99773672D01*
X157742147Y-99760122D01*
X157736216Y-99746322D01*
X157730590Y-99732279D01*
X157725272Y-99718002D01*
X157720262Y-99703497D01*
X157715562Y-99688773D01*
X157711175Y-99673838D01*
X157707103Y-99658699D01*
X157703345Y-99643365D01*
X157699906Y-99627842D01*
X157696786Y-99612139D01*
X157693986Y-99596264D01*
X157691510Y-99580224D01*
X157689358Y-99564027D01*
X157687533Y-99547682D01*
X157686035Y-99531194D01*
X157684867Y-99514574D01*
X157684031Y-99497828D01*
X157683528Y-99480963D01*
X157683360Y-99463989D01*
X157684007Y-99431813D01*
X157685937Y-99400310D01*
X157689127Y-99369505D01*
X157693559Y-99339419D01*
X157697085Y-99321107D01*
X157997700Y-99321107D01*
X158476514Y-99321107D01*
X158473128Y-99305071D01*
X158469310Y-99290154D01*
X158464927Y-99276138D01*
X158459844Y-99262803D01*
X158453928Y-99249929D01*
X158447044Y-99237298D01*
X158439059Y-99224688D01*
X158429839Y-99211882D01*
X158417446Y-99197454D01*
X158403863Y-99184366D01*
X158389124Y-99172636D01*
X158373261Y-99162280D01*
X158362078Y-99156149D01*
X158350420Y-99150641D01*
X158338297Y-99145762D01*
X158325719Y-99141516D01*
X158312695Y-99137910D01*
X158299236Y-99134949D01*
X158285350Y-99132636D01*
X158271048Y-99130978D01*
X158256340Y-99129979D01*
X158241235Y-99129645D01*
X158217228Y-99130431D01*
X158194384Y-99132780D01*
X158172704Y-99136675D01*
X158152191Y-99142103D01*
X158132847Y-99149046D01*
X158114672Y-99157490D01*
X158097670Y-99167420D01*
X158081842Y-99178820D01*
X158067189Y-99191675D01*
X158053714Y-99205970D01*
X158041419Y-99221688D01*
X158030305Y-99238816D01*
X158020374Y-99257337D01*
X158011629Y-99277236D01*
X158004070Y-99298498D01*
X157997700Y-99321107D01*
X157697085Y-99321107D01*
X157699210Y-99310075D01*
X157706060Y-99281496D01*
X157714090Y-99253705D01*
X157723277Y-99226725D01*
X157733603Y-99200579D01*
X157745045Y-99175289D01*
X157757584Y-99150877D01*
X157771199Y-99127368D01*
X157785869Y-99104783D01*
X157801574Y-99083146D01*
X157818293Y-99062479D01*
X157836005Y-99042804D01*
X157854691Y-99024146D01*
X157874329Y-99006526D01*
X157894899Y-98989968D01*
X157916380Y-98974494D01*
X157938752Y-98960127D01*
X157961994Y-98946889D01*
X157986086Y-98934804D01*
X158011006Y-98923895D01*
X158036735Y-98914183D01*
X158063251Y-98905693D01*
X158090535Y-98898446D01*
X158118566Y-98892466D01*
X158147322Y-98887775D01*
X158176784Y-98884396D01*
X158206931Y-98882352D01*
X158237742Y-98881665D01*
X158260207Y-98882016D01*
G37*
D10*
X134867380Y-94226190D02*
X134867380Y-94702380D01*
X134867380Y-94702380D02*
X135343571Y-94749999D01*
X135343571Y-94749999D02*
X135295952Y-94702380D01*
X135295952Y-94702380D02*
X135248333Y-94607142D01*
X135248333Y-94607142D02*
X135248333Y-94369047D01*
X135248333Y-94369047D02*
X135295952Y-94273809D01*
X135295952Y-94273809D02*
X135343571Y-94226190D01*
X135343571Y-94226190D02*
X135438809Y-94178571D01*
X135438809Y-94178571D02*
X135676904Y-94178571D01*
X135676904Y-94178571D02*
X135772142Y-94226190D01*
X135772142Y-94226190D02*
X135819761Y-94273809D01*
X135819761Y-94273809D02*
X135867380Y-94369047D01*
X135867380Y-94369047D02*
X135867380Y-94607142D01*
X135867380Y-94607142D02*
X135819761Y-94702380D01*
X135819761Y-94702380D02*
X135772142Y-94749999D01*
X135772142Y-93749999D02*
X135819761Y-93702380D01*
X135819761Y-93702380D02*
X135867380Y-93749999D01*
X135867380Y-93749999D02*
X135819761Y-93797618D01*
X135819761Y-93797618D02*
X135772142Y-93749999D01*
X135772142Y-93749999D02*
X135867380Y-93749999D01*
X135867380Y-92750000D02*
X135867380Y-93321428D01*
X135867380Y-93035714D02*
X134867380Y-93035714D01*
X134867380Y-93035714D02*
X135010238Y-93130952D01*
X135010238Y-93130952D02*
X135105476Y-93226190D01*
X135105476Y-93226190D02*
X135153095Y-93321428D01*
X135867380Y-92321428D02*
X134867380Y-92321428D01*
X135867380Y-91750000D02*
X135295952Y-92178571D01*
X134867380Y-91750000D02*
X135438809Y-92321428D01*
X172750000Y-98367380D02*
X172750000Y-97367380D01*
X172750000Y-97367380D02*
X172988095Y-97367380D01*
X172988095Y-97367380D02*
X173130952Y-97415000D01*
X173130952Y-97415000D02*
X173226190Y-97510238D01*
X173226190Y-97510238D02*
X173273809Y-97605476D01*
X173273809Y-97605476D02*
X173321428Y-97795952D01*
X173321428Y-97795952D02*
X173321428Y-97938809D01*
X173321428Y-97938809D02*
X173273809Y-98129285D01*
X173273809Y-98129285D02*
X173226190Y-98224523D01*
X173226190Y-98224523D02*
X173130952Y-98319761D01*
X173130952Y-98319761D02*
X172988095Y-98367380D01*
X172988095Y-98367380D02*
X172750000Y-98367380D01*
X173750000Y-97986428D02*
X174511905Y-97986428D01*
X170988095Y-99367380D02*
X171321428Y-100367380D01*
X171321428Y-100367380D02*
X171654761Y-99367380D01*
X172321428Y-99843571D02*
X172464285Y-99891190D01*
X172464285Y-99891190D02*
X172511904Y-99938809D01*
X172511904Y-99938809D02*
X172559523Y-100034047D01*
X172559523Y-100034047D02*
X172559523Y-100176904D01*
X172559523Y-100176904D02*
X172511904Y-100272142D01*
X172511904Y-100272142D02*
X172464285Y-100319761D01*
X172464285Y-100319761D02*
X172369047Y-100367380D01*
X172369047Y-100367380D02*
X171988095Y-100367380D01*
X171988095Y-100367380D02*
X171988095Y-99367380D01*
X171988095Y-99367380D02*
X172321428Y-99367380D01*
X172321428Y-99367380D02*
X172416666Y-99415000D01*
X172416666Y-99415000D02*
X172464285Y-99462619D01*
X172464285Y-99462619D02*
X172511904Y-99557857D01*
X172511904Y-99557857D02*
X172511904Y-99653095D01*
X172511904Y-99653095D02*
X172464285Y-99748333D01*
X172464285Y-99748333D02*
X172416666Y-99795952D01*
X172416666Y-99795952D02*
X172321428Y-99843571D01*
X172321428Y-99843571D02*
X171988095Y-99843571D01*
X172988095Y-99367380D02*
X172988095Y-100176904D01*
X172988095Y-100176904D02*
X173035714Y-100272142D01*
X173035714Y-100272142D02*
X173083333Y-100319761D01*
X173083333Y-100319761D02*
X173178571Y-100367380D01*
X173178571Y-100367380D02*
X173369047Y-100367380D01*
X173369047Y-100367380D02*
X173464285Y-100319761D01*
X173464285Y-100319761D02*
X173511904Y-100272142D01*
X173511904Y-100272142D02*
X173559523Y-100176904D01*
X173559523Y-100176904D02*
X173559523Y-99367380D01*
X173988095Y-100319761D02*
X174130952Y-100367380D01*
X174130952Y-100367380D02*
X174369047Y-100367380D01*
X174369047Y-100367380D02*
X174464285Y-100319761D01*
X174464285Y-100319761D02*
X174511904Y-100272142D01*
X174511904Y-100272142D02*
X174559523Y-100176904D01*
X174559523Y-100176904D02*
X174559523Y-100081666D01*
X174559523Y-100081666D02*
X174511904Y-99986428D01*
X174511904Y-99986428D02*
X174464285Y-99938809D01*
X174464285Y-99938809D02*
X174369047Y-99891190D01*
X174369047Y-99891190D02*
X174178571Y-99843571D01*
X174178571Y-99843571D02*
X174083333Y-99795952D01*
X174083333Y-99795952D02*
X174035714Y-99748333D01*
X174035714Y-99748333D02*
X173988095Y-99653095D01*
X173988095Y-99653095D02*
X173988095Y-99557857D01*
X173988095Y-99557857D02*
X174035714Y-99462619D01*
X174035714Y-99462619D02*
X174083333Y-99415000D01*
X174083333Y-99415000D02*
X174178571Y-99367380D01*
X174178571Y-99367380D02*
X174416666Y-99367380D01*
X174416666Y-99367380D02*
X174559523Y-99415000D01*
X172464285Y-91415000D02*
X172369047Y-91367380D01*
X172369047Y-91367380D02*
X172226190Y-91367380D01*
X172226190Y-91367380D02*
X172083333Y-91415000D01*
X172083333Y-91415000D02*
X171988095Y-91510238D01*
X171988095Y-91510238D02*
X171940476Y-91605476D01*
X171940476Y-91605476D02*
X171892857Y-91795952D01*
X171892857Y-91795952D02*
X171892857Y-91938809D01*
X171892857Y-91938809D02*
X171940476Y-92129285D01*
X171940476Y-92129285D02*
X171988095Y-92224523D01*
X171988095Y-92224523D02*
X172083333Y-92319761D01*
X172083333Y-92319761D02*
X172226190Y-92367380D01*
X172226190Y-92367380D02*
X172321428Y-92367380D01*
X172321428Y-92367380D02*
X172464285Y-92319761D01*
X172464285Y-92319761D02*
X172511904Y-92272142D01*
X172511904Y-92272142D02*
X172511904Y-91938809D01*
X172511904Y-91938809D02*
X172321428Y-91938809D01*
X172940476Y-92367380D02*
X172940476Y-91367380D01*
X172940476Y-91367380D02*
X173511904Y-92367380D01*
X173511904Y-92367380D02*
X173511904Y-91367380D01*
X173988095Y-92367380D02*
X173988095Y-91367380D01*
X173988095Y-91367380D02*
X174226190Y-91367380D01*
X174226190Y-91367380D02*
X174369047Y-91415000D01*
X174369047Y-91415000D02*
X174464285Y-91510238D01*
X174464285Y-91510238D02*
X174511904Y-91605476D01*
X174511904Y-91605476D02*
X174559523Y-91795952D01*
X174559523Y-91795952D02*
X174559523Y-91938809D01*
X174559523Y-91938809D02*
X174511904Y-92129285D01*
X174511904Y-92129285D02*
X174464285Y-92224523D01*
X174464285Y-92224523D02*
X174369047Y-92319761D01*
X174369047Y-92319761D02*
X174226190Y-92367380D01*
X174226190Y-92367380D02*
X173988095Y-92367380D01*
D11*
G36*
X169449509Y-96677274D02*
G01*
X169520412Y-96712726D01*
X169545083Y-96737397D01*
X169574887Y-96797004D01*
X169574887Y-96845030D01*
X169545083Y-96904636D01*
X169520411Y-96929307D01*
X169449508Y-96964759D01*
X169281623Y-97006731D01*
X169068151Y-97006731D01*
X168900263Y-96964759D01*
X168829361Y-96929308D01*
X168804691Y-96904638D01*
X168774887Y-96845030D01*
X168774887Y-96797004D01*
X168804691Y-96737395D01*
X168829361Y-96712726D01*
X168900264Y-96677274D01*
X169068150Y-96635303D01*
X169281622Y-96635303D01*
X169449509Y-96677274D01*
G37*
G36*
X169098696Y-93871457D02*
G01*
X169063674Y-93976523D01*
X169044222Y-93995974D01*
X168984614Y-94025779D01*
X168888969Y-94025779D01*
X168829361Y-93995975D01*
X168804691Y-93971305D01*
X168774887Y-93911697D01*
X168774887Y-93654351D01*
X169098696Y-93654351D01*
X169098696Y-93871457D01*
G37*
G36*
X169574887Y-93864078D02*
G01*
X169545083Y-93923684D01*
X169520411Y-93948355D01*
X169460804Y-93978160D01*
X169412778Y-93978160D01*
X169353170Y-93948356D01*
X169328500Y-93923686D01*
X169299553Y-93865792D01*
X169299692Y-93861955D01*
X169298696Y-93860275D01*
X169298696Y-93654351D01*
X169574887Y-93654351D01*
X169574887Y-93864078D01*
G37*
G36*
X170235125Y-97890065D02*
G01*
X167849411Y-97890065D01*
X167849411Y-96784586D01*
X168571267Y-96784586D01*
X168574887Y-96793314D01*
X168574887Y-96863251D01*
X168572313Y-96887094D01*
X168581451Y-96905370D01*
X168587210Y-96924983D01*
X168594351Y-96931171D01*
X168627455Y-96997379D01*
X168631033Y-97013822D01*
X168650512Y-97033301D01*
X168669284Y-97053482D01*
X168671177Y-97053966D01*
X168690548Y-97073337D01*
X168699141Y-97087804D01*
X168723777Y-97100122D01*
X168747971Y-97113333D01*
X168749919Y-97113193D01*
X168804709Y-97140588D01*
X168812623Y-97149005D01*
X168830461Y-97153464D01*
X168833502Y-97154985D01*
X168844356Y-97156938D01*
X169015619Y-97199754D01*
X169026476Y-97206731D01*
X169043527Y-97206731D01*
X169045535Y-97207233D01*
X169057881Y-97206731D01*
X169277475Y-97206731D01*
X169289701Y-97210867D01*
X169306245Y-97206731D01*
X169308313Y-97206731D01*
X169320163Y-97203251D01*
X169491383Y-97160446D01*
X169502868Y-97161686D01*
X169519311Y-97153464D01*
X169522613Y-97152639D01*
X169532133Y-97147053D01*
X169613152Y-97106543D01*
X169629595Y-97102967D01*
X169649078Y-97083483D01*
X169669256Y-97064715D01*
X169669739Y-97062822D01*
X169689112Y-97043450D01*
X169703579Y-97034858D01*
X169715898Y-97010219D01*
X169729108Y-96986029D01*
X169728968Y-96984079D01*
X169761921Y-96918174D01*
X169774887Y-96897999D01*
X169774887Y-96877564D01*
X169778507Y-96857448D01*
X169774887Y-96848720D01*
X169774887Y-96778782D01*
X169777461Y-96754939D01*
X169768322Y-96736661D01*
X169762564Y-96717051D01*
X169755422Y-96710863D01*
X169722318Y-96644654D01*
X169718741Y-96628211D01*
X169699260Y-96608730D01*
X169680490Y-96588551D01*
X169678595Y-96588066D01*
X169659223Y-96568694D01*
X169650632Y-96554230D01*
X169626007Y-96541917D01*
X169601801Y-96528700D01*
X169599851Y-96528839D01*
X169545064Y-96501446D01*
X169537150Y-96493029D01*
X169519310Y-96488569D01*
X169516270Y-96487049D01*
X169505418Y-96485096D01*
X169334153Y-96442279D01*
X169323297Y-96435303D01*
X169306246Y-96435303D01*
X169304238Y-96434801D01*
X169291892Y-96435303D01*
X169072298Y-96435303D01*
X169060072Y-96431167D01*
X169043528Y-96435303D01*
X169041460Y-96435303D01*
X169029609Y-96438782D01*
X168858388Y-96481587D01*
X168846904Y-96480348D01*
X168830460Y-96488569D01*
X168827160Y-96489395D01*
X168817643Y-96494978D01*
X168736617Y-96535491D01*
X168720177Y-96539068D01*
X168700702Y-96558542D01*
X168680516Y-96577319D01*
X168680031Y-96579213D01*
X168660661Y-96598583D01*
X168646195Y-96607176D01*
X168633877Y-96631810D01*
X168620666Y-96656006D01*
X168620805Y-96657955D01*
X168587854Y-96723856D01*
X168574887Y-96744035D01*
X168574887Y-96764471D01*
X168571267Y-96784586D01*
X167849411Y-96784586D01*
X167849411Y-96099297D01*
X168570930Y-96099297D01*
X168573336Y-96110359D01*
X168571726Y-96121564D01*
X168576428Y-96131861D01*
X168577236Y-96143154D01*
X168581796Y-96149246D01*
X168583414Y-96156680D01*
X168591417Y-96164683D01*
X168596121Y-96174983D01*
X168605644Y-96181103D01*
X168612429Y-96190166D01*
X168619559Y-96192825D01*
X168646734Y-96220000D01*
X168660048Y-96237785D01*
X168680860Y-96245547D01*
X168700352Y-96256191D01*
X168707940Y-96255648D01*
X168715071Y-96258308D01*
X168736778Y-96253585D01*
X168758928Y-96252001D01*
X168765018Y-96247441D01*
X168772454Y-96245824D01*
X168788159Y-96230118D01*
X168805939Y-96216809D01*
X168808598Y-96209679D01*
X168822786Y-96195491D01*
X168826472Y-96194409D01*
X168838661Y-96180341D01*
X168853558Y-96169190D01*
X168857513Y-96158584D01*
X168864929Y-96150027D01*
X168866540Y-96138820D01*
X168871965Y-96128886D01*
X168871422Y-96121295D01*
X168874081Y-96114167D01*
X168871674Y-96103106D01*
X168873286Y-96091900D01*
X168868582Y-96081600D01*
X168867775Y-96070310D01*
X168863215Y-96064219D01*
X168861598Y-96056784D01*
X168853594Y-96048780D01*
X168848891Y-96038481D01*
X168839365Y-96032359D01*
X168832583Y-96023299D01*
X168825453Y-96020639D01*
X168798273Y-95993459D01*
X168784964Y-95975680D01*
X168764157Y-95967919D01*
X168744660Y-95957273D01*
X168737069Y-95957815D01*
X168729941Y-95955157D01*
X168708241Y-95959877D01*
X168686084Y-95961462D01*
X168679991Y-95966022D01*
X168672558Y-95967640D01*
X168656856Y-95983341D01*
X168639072Y-95996655D01*
X168636412Y-96003785D01*
X168622225Y-96017972D01*
X168618540Y-96019055D01*
X168606352Y-96033120D01*
X168591453Y-96044274D01*
X168587496Y-96054881D01*
X168580083Y-96063437D01*
X168578471Y-96074643D01*
X168573047Y-96084578D01*
X168573589Y-96092166D01*
X168570930Y-96099297D01*
X167849411Y-96099297D01*
X167849411Y-95051678D01*
X168570930Y-95051678D01*
X168574887Y-95069866D01*
X168574887Y-95692539D01*
X168587210Y-95734507D01*
X168631592Y-95772964D01*
X168689719Y-95781321D01*
X168743138Y-95756926D01*
X168774887Y-95707523D01*
X168774887Y-95300534D01*
X169171793Y-95697440D01*
X169186836Y-95716124D01*
X169206223Y-95722586D01*
X169224161Y-95732381D01*
X169233585Y-95731707D01*
X169345653Y-95769062D01*
X169359809Y-95778160D01*
X169387364Y-95778160D01*
X169414901Y-95779156D01*
X169416581Y-95778160D01*
X169479025Y-95778160D01*
X169502868Y-95780734D01*
X169521144Y-95771595D01*
X169540757Y-95765837D01*
X169546945Y-95758695D01*
X169613152Y-95725591D01*
X169629595Y-95722015D01*
X169649078Y-95702531D01*
X169669256Y-95683763D01*
X169669739Y-95681870D01*
X169689112Y-95662498D01*
X169703579Y-95653906D01*
X169715898Y-95629267D01*
X169729108Y-95605077D01*
X169728968Y-95603127D01*
X169761921Y-95537222D01*
X169774887Y-95517047D01*
X169774887Y-95496612D01*
X169778507Y-95476496D01*
X169774887Y-95467768D01*
X169774887Y-95254973D01*
X169777461Y-95231130D01*
X169768322Y-95212852D01*
X169762564Y-95193242D01*
X169755422Y-95187054D01*
X169722318Y-95120845D01*
X169718741Y-95104402D01*
X169699260Y-95084921D01*
X169680490Y-95064742D01*
X169678595Y-95064257D01*
X169640190Y-95025853D01*
X169601801Y-95004891D01*
X169543225Y-95009082D01*
X169496214Y-95044275D01*
X169475691Y-95099298D01*
X169488175Y-95156681D01*
X169545083Y-95213588D01*
X169574887Y-95273195D01*
X169574887Y-95464078D01*
X169545083Y-95523684D01*
X169520411Y-95548355D01*
X169460804Y-95578160D01*
X169405399Y-95578160D01*
X169300333Y-95543138D01*
X168763646Y-95006451D01*
X168762564Y-95002766D01*
X168743065Y-94985870D01*
X168735430Y-94978235D01*
X168732248Y-94976498D01*
X168718182Y-94964309D01*
X168706975Y-94962697D01*
X168697041Y-94957273D01*
X168678477Y-94958600D01*
X168660055Y-94955952D01*
X168649757Y-94960654D01*
X168638465Y-94961462D01*
X168623565Y-94972615D01*
X168606636Y-94980347D01*
X168600515Y-94989870D01*
X168591453Y-94996655D01*
X168584948Y-95014093D01*
X168574887Y-95029750D01*
X168574887Y-95041069D01*
X168570930Y-95051678D01*
X167849411Y-95051678D01*
X167849411Y-93569183D01*
X168571726Y-93569183D01*
X168574887Y-93576105D01*
X168574887Y-93929918D01*
X168572313Y-93953761D01*
X168581451Y-93972037D01*
X168587210Y-93991650D01*
X168594351Y-93997838D01*
X168627455Y-94064046D01*
X168631033Y-94080489D01*
X168650512Y-94099968D01*
X168669284Y-94120149D01*
X168671177Y-94120633D01*
X168690548Y-94140004D01*
X168699141Y-94154471D01*
X168723777Y-94166789D01*
X168747971Y-94180000D01*
X168749919Y-94179860D01*
X168815824Y-94212813D01*
X168836000Y-94225779D01*
X168856435Y-94225779D01*
X168876551Y-94229399D01*
X168885279Y-94225779D01*
X169002835Y-94225779D01*
X169026678Y-94228353D01*
X169044954Y-94219214D01*
X169064567Y-94213456D01*
X169070755Y-94206314D01*
X169136963Y-94173210D01*
X169153406Y-94169633D01*
X169172885Y-94150153D01*
X169193066Y-94131382D01*
X169193550Y-94129488D01*
X169217976Y-94105062D01*
X169220622Y-94102932D01*
X169222950Y-94106852D01*
X169247586Y-94119170D01*
X169271780Y-94132381D01*
X169273728Y-94132241D01*
X169339633Y-94165194D01*
X169359809Y-94178160D01*
X169380244Y-94178160D01*
X169400360Y-94181780D01*
X169409088Y-94178160D01*
X169479025Y-94178160D01*
X169502868Y-94180734D01*
X169521144Y-94171595D01*
X169540757Y-94165837D01*
X169546945Y-94158695D01*
X169613152Y-94125591D01*
X169629595Y-94122015D01*
X169649078Y-94102531D01*
X169669256Y-94083763D01*
X169669739Y-94081870D01*
X169689112Y-94062498D01*
X169703579Y-94053906D01*
X169715898Y-94029267D01*
X169729108Y-94005077D01*
X169728968Y-94003127D01*
X169761921Y-93937222D01*
X169774887Y-93917047D01*
X169774887Y-93896612D01*
X169778507Y-93876496D01*
X169774887Y-93867768D01*
X169774887Y-93561505D01*
X169778048Y-93539519D01*
X169768821Y-93519315D01*
X169762564Y-93498004D01*
X169756813Y-93493021D01*
X169753653Y-93486100D01*
X169734967Y-93474091D01*
X169718182Y-93459547D01*
X169710650Y-93458464D01*
X169704250Y-93454351D01*
X169682041Y-93454351D01*
X169660055Y-93451190D01*
X169653133Y-93454351D01*
X169205850Y-93454351D01*
X169183864Y-93451190D01*
X169176942Y-93454351D01*
X168682041Y-93454351D01*
X168660055Y-93451190D01*
X168639851Y-93460416D01*
X168618540Y-93466674D01*
X168613557Y-93472424D01*
X168606636Y-93475585D01*
X168594627Y-93494270D01*
X168580083Y-93511056D01*
X168579000Y-93518587D01*
X168574887Y-93524988D01*
X168574887Y-93547197D01*
X168571726Y-93569183D01*
X167849411Y-93569183D01*
X167849411Y-92953761D01*
X168572313Y-92953761D01*
X168581451Y-92972037D01*
X168587210Y-92991650D01*
X168594351Y-92997838D01*
X168627455Y-93064046D01*
X168631033Y-93080489D01*
X168650512Y-93099968D01*
X168669284Y-93120149D01*
X168671177Y-93120633D01*
X168690548Y-93140004D01*
X168699141Y-93154471D01*
X168723777Y-93166789D01*
X168747971Y-93180000D01*
X168749919Y-93179860D01*
X168815824Y-93212813D01*
X168836000Y-93225779D01*
X168856435Y-93225779D01*
X168876551Y-93229399D01*
X168885279Y-93225779D01*
X168955216Y-93225779D01*
X168979059Y-93228353D01*
X168997335Y-93219214D01*
X169016948Y-93213456D01*
X169023136Y-93206314D01*
X169089344Y-93173210D01*
X169105787Y-93169633D01*
X169125266Y-93150153D01*
X169145447Y-93131382D01*
X169145931Y-93129488D01*
X169165302Y-93110117D01*
X169179769Y-93101525D01*
X169192087Y-93076888D01*
X169205298Y-93052695D01*
X169205158Y-93050746D01*
X169232553Y-92995956D01*
X169240970Y-92988043D01*
X169245429Y-92970204D01*
X169246950Y-92967164D01*
X169248903Y-92956309D01*
X169293048Y-92779727D01*
X169328500Y-92708824D01*
X169353170Y-92684155D01*
X169412778Y-92654351D01*
X169460804Y-92654351D01*
X169520412Y-92684155D01*
X169545083Y-92708826D01*
X169574887Y-92768433D01*
X169574887Y-92966695D01*
X169527853Y-93107797D01*
X169526272Y-93151509D01*
X169556215Y-93202027D01*
X169608716Y-93228336D01*
X169667109Y-93222086D01*
X169712851Y-93185258D01*
X169765789Y-93026440D01*
X169774887Y-93012285D01*
X169774887Y-92984730D01*
X169775883Y-92957193D01*
X169774887Y-92955513D01*
X169774887Y-92750211D01*
X169777461Y-92726368D01*
X169768322Y-92708090D01*
X169762564Y-92688480D01*
X169755422Y-92682292D01*
X169722318Y-92616083D01*
X169718741Y-92599640D01*
X169699260Y-92580159D01*
X169680490Y-92559980D01*
X169678595Y-92559495D01*
X169659223Y-92540123D01*
X169650632Y-92525659D01*
X169626007Y-92513346D01*
X169601801Y-92500129D01*
X169599851Y-92500268D01*
X169533951Y-92467318D01*
X169513773Y-92454351D01*
X169493337Y-92454351D01*
X169473222Y-92450731D01*
X169464494Y-92454351D01*
X169394556Y-92454351D01*
X169370713Y-92451777D01*
X169352435Y-92460915D01*
X169332825Y-92466674D01*
X169326637Y-92473815D01*
X169260426Y-92506920D01*
X169243986Y-92510497D01*
X169224511Y-92529971D01*
X169204325Y-92548748D01*
X169203840Y-92550642D01*
X169184470Y-92570012D01*
X169170004Y-92578605D01*
X169157686Y-92603239D01*
X169144475Y-92627435D01*
X169144614Y-92629384D01*
X169117220Y-92684172D01*
X169108803Y-92692087D01*
X169104343Y-92709927D01*
X169102823Y-92712967D01*
X169100870Y-92723818D01*
X169056724Y-92900403D01*
X169021273Y-92971305D01*
X168996603Y-92995974D01*
X168936995Y-93025779D01*
X168888969Y-93025779D01*
X168829361Y-92995975D01*
X168804691Y-92971305D01*
X168774887Y-92911697D01*
X168774887Y-92713436D01*
X168821921Y-92572333D01*
X168823502Y-92528622D01*
X168793559Y-92478104D01*
X168741057Y-92451794D01*
X168682665Y-92458045D01*
X168636923Y-92494873D01*
X168583984Y-92653689D01*
X168574887Y-92667845D01*
X168574887Y-92695400D01*
X168573891Y-92722938D01*
X168574887Y-92724618D01*
X168574887Y-92929918D01*
X168572313Y-92953761D01*
X167849411Y-92953761D01*
X167849411Y-91756015D01*
X168571267Y-91756015D01*
X168574887Y-91764743D01*
X168574887Y-91929918D01*
X168572313Y-91953761D01*
X168581451Y-91972037D01*
X168587210Y-91991650D01*
X168594351Y-91997838D01*
X168627455Y-92064046D01*
X168631033Y-92080489D01*
X168650512Y-92099968D01*
X168669284Y-92120149D01*
X168671177Y-92120633D01*
X168690548Y-92140004D01*
X168699141Y-92154471D01*
X168723777Y-92166789D01*
X168747971Y-92180000D01*
X168749919Y-92179860D01*
X168815824Y-92212813D01*
X168836000Y-92225779D01*
X168856435Y-92225779D01*
X168876551Y-92229399D01*
X168885279Y-92225779D01*
X169689266Y-92225779D01*
X169731234Y-92213456D01*
X169769691Y-92169074D01*
X169778048Y-92110947D01*
X169753653Y-92057528D01*
X169704250Y-92025779D01*
X168888969Y-92025779D01*
X168829361Y-91995975D01*
X168804691Y-91971305D01*
X168774887Y-91911697D01*
X168774887Y-91768433D01*
X168804691Y-91708824D01*
X168829361Y-91684155D01*
X168888969Y-91654351D01*
X169689266Y-91654351D01*
X169731234Y-91642028D01*
X169769691Y-91597646D01*
X169778048Y-91539519D01*
X169753653Y-91486100D01*
X169704250Y-91454351D01*
X168870747Y-91454351D01*
X168846904Y-91451777D01*
X168828626Y-91460915D01*
X168809016Y-91466674D01*
X168802828Y-91473815D01*
X168736617Y-91506920D01*
X168720177Y-91510497D01*
X168700702Y-91529971D01*
X168680516Y-91548748D01*
X168680031Y-91550642D01*
X168660661Y-91570012D01*
X168646195Y-91578605D01*
X168633877Y-91603239D01*
X168620666Y-91627435D01*
X168620805Y-91629384D01*
X168587854Y-91695285D01*
X168574887Y-91715464D01*
X168574887Y-91735900D01*
X168571267Y-91756015D01*
X167849411Y-91756015D01*
X167849411Y-90723399D01*
X170235125Y-90723399D01*
X170235125Y-97890065D01*
G37*
D10*
X173511905Y-94367380D02*
X173511905Y-93367380D01*
X173988095Y-94367380D02*
X173988095Y-93367380D01*
X173988095Y-93367380D02*
X174226190Y-93367380D01*
X174226190Y-93367380D02*
X174369047Y-93415000D01*
X174369047Y-93415000D02*
X174464285Y-93510238D01*
X174464285Y-93510238D02*
X174511904Y-93605476D01*
X174511904Y-93605476D02*
X174559523Y-93795952D01*
X174559523Y-93795952D02*
X174559523Y-93938809D01*
X174559523Y-93938809D02*
X174511904Y-94129285D01*
X174511904Y-94129285D02*
X174464285Y-94224523D01*
X174464285Y-94224523D02*
X174369047Y-94319761D01*
X174369047Y-94319761D02*
X174226190Y-94367380D01*
X174226190Y-94367380D02*
X173988095Y-94367380D01*
X172750000Y-96367380D02*
X172750000Y-95367380D01*
X172750000Y-95367380D02*
X172988095Y-95367380D01*
X172988095Y-95367380D02*
X173130952Y-95415000D01*
X173130952Y-95415000D02*
X173226190Y-95510238D01*
X173226190Y-95510238D02*
X173273809Y-95605476D01*
X173273809Y-95605476D02*
X173321428Y-95795952D01*
X173321428Y-95795952D02*
X173321428Y-95938809D01*
X173321428Y-95938809D02*
X173273809Y-96129285D01*
X173273809Y-96129285D02*
X173226190Y-96224523D01*
X173226190Y-96224523D02*
X173130952Y-96319761D01*
X173130952Y-96319761D02*
X172988095Y-96367380D01*
X172988095Y-96367380D02*
X172750000Y-96367380D01*
X173750000Y-95986428D02*
X174511905Y-95986428D01*
X174130952Y-96367380D02*
X174130952Y-95605476D01*
%TO.C,R2*%
X141233333Y-96687380D02*
X140900000Y-96211190D01*
X140661905Y-96687380D02*
X140661905Y-95687380D01*
X140661905Y-95687380D02*
X141042857Y-95687380D01*
X141042857Y-95687380D02*
X141138095Y-95735000D01*
X141138095Y-95735000D02*
X141185714Y-95782619D01*
X141185714Y-95782619D02*
X141233333Y-95877857D01*
X141233333Y-95877857D02*
X141233333Y-96020714D01*
X141233333Y-96020714D02*
X141185714Y-96115952D01*
X141185714Y-96115952D02*
X141138095Y-96163571D01*
X141138095Y-96163571D02*
X141042857Y-96211190D01*
X141042857Y-96211190D02*
X140661905Y-96211190D01*
X141614286Y-95782619D02*
X141661905Y-95735000D01*
X141661905Y-95735000D02*
X141757143Y-95687380D01*
X141757143Y-95687380D02*
X141995238Y-95687380D01*
X141995238Y-95687380D02*
X142090476Y-95735000D01*
X142090476Y-95735000D02*
X142138095Y-95782619D01*
X142138095Y-95782619D02*
X142185714Y-95877857D01*
X142185714Y-95877857D02*
X142185714Y-95973095D01*
X142185714Y-95973095D02*
X142138095Y-96115952D01*
X142138095Y-96115952D02*
X141566667Y-96687380D01*
X141566667Y-96687380D02*
X142185714Y-96687380D01*
%TO.C,*%
%TO.C,R1*%
X141333333Y-90767380D02*
X141000000Y-90291190D01*
X140761905Y-90767380D02*
X140761905Y-89767380D01*
X140761905Y-89767380D02*
X141142857Y-89767380D01*
X141142857Y-89767380D02*
X141238095Y-89815000D01*
X141238095Y-89815000D02*
X141285714Y-89862619D01*
X141285714Y-89862619D02*
X141333333Y-89957857D01*
X141333333Y-89957857D02*
X141333333Y-90100714D01*
X141333333Y-90100714D02*
X141285714Y-90195952D01*
X141285714Y-90195952D02*
X141238095Y-90243571D01*
X141238095Y-90243571D02*
X141142857Y-90291190D01*
X141142857Y-90291190D02*
X140761905Y-90291190D01*
X142285714Y-90767380D02*
X141714286Y-90767380D01*
X142000000Y-90767380D02*
X142000000Y-89767380D01*
X142000000Y-89767380D02*
X141904762Y-89910238D01*
X141904762Y-89910238D02*
X141809524Y-90005476D01*
X141809524Y-90005476D02*
X141714286Y-90053095D01*
%TO.C,*%
D12*
%TO.C,R2*%
X144270000Y-94400000D02*
X143320000Y-94400000D01*
X143320000Y-95320000D02*
X143320000Y-93480000D01*
X143320000Y-93480000D02*
X139480000Y-93480000D01*
X139480000Y-95320000D02*
X143320000Y-95320000D01*
X139480000Y-93480000D02*
X139480000Y-95320000D01*
X138530000Y-94400000D02*
X139480000Y-94400000D01*
%TO.C,R1*%
X144270000Y-92100000D02*
X143320000Y-92100000D01*
X143320000Y-93020000D02*
X143320000Y-91180000D01*
X143320000Y-91180000D02*
X139480000Y-91180000D01*
X139480000Y-93020000D02*
X143320000Y-93020000D01*
X139480000Y-91180000D02*
X139480000Y-93020000D01*
X138530000Y-92100000D02*
X139480000Y-92100000D01*
%TD*%
%LPC*%
D13*
%TO.C,J2*%
X150110000Y-92855000D03*
X155890000Y-92855000D03*
D14*
X148679999Y-89174999D03*
X157319999Y-89174999D03*
D15*
X148679999Y-93354998D03*
X157319999Y-93354998D03*
%TD*%
D16*
%TO.C,R2*%
X145210000Y-94400000D03*
D17*
X137589999Y-94399999D03*
%TD*%
D18*
%TO.C,*%
X171850000Y-89050000D03*
%TD*%
D19*
%TO.C,REF\u002A\u002A*%
X130100000Y-89100000D03*
%TD*%
D18*
%TO.C,*%
X171850000Y-102900000D03*
%TD*%
D16*
%TO.C,R1*%
X145210000Y-92100000D03*
D17*
X137589999Y-92099999D03*
%TD*%
D18*
%TO.C,*%
X134125000Y-102925000D03*
%TD*%
D19*
%TO.C,REF\u002A\u002A*%
X175900000Y-102900000D03*
%TD*%
D18*
%TO.C,*%
X134125000Y-89100000D03*
%TD*%
D20*
%TO.C,J1*%
X176250000Y-92000000D03*
D21*
X176249999Y-93999999D03*
X176249999Y-95999999D03*
X176249999Y-97999999D03*
X176249999Y-99999999D03*
%TD*%
M02*
