%TF.GenerationSoftware,KiCad,Pcbnew,(7.0.0-0)*%
%TF.CreationDate,2023-08-09T13:50:22+02:00*%
%TF.ProjectId,shine-usb-c,7368696e-652d-4757-9362-2d632e6b6963,1*%
%TF.SameCoordinates,Original*%
%TF.FileFunction,Drillmap*%
%TF.FilePolarity,Positive*%
%FSLAX45Y45*%
G04 Gerber Fmt 4.5, Leading zero omitted, Abs format (unit mm)*
G04 Created by KiCad (PCBNEW (7.0.0-0)) date 2023-08-09 13:50:22*
%MOMM*%
%LPD*%
G01*
G04 APERTURE LIST*
%ADD10C,0.200000*%
%ADD11C,0.040000*%
%ADD12C,0.060000*%
%ADD13C,0.070000*%
%ADD14C,0.080000*%
G04 APERTURE END LIST*
D10*
X12800000Y-8700000D02*
X17800000Y-8700000D01*
X17800000Y-8700000D02*
X17800000Y-10500000D01*
X17800000Y-10500000D02*
X12800000Y-10500000D01*
X12800000Y-10500000D02*
X12800000Y-8700000D01*
D11*
X15040000Y-9500000D02*
X15080000Y-9540000D01*
X15080000Y-9500000D02*
X15040000Y-9540000D01*
X15316076Y-9583924D02*
X15356076Y-9623924D01*
X15356076Y-9583924D02*
X15316076Y-9623924D01*
X15520000Y-9500000D02*
X15560000Y-9540000D01*
X15560000Y-9500000D02*
X15520000Y-9540000D01*
D12*
X14898000Y-8917500D02*
G75*
G03*
X14898000Y-8917500I-30000J0D01*
G01*
D10*
X14838000Y-8877500D02*
X14838000Y-8957500D01*
X14838000Y-8957500D02*
G75*
G03*
X14898000Y-8957500I30000J0D01*
G01*
X14898000Y-8957500D02*
X14898000Y-8877500D01*
X14898000Y-8877500D02*
G75*
G03*
X14838000Y-8877500I-30000J0D01*
G01*
D12*
X14898000Y-9335500D02*
G75*
G03*
X14898000Y-9335500I-30000J0D01*
G01*
D10*
X14838000Y-9280500D02*
X14838000Y-9390500D01*
X14838000Y-9390500D02*
G75*
G03*
X14898000Y-9390500I30000J0D01*
G01*
X14898000Y-9390500D02*
X14898000Y-9280500D01*
X14898000Y-9280500D02*
G75*
G03*
X14838000Y-9280500I-30000J0D01*
G01*
D12*
X15762000Y-8917500D02*
G75*
G03*
X15762000Y-8917500I-30000J0D01*
G01*
D10*
X15702000Y-8877500D02*
X15702000Y-8957500D01*
X15702000Y-8957500D02*
G75*
G03*
X15762000Y-8957500I30000J0D01*
G01*
X15762000Y-8957500D02*
X15762000Y-8877500D01*
X15762000Y-8877500D02*
G75*
G03*
X15702000Y-8877500I-30000J0D01*
G01*
D12*
X15762000Y-9335500D02*
G75*
G03*
X15762000Y-9335500I-30000J0D01*
G01*
D10*
X15702000Y-9280500D02*
X15702000Y-9390500D01*
X15702000Y-9390500D02*
G75*
G03*
X15762000Y-9390500I30000J0D01*
G01*
X15762000Y-9390500D02*
X15762000Y-9280500D01*
X15762000Y-9280500D02*
G75*
G03*
X15702000Y-9280500I-30000J0D01*
G01*
D13*
X13759000Y-9175000D02*
X13759000Y-9245000D01*
X13724000Y-9210000D02*
X13794000Y-9210000D01*
X13759000Y-9405000D02*
X13759000Y-9475000D01*
X13724000Y-9440000D02*
X13794000Y-9440000D01*
X14521000Y-9175000D02*
X14521000Y-9245000D01*
X14486000Y-9210000D02*
X14556000Y-9210000D01*
X14521000Y-9405000D02*
X14521000Y-9475000D01*
X14486000Y-9440000D02*
X14556000Y-9440000D01*
D14*
X17653285Y-9228285D02*
X17653285Y-9171716D01*
X17596716Y-9171716D01*
X17596716Y-9228285D01*
X17653285Y-9228285D01*
X17653285Y-9428285D02*
X17653285Y-9371716D01*
X17596716Y-9371716D01*
X17596716Y-9428285D01*
X17653285Y-9428285D01*
X17653285Y-9628285D02*
X17653285Y-9571716D01*
X17596716Y-9571716D01*
X17596716Y-9628285D01*
X17653285Y-9628285D01*
X17653285Y-9828285D02*
X17653285Y-9771716D01*
X17596716Y-9771716D01*
X17596716Y-9828285D01*
X17653285Y-9828285D01*
X17653285Y-10028285D02*
X17653285Y-9971716D01*
X17596716Y-9971716D01*
X17596716Y-10028285D01*
X17653285Y-10028285D01*
D10*
X13037619Y-10803476D02*
X13037619Y-10603476D01*
X13037619Y-10603476D02*
X13085238Y-10603476D01*
X13085238Y-10603476D02*
X13113809Y-10613000D01*
X13113809Y-10613000D02*
X13132857Y-10632048D01*
X13132857Y-10632048D02*
X13142381Y-10651095D01*
X13142381Y-10651095D02*
X13151905Y-10689190D01*
X13151905Y-10689190D02*
X13151905Y-10717762D01*
X13151905Y-10717762D02*
X13142381Y-10755857D01*
X13142381Y-10755857D02*
X13132857Y-10774905D01*
X13132857Y-10774905D02*
X13113809Y-10793952D01*
X13113809Y-10793952D02*
X13085238Y-10803476D01*
X13085238Y-10803476D02*
X13037619Y-10803476D01*
X13237619Y-10803476D02*
X13237619Y-10670143D01*
X13237619Y-10708238D02*
X13247143Y-10689190D01*
X13247143Y-10689190D02*
X13256667Y-10679667D01*
X13256667Y-10679667D02*
X13275714Y-10670143D01*
X13275714Y-10670143D02*
X13294762Y-10670143D01*
X13361428Y-10803476D02*
X13361428Y-10670143D01*
X13361428Y-10603476D02*
X13351905Y-10613000D01*
X13351905Y-10613000D02*
X13361428Y-10622524D01*
X13361428Y-10622524D02*
X13370952Y-10613000D01*
X13370952Y-10613000D02*
X13361428Y-10603476D01*
X13361428Y-10603476D02*
X13361428Y-10622524D01*
X13485238Y-10803476D02*
X13466190Y-10793952D01*
X13466190Y-10793952D02*
X13456667Y-10774905D01*
X13456667Y-10774905D02*
X13456667Y-10603476D01*
X13590000Y-10803476D02*
X13570952Y-10793952D01*
X13570952Y-10793952D02*
X13561428Y-10774905D01*
X13561428Y-10774905D02*
X13561428Y-10603476D01*
X13786190Y-10803476D02*
X13786190Y-10603476D01*
X13786190Y-10603476D02*
X13852857Y-10746333D01*
X13852857Y-10746333D02*
X13919524Y-10603476D01*
X13919524Y-10603476D02*
X13919524Y-10803476D01*
X14100476Y-10803476D02*
X14100476Y-10698714D01*
X14100476Y-10698714D02*
X14090952Y-10679667D01*
X14090952Y-10679667D02*
X14071905Y-10670143D01*
X14071905Y-10670143D02*
X14033809Y-10670143D01*
X14033809Y-10670143D02*
X14014762Y-10679667D01*
X14100476Y-10793952D02*
X14081428Y-10803476D01*
X14081428Y-10803476D02*
X14033809Y-10803476D01*
X14033809Y-10803476D02*
X14014762Y-10793952D01*
X14014762Y-10793952D02*
X14005238Y-10774905D01*
X14005238Y-10774905D02*
X14005238Y-10755857D01*
X14005238Y-10755857D02*
X14014762Y-10736810D01*
X14014762Y-10736810D02*
X14033809Y-10727286D01*
X14033809Y-10727286D02*
X14081428Y-10727286D01*
X14081428Y-10727286D02*
X14100476Y-10717762D01*
X14195714Y-10670143D02*
X14195714Y-10870143D01*
X14195714Y-10679667D02*
X14214762Y-10670143D01*
X14214762Y-10670143D02*
X14252857Y-10670143D01*
X14252857Y-10670143D02*
X14271905Y-10679667D01*
X14271905Y-10679667D02*
X14281428Y-10689190D01*
X14281428Y-10689190D02*
X14290952Y-10708238D01*
X14290952Y-10708238D02*
X14290952Y-10765381D01*
X14290952Y-10765381D02*
X14281428Y-10784429D01*
X14281428Y-10784429D02*
X14271905Y-10793952D01*
X14271905Y-10793952D02*
X14252857Y-10803476D01*
X14252857Y-10803476D02*
X14214762Y-10803476D01*
X14214762Y-10803476D02*
X14195714Y-10793952D01*
X14376667Y-10784429D02*
X14386190Y-10793952D01*
X14386190Y-10793952D02*
X14376667Y-10803476D01*
X14376667Y-10803476D02*
X14367143Y-10793952D01*
X14367143Y-10793952D02*
X14376667Y-10784429D01*
X14376667Y-10784429D02*
X14376667Y-10803476D01*
X14376667Y-10679667D02*
X14386190Y-10689190D01*
X14386190Y-10689190D02*
X14376667Y-10698714D01*
X14376667Y-10698714D02*
X14367143Y-10689190D01*
X14367143Y-10689190D02*
X14376667Y-10679667D01*
X14376667Y-10679667D02*
X14376667Y-10698714D01*
D11*
X12750000Y-11130000D02*
X12790000Y-11170000D01*
X12790000Y-11130000D02*
X12750000Y-11170000D01*
D10*
X13075714Y-11023476D02*
X13094762Y-11023476D01*
X13094762Y-11023476D02*
X13113809Y-11033000D01*
X13113809Y-11033000D02*
X13123333Y-11042524D01*
X13123333Y-11042524D02*
X13132857Y-11061571D01*
X13132857Y-11061571D02*
X13142381Y-11099667D01*
X13142381Y-11099667D02*
X13142381Y-11147286D01*
X13142381Y-11147286D02*
X13132857Y-11185381D01*
X13132857Y-11185381D02*
X13123333Y-11204428D01*
X13123333Y-11204428D02*
X13113809Y-11213952D01*
X13113809Y-11213952D02*
X13094762Y-11223476D01*
X13094762Y-11223476D02*
X13075714Y-11223476D01*
X13075714Y-11223476D02*
X13056667Y-11213952D01*
X13056667Y-11213952D02*
X13047143Y-11204428D01*
X13047143Y-11204428D02*
X13037619Y-11185381D01*
X13037619Y-11185381D02*
X13028095Y-11147286D01*
X13028095Y-11147286D02*
X13028095Y-11099667D01*
X13028095Y-11099667D02*
X13037619Y-11061571D01*
X13037619Y-11061571D02*
X13047143Y-11042524D01*
X13047143Y-11042524D02*
X13056667Y-11033000D01*
X13056667Y-11033000D02*
X13075714Y-11023476D01*
X13228095Y-11204428D02*
X13237619Y-11213952D01*
X13237619Y-11213952D02*
X13228095Y-11223476D01*
X13228095Y-11223476D02*
X13218571Y-11213952D01*
X13218571Y-11213952D02*
X13228095Y-11204428D01*
X13228095Y-11204428D02*
X13228095Y-11223476D01*
X13409048Y-11090143D02*
X13409048Y-11223476D01*
X13361428Y-11013952D02*
X13313809Y-11156810D01*
X13313809Y-11156810D02*
X13437619Y-11156810D01*
X13551905Y-11023476D02*
X13570952Y-11023476D01*
X13570952Y-11023476D02*
X13590000Y-11033000D01*
X13590000Y-11033000D02*
X13599524Y-11042524D01*
X13599524Y-11042524D02*
X13609048Y-11061571D01*
X13609048Y-11061571D02*
X13618571Y-11099667D01*
X13618571Y-11099667D02*
X13618571Y-11147286D01*
X13618571Y-11147286D02*
X13609048Y-11185381D01*
X13609048Y-11185381D02*
X13599524Y-11204428D01*
X13599524Y-11204428D02*
X13590000Y-11213952D01*
X13590000Y-11213952D02*
X13570952Y-11223476D01*
X13570952Y-11223476D02*
X13551905Y-11223476D01*
X13551905Y-11223476D02*
X13532857Y-11213952D01*
X13532857Y-11213952D02*
X13523333Y-11204428D01*
X13523333Y-11204428D02*
X13513809Y-11185381D01*
X13513809Y-11185381D02*
X13504286Y-11147286D01*
X13504286Y-11147286D02*
X13504286Y-11099667D01*
X13504286Y-11099667D02*
X13513809Y-11061571D01*
X13513809Y-11061571D02*
X13523333Y-11042524D01*
X13523333Y-11042524D02*
X13532857Y-11033000D01*
X13532857Y-11033000D02*
X13551905Y-11023476D01*
X13742381Y-11023476D02*
X13761429Y-11023476D01*
X13761429Y-11023476D02*
X13780476Y-11033000D01*
X13780476Y-11033000D02*
X13790000Y-11042524D01*
X13790000Y-11042524D02*
X13799524Y-11061571D01*
X13799524Y-11061571D02*
X13809048Y-11099667D01*
X13809048Y-11099667D02*
X13809048Y-11147286D01*
X13809048Y-11147286D02*
X13799524Y-11185381D01*
X13799524Y-11185381D02*
X13790000Y-11204428D01*
X13790000Y-11204428D02*
X13780476Y-11213952D01*
X13780476Y-11213952D02*
X13761429Y-11223476D01*
X13761429Y-11223476D02*
X13742381Y-11223476D01*
X13742381Y-11223476D02*
X13723333Y-11213952D01*
X13723333Y-11213952D02*
X13713809Y-11204428D01*
X13713809Y-11204428D02*
X13704286Y-11185381D01*
X13704286Y-11185381D02*
X13694762Y-11147286D01*
X13694762Y-11147286D02*
X13694762Y-11099667D01*
X13694762Y-11099667D02*
X13704286Y-11061571D01*
X13704286Y-11061571D02*
X13713809Y-11042524D01*
X13713809Y-11042524D02*
X13723333Y-11033000D01*
X13723333Y-11033000D02*
X13742381Y-11023476D01*
X13894762Y-11223476D02*
X13894762Y-11090143D01*
X13894762Y-11109190D02*
X13904286Y-11099667D01*
X13904286Y-11099667D02*
X13923333Y-11090143D01*
X13923333Y-11090143D02*
X13951905Y-11090143D01*
X13951905Y-11090143D02*
X13970952Y-11099667D01*
X13970952Y-11099667D02*
X13980476Y-11118714D01*
X13980476Y-11118714D02*
X13980476Y-11223476D01*
X13980476Y-11118714D02*
X13990000Y-11099667D01*
X13990000Y-11099667D02*
X14009048Y-11090143D01*
X14009048Y-11090143D02*
X14037619Y-11090143D01*
X14037619Y-11090143D02*
X14056667Y-11099667D01*
X14056667Y-11099667D02*
X14066190Y-11118714D01*
X14066190Y-11118714D02*
X14066190Y-11223476D01*
X14161429Y-11223476D02*
X14161429Y-11090143D01*
X14161429Y-11109190D02*
X14170952Y-11099667D01*
X14170952Y-11099667D02*
X14190000Y-11090143D01*
X14190000Y-11090143D02*
X14218571Y-11090143D01*
X14218571Y-11090143D02*
X14237619Y-11099667D01*
X14237619Y-11099667D02*
X14247143Y-11118714D01*
X14247143Y-11118714D02*
X14247143Y-11223476D01*
X14247143Y-11118714D02*
X14256667Y-11099667D01*
X14256667Y-11099667D02*
X14275714Y-11090143D01*
X14275714Y-11090143D02*
X14304286Y-11090143D01*
X14304286Y-11090143D02*
X14323333Y-11099667D01*
X14323333Y-11099667D02*
X14332857Y-11118714D01*
X14332857Y-11118714D02*
X14332857Y-11223476D01*
X14690952Y-11013952D02*
X14519524Y-11271095D01*
X14915714Y-11023476D02*
X14934762Y-11023476D01*
X14934762Y-11023476D02*
X14953810Y-11033000D01*
X14953810Y-11033000D02*
X14963333Y-11042524D01*
X14963333Y-11042524D02*
X14972857Y-11061571D01*
X14972857Y-11061571D02*
X14982381Y-11099667D01*
X14982381Y-11099667D02*
X14982381Y-11147286D01*
X14982381Y-11147286D02*
X14972857Y-11185381D01*
X14972857Y-11185381D02*
X14963333Y-11204428D01*
X14963333Y-11204428D02*
X14953810Y-11213952D01*
X14953810Y-11213952D02*
X14934762Y-11223476D01*
X14934762Y-11223476D02*
X14915714Y-11223476D01*
X14915714Y-11223476D02*
X14896667Y-11213952D01*
X14896667Y-11213952D02*
X14887143Y-11204428D01*
X14887143Y-11204428D02*
X14877619Y-11185381D01*
X14877619Y-11185381D02*
X14868095Y-11147286D01*
X14868095Y-11147286D02*
X14868095Y-11099667D01*
X14868095Y-11099667D02*
X14877619Y-11061571D01*
X14877619Y-11061571D02*
X14887143Y-11042524D01*
X14887143Y-11042524D02*
X14896667Y-11033000D01*
X14896667Y-11033000D02*
X14915714Y-11023476D01*
X15068095Y-11204428D02*
X15077619Y-11213952D01*
X15077619Y-11213952D02*
X15068095Y-11223476D01*
X15068095Y-11223476D02*
X15058571Y-11213952D01*
X15058571Y-11213952D02*
X15068095Y-11204428D01*
X15068095Y-11204428D02*
X15068095Y-11223476D01*
X15201429Y-11023476D02*
X15220476Y-11023476D01*
X15220476Y-11023476D02*
X15239524Y-11033000D01*
X15239524Y-11033000D02*
X15249048Y-11042524D01*
X15249048Y-11042524D02*
X15258571Y-11061571D01*
X15258571Y-11061571D02*
X15268095Y-11099667D01*
X15268095Y-11099667D02*
X15268095Y-11147286D01*
X15268095Y-11147286D02*
X15258571Y-11185381D01*
X15258571Y-11185381D02*
X15249048Y-11204428D01*
X15249048Y-11204428D02*
X15239524Y-11213952D01*
X15239524Y-11213952D02*
X15220476Y-11223476D01*
X15220476Y-11223476D02*
X15201429Y-11223476D01*
X15201429Y-11223476D02*
X15182381Y-11213952D01*
X15182381Y-11213952D02*
X15172857Y-11204428D01*
X15172857Y-11204428D02*
X15163333Y-11185381D01*
X15163333Y-11185381D02*
X15153810Y-11147286D01*
X15153810Y-11147286D02*
X15153810Y-11099667D01*
X15153810Y-11099667D02*
X15163333Y-11061571D01*
X15163333Y-11061571D02*
X15172857Y-11042524D01*
X15172857Y-11042524D02*
X15182381Y-11033000D01*
X15182381Y-11033000D02*
X15201429Y-11023476D01*
X15458571Y-11223476D02*
X15344286Y-11223476D01*
X15401429Y-11223476D02*
X15401429Y-11023476D01*
X15401429Y-11023476D02*
X15382381Y-11052048D01*
X15382381Y-11052048D02*
X15363333Y-11071095D01*
X15363333Y-11071095D02*
X15344286Y-11080619D01*
X15639524Y-11023476D02*
X15544286Y-11023476D01*
X15544286Y-11023476D02*
X15534762Y-11118714D01*
X15534762Y-11118714D02*
X15544286Y-11109190D01*
X15544286Y-11109190D02*
X15563333Y-11099667D01*
X15563333Y-11099667D02*
X15610952Y-11099667D01*
X15610952Y-11099667D02*
X15630000Y-11109190D01*
X15630000Y-11109190D02*
X15639524Y-11118714D01*
X15639524Y-11118714D02*
X15649048Y-11137762D01*
X15649048Y-11137762D02*
X15649048Y-11185381D01*
X15649048Y-11185381D02*
X15639524Y-11204428D01*
X15639524Y-11204428D02*
X15630000Y-11213952D01*
X15630000Y-11213952D02*
X15610952Y-11223476D01*
X15610952Y-11223476D02*
X15563333Y-11223476D01*
X15563333Y-11223476D02*
X15544286Y-11213952D01*
X15544286Y-11213952D02*
X15534762Y-11204428D01*
X15715714Y-11023476D02*
X15849048Y-11023476D01*
X15849048Y-11023476D02*
X15763333Y-11223476D01*
X15915714Y-11023476D02*
X15915714Y-11061571D01*
X15991905Y-11023476D02*
X15991905Y-11061571D01*
X16254762Y-11299667D02*
X16245238Y-11290143D01*
X16245238Y-11290143D02*
X16226191Y-11261571D01*
X16226191Y-11261571D02*
X16216667Y-11242524D01*
X16216667Y-11242524D02*
X16207143Y-11213952D01*
X16207143Y-11213952D02*
X16197619Y-11166333D01*
X16197619Y-11166333D02*
X16197619Y-11128238D01*
X16197619Y-11128238D02*
X16207143Y-11080619D01*
X16207143Y-11080619D02*
X16216667Y-11052048D01*
X16216667Y-11052048D02*
X16226191Y-11033000D01*
X16226191Y-11033000D02*
X16245238Y-11004429D01*
X16245238Y-11004429D02*
X16254762Y-10994905D01*
X16311905Y-11023476D02*
X16435714Y-11023476D01*
X16435714Y-11023476D02*
X16369048Y-11099667D01*
X16369048Y-11099667D02*
X16397619Y-11099667D01*
X16397619Y-11099667D02*
X16416667Y-11109190D01*
X16416667Y-11109190D02*
X16426191Y-11118714D01*
X16426191Y-11118714D02*
X16435714Y-11137762D01*
X16435714Y-11137762D02*
X16435714Y-11185381D01*
X16435714Y-11185381D02*
X16426191Y-11204428D01*
X16426191Y-11204428D02*
X16416667Y-11213952D01*
X16416667Y-11213952D02*
X16397619Y-11223476D01*
X16397619Y-11223476D02*
X16340476Y-11223476D01*
X16340476Y-11223476D02*
X16321429Y-11213952D01*
X16321429Y-11213952D02*
X16311905Y-11204428D01*
X16641429Y-11223476D02*
X16641429Y-11023476D01*
X16727143Y-11223476D02*
X16727143Y-11118714D01*
X16727143Y-11118714D02*
X16717619Y-11099667D01*
X16717619Y-11099667D02*
X16698572Y-11090143D01*
X16698572Y-11090143D02*
X16670000Y-11090143D01*
X16670000Y-11090143D02*
X16650952Y-11099667D01*
X16650952Y-11099667D02*
X16641429Y-11109190D01*
X16850953Y-11223476D02*
X16831905Y-11213952D01*
X16831905Y-11213952D02*
X16822381Y-11204428D01*
X16822381Y-11204428D02*
X16812857Y-11185381D01*
X16812857Y-11185381D02*
X16812857Y-11128238D01*
X16812857Y-11128238D02*
X16822381Y-11109190D01*
X16822381Y-11109190D02*
X16831905Y-11099667D01*
X16831905Y-11099667D02*
X16850953Y-11090143D01*
X16850953Y-11090143D02*
X16879524Y-11090143D01*
X16879524Y-11090143D02*
X16898572Y-11099667D01*
X16898572Y-11099667D02*
X16908095Y-11109190D01*
X16908095Y-11109190D02*
X16917619Y-11128238D01*
X16917619Y-11128238D02*
X16917619Y-11185381D01*
X16917619Y-11185381D02*
X16908095Y-11204428D01*
X16908095Y-11204428D02*
X16898572Y-11213952D01*
X16898572Y-11213952D02*
X16879524Y-11223476D01*
X16879524Y-11223476D02*
X16850953Y-11223476D01*
X17031905Y-11223476D02*
X17012857Y-11213952D01*
X17012857Y-11213952D02*
X17003334Y-11194905D01*
X17003334Y-11194905D02*
X17003334Y-11023476D01*
X17184286Y-11213952D02*
X17165238Y-11223476D01*
X17165238Y-11223476D02*
X17127143Y-11223476D01*
X17127143Y-11223476D02*
X17108095Y-11213952D01*
X17108095Y-11213952D02*
X17098572Y-11194905D01*
X17098572Y-11194905D02*
X17098572Y-11118714D01*
X17098572Y-11118714D02*
X17108095Y-11099667D01*
X17108095Y-11099667D02*
X17127143Y-11090143D01*
X17127143Y-11090143D02*
X17165238Y-11090143D01*
X17165238Y-11090143D02*
X17184286Y-11099667D01*
X17184286Y-11099667D02*
X17193810Y-11118714D01*
X17193810Y-11118714D02*
X17193810Y-11137762D01*
X17193810Y-11137762D02*
X17098572Y-11156810D01*
X17270000Y-11213952D02*
X17289048Y-11223476D01*
X17289048Y-11223476D02*
X17327143Y-11223476D01*
X17327143Y-11223476D02*
X17346191Y-11213952D01*
X17346191Y-11213952D02*
X17355715Y-11194905D01*
X17355715Y-11194905D02*
X17355715Y-11185381D01*
X17355715Y-11185381D02*
X17346191Y-11166333D01*
X17346191Y-11166333D02*
X17327143Y-11156810D01*
X17327143Y-11156810D02*
X17298572Y-11156810D01*
X17298572Y-11156810D02*
X17279524Y-11147286D01*
X17279524Y-11147286D02*
X17270000Y-11128238D01*
X17270000Y-11128238D02*
X17270000Y-11118714D01*
X17270000Y-11118714D02*
X17279524Y-11099667D01*
X17279524Y-11099667D02*
X17298572Y-11090143D01*
X17298572Y-11090143D02*
X17327143Y-11090143D01*
X17327143Y-11090143D02*
X17346191Y-11099667D01*
X17422381Y-11299667D02*
X17431905Y-11290143D01*
X17431905Y-11290143D02*
X17450953Y-11261571D01*
X17450953Y-11261571D02*
X17460476Y-11242524D01*
X17460476Y-11242524D02*
X17470000Y-11213952D01*
X17470000Y-11213952D02*
X17479524Y-11166333D01*
X17479524Y-11166333D02*
X17479524Y-11128238D01*
X17479524Y-11128238D02*
X17470000Y-11080619D01*
X17470000Y-11080619D02*
X17460476Y-11052048D01*
X17460476Y-11052048D02*
X17450953Y-11033000D01*
X17450953Y-11033000D02*
X17431905Y-11004429D01*
X17431905Y-11004429D02*
X17422381Y-10994905D01*
D12*
X12790000Y-11414000D02*
G75*
G03*
X12790000Y-11414000I-30000J0D01*
G01*
D10*
X13075714Y-11287476D02*
X13094762Y-11287476D01*
X13094762Y-11287476D02*
X13113809Y-11297000D01*
X13113809Y-11297000D02*
X13123333Y-11306524D01*
X13123333Y-11306524D02*
X13132857Y-11325571D01*
X13132857Y-11325571D02*
X13142381Y-11363667D01*
X13142381Y-11363667D02*
X13142381Y-11411286D01*
X13142381Y-11411286D02*
X13132857Y-11449381D01*
X13132857Y-11449381D02*
X13123333Y-11468428D01*
X13123333Y-11468428D02*
X13113809Y-11477952D01*
X13113809Y-11477952D02*
X13094762Y-11487476D01*
X13094762Y-11487476D02*
X13075714Y-11487476D01*
X13075714Y-11487476D02*
X13056667Y-11477952D01*
X13056667Y-11477952D02*
X13047143Y-11468428D01*
X13047143Y-11468428D02*
X13037619Y-11449381D01*
X13037619Y-11449381D02*
X13028095Y-11411286D01*
X13028095Y-11411286D02*
X13028095Y-11363667D01*
X13028095Y-11363667D02*
X13037619Y-11325571D01*
X13037619Y-11325571D02*
X13047143Y-11306524D01*
X13047143Y-11306524D02*
X13056667Y-11297000D01*
X13056667Y-11297000D02*
X13075714Y-11287476D01*
X13228095Y-11468428D02*
X13237619Y-11477952D01*
X13237619Y-11477952D02*
X13228095Y-11487476D01*
X13228095Y-11487476D02*
X13218571Y-11477952D01*
X13218571Y-11477952D02*
X13228095Y-11468428D01*
X13228095Y-11468428D02*
X13228095Y-11487476D01*
X13409048Y-11287476D02*
X13370952Y-11287476D01*
X13370952Y-11287476D02*
X13351905Y-11297000D01*
X13351905Y-11297000D02*
X13342381Y-11306524D01*
X13342381Y-11306524D02*
X13323333Y-11335095D01*
X13323333Y-11335095D02*
X13313809Y-11373190D01*
X13313809Y-11373190D02*
X13313809Y-11449381D01*
X13313809Y-11449381D02*
X13323333Y-11468428D01*
X13323333Y-11468428D02*
X13332857Y-11477952D01*
X13332857Y-11477952D02*
X13351905Y-11487476D01*
X13351905Y-11487476D02*
X13390000Y-11487476D01*
X13390000Y-11487476D02*
X13409048Y-11477952D01*
X13409048Y-11477952D02*
X13418571Y-11468428D01*
X13418571Y-11468428D02*
X13428095Y-11449381D01*
X13428095Y-11449381D02*
X13428095Y-11401762D01*
X13428095Y-11401762D02*
X13418571Y-11382714D01*
X13418571Y-11382714D02*
X13409048Y-11373190D01*
X13409048Y-11373190D02*
X13390000Y-11363667D01*
X13390000Y-11363667D02*
X13351905Y-11363667D01*
X13351905Y-11363667D02*
X13332857Y-11373190D01*
X13332857Y-11373190D02*
X13323333Y-11382714D01*
X13323333Y-11382714D02*
X13313809Y-11401762D01*
X13551905Y-11287476D02*
X13570952Y-11287476D01*
X13570952Y-11287476D02*
X13590000Y-11297000D01*
X13590000Y-11297000D02*
X13599524Y-11306524D01*
X13599524Y-11306524D02*
X13609048Y-11325571D01*
X13609048Y-11325571D02*
X13618571Y-11363667D01*
X13618571Y-11363667D02*
X13618571Y-11411286D01*
X13618571Y-11411286D02*
X13609048Y-11449381D01*
X13609048Y-11449381D02*
X13599524Y-11468428D01*
X13599524Y-11468428D02*
X13590000Y-11477952D01*
X13590000Y-11477952D02*
X13570952Y-11487476D01*
X13570952Y-11487476D02*
X13551905Y-11487476D01*
X13551905Y-11487476D02*
X13532857Y-11477952D01*
X13532857Y-11477952D02*
X13523333Y-11468428D01*
X13523333Y-11468428D02*
X13513809Y-11449381D01*
X13513809Y-11449381D02*
X13504286Y-11411286D01*
X13504286Y-11411286D02*
X13504286Y-11363667D01*
X13504286Y-11363667D02*
X13513809Y-11325571D01*
X13513809Y-11325571D02*
X13523333Y-11306524D01*
X13523333Y-11306524D02*
X13532857Y-11297000D01*
X13532857Y-11297000D02*
X13551905Y-11287476D01*
X13742381Y-11287476D02*
X13761429Y-11287476D01*
X13761429Y-11287476D02*
X13780476Y-11297000D01*
X13780476Y-11297000D02*
X13790000Y-11306524D01*
X13790000Y-11306524D02*
X13799524Y-11325571D01*
X13799524Y-11325571D02*
X13809048Y-11363667D01*
X13809048Y-11363667D02*
X13809048Y-11411286D01*
X13809048Y-11411286D02*
X13799524Y-11449381D01*
X13799524Y-11449381D02*
X13790000Y-11468428D01*
X13790000Y-11468428D02*
X13780476Y-11477952D01*
X13780476Y-11477952D02*
X13761429Y-11487476D01*
X13761429Y-11487476D02*
X13742381Y-11487476D01*
X13742381Y-11487476D02*
X13723333Y-11477952D01*
X13723333Y-11477952D02*
X13713809Y-11468428D01*
X13713809Y-11468428D02*
X13704286Y-11449381D01*
X13704286Y-11449381D02*
X13694762Y-11411286D01*
X13694762Y-11411286D02*
X13694762Y-11363667D01*
X13694762Y-11363667D02*
X13704286Y-11325571D01*
X13704286Y-11325571D02*
X13713809Y-11306524D01*
X13713809Y-11306524D02*
X13723333Y-11297000D01*
X13723333Y-11297000D02*
X13742381Y-11287476D01*
X13894762Y-11487476D02*
X13894762Y-11354143D01*
X13894762Y-11373190D02*
X13904286Y-11363667D01*
X13904286Y-11363667D02*
X13923333Y-11354143D01*
X13923333Y-11354143D02*
X13951905Y-11354143D01*
X13951905Y-11354143D02*
X13970952Y-11363667D01*
X13970952Y-11363667D02*
X13980476Y-11382714D01*
X13980476Y-11382714D02*
X13980476Y-11487476D01*
X13980476Y-11382714D02*
X13990000Y-11363667D01*
X13990000Y-11363667D02*
X14009048Y-11354143D01*
X14009048Y-11354143D02*
X14037619Y-11354143D01*
X14037619Y-11354143D02*
X14056667Y-11363667D01*
X14056667Y-11363667D02*
X14066190Y-11382714D01*
X14066190Y-11382714D02*
X14066190Y-11487476D01*
X14161429Y-11487476D02*
X14161429Y-11354143D01*
X14161429Y-11373190D02*
X14170952Y-11363667D01*
X14170952Y-11363667D02*
X14190000Y-11354143D01*
X14190000Y-11354143D02*
X14218571Y-11354143D01*
X14218571Y-11354143D02*
X14237619Y-11363667D01*
X14237619Y-11363667D02*
X14247143Y-11382714D01*
X14247143Y-11382714D02*
X14247143Y-11487476D01*
X14247143Y-11382714D02*
X14256667Y-11363667D01*
X14256667Y-11363667D02*
X14275714Y-11354143D01*
X14275714Y-11354143D02*
X14304286Y-11354143D01*
X14304286Y-11354143D02*
X14323333Y-11363667D01*
X14323333Y-11363667D02*
X14332857Y-11382714D01*
X14332857Y-11382714D02*
X14332857Y-11487476D01*
X14690952Y-11277952D02*
X14519524Y-11535095D01*
X14915714Y-11287476D02*
X14934762Y-11287476D01*
X14934762Y-11287476D02*
X14953810Y-11297000D01*
X14953810Y-11297000D02*
X14963333Y-11306524D01*
X14963333Y-11306524D02*
X14972857Y-11325571D01*
X14972857Y-11325571D02*
X14982381Y-11363667D01*
X14982381Y-11363667D02*
X14982381Y-11411286D01*
X14982381Y-11411286D02*
X14972857Y-11449381D01*
X14972857Y-11449381D02*
X14963333Y-11468428D01*
X14963333Y-11468428D02*
X14953810Y-11477952D01*
X14953810Y-11477952D02*
X14934762Y-11487476D01*
X14934762Y-11487476D02*
X14915714Y-11487476D01*
X14915714Y-11487476D02*
X14896667Y-11477952D01*
X14896667Y-11477952D02*
X14887143Y-11468428D01*
X14887143Y-11468428D02*
X14877619Y-11449381D01*
X14877619Y-11449381D02*
X14868095Y-11411286D01*
X14868095Y-11411286D02*
X14868095Y-11363667D01*
X14868095Y-11363667D02*
X14877619Y-11325571D01*
X14877619Y-11325571D02*
X14887143Y-11306524D01*
X14887143Y-11306524D02*
X14896667Y-11297000D01*
X14896667Y-11297000D02*
X14915714Y-11287476D01*
X15068095Y-11468428D02*
X15077619Y-11477952D01*
X15077619Y-11477952D02*
X15068095Y-11487476D01*
X15068095Y-11487476D02*
X15058571Y-11477952D01*
X15058571Y-11477952D02*
X15068095Y-11468428D01*
X15068095Y-11468428D02*
X15068095Y-11487476D01*
X15201429Y-11287476D02*
X15220476Y-11287476D01*
X15220476Y-11287476D02*
X15239524Y-11297000D01*
X15239524Y-11297000D02*
X15249048Y-11306524D01*
X15249048Y-11306524D02*
X15258571Y-11325571D01*
X15258571Y-11325571D02*
X15268095Y-11363667D01*
X15268095Y-11363667D02*
X15268095Y-11411286D01*
X15268095Y-11411286D02*
X15258571Y-11449381D01*
X15258571Y-11449381D02*
X15249048Y-11468428D01*
X15249048Y-11468428D02*
X15239524Y-11477952D01*
X15239524Y-11477952D02*
X15220476Y-11487476D01*
X15220476Y-11487476D02*
X15201429Y-11487476D01*
X15201429Y-11487476D02*
X15182381Y-11477952D01*
X15182381Y-11477952D02*
X15172857Y-11468428D01*
X15172857Y-11468428D02*
X15163333Y-11449381D01*
X15163333Y-11449381D02*
X15153810Y-11411286D01*
X15153810Y-11411286D02*
X15153810Y-11363667D01*
X15153810Y-11363667D02*
X15163333Y-11325571D01*
X15163333Y-11325571D02*
X15172857Y-11306524D01*
X15172857Y-11306524D02*
X15182381Y-11297000D01*
X15182381Y-11297000D02*
X15201429Y-11287476D01*
X15344286Y-11306524D02*
X15353810Y-11297000D01*
X15353810Y-11297000D02*
X15372857Y-11287476D01*
X15372857Y-11287476D02*
X15420476Y-11287476D01*
X15420476Y-11287476D02*
X15439524Y-11297000D01*
X15439524Y-11297000D02*
X15449048Y-11306524D01*
X15449048Y-11306524D02*
X15458571Y-11325571D01*
X15458571Y-11325571D02*
X15458571Y-11344619D01*
X15458571Y-11344619D02*
X15449048Y-11373190D01*
X15449048Y-11373190D02*
X15334762Y-11487476D01*
X15334762Y-11487476D02*
X15458571Y-11487476D01*
X15525238Y-11287476D02*
X15649048Y-11287476D01*
X15649048Y-11287476D02*
X15582381Y-11363667D01*
X15582381Y-11363667D02*
X15610952Y-11363667D01*
X15610952Y-11363667D02*
X15630000Y-11373190D01*
X15630000Y-11373190D02*
X15639524Y-11382714D01*
X15639524Y-11382714D02*
X15649048Y-11401762D01*
X15649048Y-11401762D02*
X15649048Y-11449381D01*
X15649048Y-11449381D02*
X15639524Y-11468428D01*
X15639524Y-11468428D02*
X15630000Y-11477952D01*
X15630000Y-11477952D02*
X15610952Y-11487476D01*
X15610952Y-11487476D02*
X15553810Y-11487476D01*
X15553810Y-11487476D02*
X15534762Y-11477952D01*
X15534762Y-11477952D02*
X15525238Y-11468428D01*
X15820476Y-11287476D02*
X15782381Y-11287476D01*
X15782381Y-11287476D02*
X15763333Y-11297000D01*
X15763333Y-11297000D02*
X15753810Y-11306524D01*
X15753810Y-11306524D02*
X15734762Y-11335095D01*
X15734762Y-11335095D02*
X15725238Y-11373190D01*
X15725238Y-11373190D02*
X15725238Y-11449381D01*
X15725238Y-11449381D02*
X15734762Y-11468428D01*
X15734762Y-11468428D02*
X15744286Y-11477952D01*
X15744286Y-11477952D02*
X15763333Y-11487476D01*
X15763333Y-11487476D02*
X15801429Y-11487476D01*
X15801429Y-11487476D02*
X15820476Y-11477952D01*
X15820476Y-11477952D02*
X15830000Y-11468428D01*
X15830000Y-11468428D02*
X15839524Y-11449381D01*
X15839524Y-11449381D02*
X15839524Y-11401762D01*
X15839524Y-11401762D02*
X15830000Y-11382714D01*
X15830000Y-11382714D02*
X15820476Y-11373190D01*
X15820476Y-11373190D02*
X15801429Y-11363667D01*
X15801429Y-11363667D02*
X15763333Y-11363667D01*
X15763333Y-11363667D02*
X15744286Y-11373190D01*
X15744286Y-11373190D02*
X15734762Y-11382714D01*
X15734762Y-11382714D02*
X15725238Y-11401762D01*
X15915714Y-11287476D02*
X15915714Y-11325571D01*
X15991905Y-11287476D02*
X15991905Y-11325571D01*
X16254762Y-11563667D02*
X16245238Y-11554143D01*
X16245238Y-11554143D02*
X16226191Y-11525571D01*
X16226191Y-11525571D02*
X16216667Y-11506524D01*
X16216667Y-11506524D02*
X16207143Y-11477952D01*
X16207143Y-11477952D02*
X16197619Y-11430333D01*
X16197619Y-11430333D02*
X16197619Y-11392238D01*
X16197619Y-11392238D02*
X16207143Y-11344619D01*
X16207143Y-11344619D02*
X16216667Y-11316048D01*
X16216667Y-11316048D02*
X16226191Y-11297000D01*
X16226191Y-11297000D02*
X16245238Y-11268428D01*
X16245238Y-11268428D02*
X16254762Y-11258905D01*
X16369048Y-11287476D02*
X16388095Y-11287476D01*
X16388095Y-11287476D02*
X16407143Y-11297000D01*
X16407143Y-11297000D02*
X16416667Y-11306524D01*
X16416667Y-11306524D02*
X16426191Y-11325571D01*
X16426191Y-11325571D02*
X16435714Y-11363667D01*
X16435714Y-11363667D02*
X16435714Y-11411286D01*
X16435714Y-11411286D02*
X16426191Y-11449381D01*
X16426191Y-11449381D02*
X16416667Y-11468428D01*
X16416667Y-11468428D02*
X16407143Y-11477952D01*
X16407143Y-11477952D02*
X16388095Y-11487476D01*
X16388095Y-11487476D02*
X16369048Y-11487476D01*
X16369048Y-11487476D02*
X16350000Y-11477952D01*
X16350000Y-11477952D02*
X16340476Y-11468428D01*
X16340476Y-11468428D02*
X16330952Y-11449381D01*
X16330952Y-11449381D02*
X16321429Y-11411286D01*
X16321429Y-11411286D02*
X16321429Y-11363667D01*
X16321429Y-11363667D02*
X16330952Y-11325571D01*
X16330952Y-11325571D02*
X16340476Y-11306524D01*
X16340476Y-11306524D02*
X16350000Y-11297000D01*
X16350000Y-11297000D02*
X16369048Y-11287476D01*
X16641429Y-11487476D02*
X16641429Y-11287476D01*
X16727143Y-11487476D02*
X16727143Y-11382714D01*
X16727143Y-11382714D02*
X16717619Y-11363667D01*
X16717619Y-11363667D02*
X16698572Y-11354143D01*
X16698572Y-11354143D02*
X16670000Y-11354143D01*
X16670000Y-11354143D02*
X16650952Y-11363667D01*
X16650952Y-11363667D02*
X16641429Y-11373190D01*
X16850953Y-11487476D02*
X16831905Y-11477952D01*
X16831905Y-11477952D02*
X16822381Y-11468428D01*
X16822381Y-11468428D02*
X16812857Y-11449381D01*
X16812857Y-11449381D02*
X16812857Y-11392238D01*
X16812857Y-11392238D02*
X16822381Y-11373190D01*
X16822381Y-11373190D02*
X16831905Y-11363667D01*
X16831905Y-11363667D02*
X16850953Y-11354143D01*
X16850953Y-11354143D02*
X16879524Y-11354143D01*
X16879524Y-11354143D02*
X16898572Y-11363667D01*
X16898572Y-11363667D02*
X16908095Y-11373190D01*
X16908095Y-11373190D02*
X16917619Y-11392238D01*
X16917619Y-11392238D02*
X16917619Y-11449381D01*
X16917619Y-11449381D02*
X16908095Y-11468428D01*
X16908095Y-11468428D02*
X16898572Y-11477952D01*
X16898572Y-11477952D02*
X16879524Y-11487476D01*
X16879524Y-11487476D02*
X16850953Y-11487476D01*
X17031905Y-11487476D02*
X17012857Y-11477952D01*
X17012857Y-11477952D02*
X17003334Y-11458905D01*
X17003334Y-11458905D02*
X17003334Y-11287476D01*
X17184286Y-11477952D02*
X17165238Y-11487476D01*
X17165238Y-11487476D02*
X17127143Y-11487476D01*
X17127143Y-11487476D02*
X17108095Y-11477952D01*
X17108095Y-11477952D02*
X17098572Y-11458905D01*
X17098572Y-11458905D02*
X17098572Y-11382714D01*
X17098572Y-11382714D02*
X17108095Y-11363667D01*
X17108095Y-11363667D02*
X17127143Y-11354143D01*
X17127143Y-11354143D02*
X17165238Y-11354143D01*
X17165238Y-11354143D02*
X17184286Y-11363667D01*
X17184286Y-11363667D02*
X17193810Y-11382714D01*
X17193810Y-11382714D02*
X17193810Y-11401762D01*
X17193810Y-11401762D02*
X17098572Y-11420809D01*
X17270000Y-11477952D02*
X17289048Y-11487476D01*
X17289048Y-11487476D02*
X17327143Y-11487476D01*
X17327143Y-11487476D02*
X17346191Y-11477952D01*
X17346191Y-11477952D02*
X17355715Y-11458905D01*
X17355715Y-11458905D02*
X17355715Y-11449381D01*
X17355715Y-11449381D02*
X17346191Y-11430333D01*
X17346191Y-11430333D02*
X17327143Y-11420809D01*
X17327143Y-11420809D02*
X17298572Y-11420809D01*
X17298572Y-11420809D02*
X17279524Y-11411286D01*
X17279524Y-11411286D02*
X17270000Y-11392238D01*
X17270000Y-11392238D02*
X17270000Y-11382714D01*
X17270000Y-11382714D02*
X17279524Y-11363667D01*
X17279524Y-11363667D02*
X17298572Y-11354143D01*
X17298572Y-11354143D02*
X17327143Y-11354143D01*
X17327143Y-11354143D02*
X17346191Y-11363667D01*
X17561429Y-11411286D02*
X17713810Y-11411286D01*
X17637619Y-11487476D02*
X17637619Y-11335095D01*
X18014762Y-11354143D02*
X18014762Y-11487476D01*
X17967143Y-11277952D02*
X17919524Y-11420809D01*
X17919524Y-11420809D02*
X18043334Y-11420809D01*
X18230000Y-11477952D02*
X18249048Y-11487476D01*
X18249048Y-11487476D02*
X18287143Y-11487476D01*
X18287143Y-11487476D02*
X18306191Y-11477952D01*
X18306191Y-11477952D02*
X18315715Y-11458905D01*
X18315715Y-11458905D02*
X18315715Y-11449381D01*
X18315715Y-11449381D02*
X18306191Y-11430333D01*
X18306191Y-11430333D02*
X18287143Y-11420809D01*
X18287143Y-11420809D02*
X18258572Y-11420809D01*
X18258572Y-11420809D02*
X18239524Y-11411286D01*
X18239524Y-11411286D02*
X18230000Y-11392238D01*
X18230000Y-11392238D02*
X18230000Y-11382714D01*
X18230000Y-11382714D02*
X18239524Y-11363667D01*
X18239524Y-11363667D02*
X18258572Y-11354143D01*
X18258572Y-11354143D02*
X18287143Y-11354143D01*
X18287143Y-11354143D02*
X18306191Y-11363667D01*
X18430000Y-11487476D02*
X18410953Y-11477952D01*
X18410953Y-11477952D02*
X18401429Y-11458905D01*
X18401429Y-11458905D02*
X18401429Y-11287476D01*
X18534762Y-11487476D02*
X18515715Y-11477952D01*
X18515715Y-11477952D02*
X18506191Y-11468428D01*
X18506191Y-11468428D02*
X18496667Y-11449381D01*
X18496667Y-11449381D02*
X18496667Y-11392238D01*
X18496667Y-11392238D02*
X18506191Y-11373190D01*
X18506191Y-11373190D02*
X18515715Y-11363667D01*
X18515715Y-11363667D02*
X18534762Y-11354143D01*
X18534762Y-11354143D02*
X18563334Y-11354143D01*
X18563334Y-11354143D02*
X18582381Y-11363667D01*
X18582381Y-11363667D02*
X18591905Y-11373190D01*
X18591905Y-11373190D02*
X18601429Y-11392238D01*
X18601429Y-11392238D02*
X18601429Y-11449381D01*
X18601429Y-11449381D02*
X18591905Y-11468428D01*
X18591905Y-11468428D02*
X18582381Y-11477952D01*
X18582381Y-11477952D02*
X18563334Y-11487476D01*
X18563334Y-11487476D02*
X18534762Y-11487476D01*
X18658572Y-11354143D02*
X18734762Y-11354143D01*
X18687143Y-11287476D02*
X18687143Y-11458905D01*
X18687143Y-11458905D02*
X18696667Y-11477952D01*
X18696667Y-11477952D02*
X18715715Y-11487476D01*
X18715715Y-11487476D02*
X18734762Y-11487476D01*
X18791905Y-11477952D02*
X18810953Y-11487476D01*
X18810953Y-11487476D02*
X18849048Y-11487476D01*
X18849048Y-11487476D02*
X18868096Y-11477952D01*
X18868096Y-11477952D02*
X18877619Y-11458905D01*
X18877619Y-11458905D02*
X18877619Y-11449381D01*
X18877619Y-11449381D02*
X18868096Y-11430333D01*
X18868096Y-11430333D02*
X18849048Y-11420809D01*
X18849048Y-11420809D02*
X18820476Y-11420809D01*
X18820476Y-11420809D02*
X18801429Y-11411286D01*
X18801429Y-11411286D02*
X18791905Y-11392238D01*
X18791905Y-11392238D02*
X18791905Y-11382714D01*
X18791905Y-11382714D02*
X18801429Y-11363667D01*
X18801429Y-11363667D02*
X18820476Y-11354143D01*
X18820476Y-11354143D02*
X18849048Y-11354143D01*
X18849048Y-11354143D02*
X18868096Y-11363667D01*
X18944286Y-11563667D02*
X18953810Y-11554143D01*
X18953810Y-11554143D02*
X18972857Y-11525571D01*
X18972857Y-11525571D02*
X18982381Y-11506524D01*
X18982381Y-11506524D02*
X18991905Y-11477952D01*
X18991905Y-11477952D02*
X19001429Y-11430333D01*
X19001429Y-11430333D02*
X19001429Y-11392238D01*
X19001429Y-11392238D02*
X18991905Y-11344619D01*
X18991905Y-11344619D02*
X18982381Y-11316048D01*
X18982381Y-11316048D02*
X18972857Y-11297000D01*
X18972857Y-11297000D02*
X18953810Y-11268428D01*
X18953810Y-11268428D02*
X18944286Y-11258905D01*
D13*
X12755000Y-11643000D02*
X12755000Y-11713000D01*
X12720000Y-11678000D02*
X12790000Y-11678000D01*
D10*
X13075714Y-11551476D02*
X13094762Y-11551476D01*
X13094762Y-11551476D02*
X13113809Y-11561000D01*
X13113809Y-11561000D02*
X13123333Y-11570524D01*
X13123333Y-11570524D02*
X13132857Y-11589571D01*
X13132857Y-11589571D02*
X13142381Y-11627667D01*
X13142381Y-11627667D02*
X13142381Y-11675286D01*
X13142381Y-11675286D02*
X13132857Y-11713381D01*
X13132857Y-11713381D02*
X13123333Y-11732428D01*
X13123333Y-11732428D02*
X13113809Y-11741952D01*
X13113809Y-11741952D02*
X13094762Y-11751476D01*
X13094762Y-11751476D02*
X13075714Y-11751476D01*
X13075714Y-11751476D02*
X13056667Y-11741952D01*
X13056667Y-11741952D02*
X13047143Y-11732428D01*
X13047143Y-11732428D02*
X13037619Y-11713381D01*
X13037619Y-11713381D02*
X13028095Y-11675286D01*
X13028095Y-11675286D02*
X13028095Y-11627667D01*
X13028095Y-11627667D02*
X13037619Y-11589571D01*
X13037619Y-11589571D02*
X13047143Y-11570524D01*
X13047143Y-11570524D02*
X13056667Y-11561000D01*
X13056667Y-11561000D02*
X13075714Y-11551476D01*
X13228095Y-11732428D02*
X13237619Y-11741952D01*
X13237619Y-11741952D02*
X13228095Y-11751476D01*
X13228095Y-11751476D02*
X13218571Y-11741952D01*
X13218571Y-11741952D02*
X13228095Y-11732428D01*
X13228095Y-11732428D02*
X13228095Y-11751476D01*
X13304286Y-11551476D02*
X13437619Y-11551476D01*
X13437619Y-11551476D02*
X13351905Y-11751476D01*
X13551905Y-11551476D02*
X13570952Y-11551476D01*
X13570952Y-11551476D02*
X13590000Y-11561000D01*
X13590000Y-11561000D02*
X13599524Y-11570524D01*
X13599524Y-11570524D02*
X13609048Y-11589571D01*
X13609048Y-11589571D02*
X13618571Y-11627667D01*
X13618571Y-11627667D02*
X13618571Y-11675286D01*
X13618571Y-11675286D02*
X13609048Y-11713381D01*
X13609048Y-11713381D02*
X13599524Y-11732428D01*
X13599524Y-11732428D02*
X13590000Y-11741952D01*
X13590000Y-11741952D02*
X13570952Y-11751476D01*
X13570952Y-11751476D02*
X13551905Y-11751476D01*
X13551905Y-11751476D02*
X13532857Y-11741952D01*
X13532857Y-11741952D02*
X13523333Y-11732428D01*
X13523333Y-11732428D02*
X13513809Y-11713381D01*
X13513809Y-11713381D02*
X13504286Y-11675286D01*
X13504286Y-11675286D02*
X13504286Y-11627667D01*
X13504286Y-11627667D02*
X13513809Y-11589571D01*
X13513809Y-11589571D02*
X13523333Y-11570524D01*
X13523333Y-11570524D02*
X13532857Y-11561000D01*
X13532857Y-11561000D02*
X13551905Y-11551476D01*
X13742381Y-11551476D02*
X13761429Y-11551476D01*
X13761429Y-11551476D02*
X13780476Y-11561000D01*
X13780476Y-11561000D02*
X13790000Y-11570524D01*
X13790000Y-11570524D02*
X13799524Y-11589571D01*
X13799524Y-11589571D02*
X13809048Y-11627667D01*
X13809048Y-11627667D02*
X13809048Y-11675286D01*
X13809048Y-11675286D02*
X13799524Y-11713381D01*
X13799524Y-11713381D02*
X13790000Y-11732428D01*
X13790000Y-11732428D02*
X13780476Y-11741952D01*
X13780476Y-11741952D02*
X13761429Y-11751476D01*
X13761429Y-11751476D02*
X13742381Y-11751476D01*
X13742381Y-11751476D02*
X13723333Y-11741952D01*
X13723333Y-11741952D02*
X13713809Y-11732428D01*
X13713809Y-11732428D02*
X13704286Y-11713381D01*
X13704286Y-11713381D02*
X13694762Y-11675286D01*
X13694762Y-11675286D02*
X13694762Y-11627667D01*
X13694762Y-11627667D02*
X13704286Y-11589571D01*
X13704286Y-11589571D02*
X13713809Y-11570524D01*
X13713809Y-11570524D02*
X13723333Y-11561000D01*
X13723333Y-11561000D02*
X13742381Y-11551476D01*
X13894762Y-11751476D02*
X13894762Y-11618143D01*
X13894762Y-11637190D02*
X13904286Y-11627667D01*
X13904286Y-11627667D02*
X13923333Y-11618143D01*
X13923333Y-11618143D02*
X13951905Y-11618143D01*
X13951905Y-11618143D02*
X13970952Y-11627667D01*
X13970952Y-11627667D02*
X13980476Y-11646714D01*
X13980476Y-11646714D02*
X13980476Y-11751476D01*
X13980476Y-11646714D02*
X13990000Y-11627667D01*
X13990000Y-11627667D02*
X14009048Y-11618143D01*
X14009048Y-11618143D02*
X14037619Y-11618143D01*
X14037619Y-11618143D02*
X14056667Y-11627667D01*
X14056667Y-11627667D02*
X14066190Y-11646714D01*
X14066190Y-11646714D02*
X14066190Y-11751476D01*
X14161429Y-11751476D02*
X14161429Y-11618143D01*
X14161429Y-11637190D02*
X14170952Y-11627667D01*
X14170952Y-11627667D02*
X14190000Y-11618143D01*
X14190000Y-11618143D02*
X14218571Y-11618143D01*
X14218571Y-11618143D02*
X14237619Y-11627667D01*
X14237619Y-11627667D02*
X14247143Y-11646714D01*
X14247143Y-11646714D02*
X14247143Y-11751476D01*
X14247143Y-11646714D02*
X14256667Y-11627667D01*
X14256667Y-11627667D02*
X14275714Y-11618143D01*
X14275714Y-11618143D02*
X14304286Y-11618143D01*
X14304286Y-11618143D02*
X14323333Y-11627667D01*
X14323333Y-11627667D02*
X14332857Y-11646714D01*
X14332857Y-11646714D02*
X14332857Y-11751476D01*
X14690952Y-11541952D02*
X14519524Y-11799095D01*
X14915714Y-11551476D02*
X14934762Y-11551476D01*
X14934762Y-11551476D02*
X14953810Y-11561000D01*
X14953810Y-11561000D02*
X14963333Y-11570524D01*
X14963333Y-11570524D02*
X14972857Y-11589571D01*
X14972857Y-11589571D02*
X14982381Y-11627667D01*
X14982381Y-11627667D02*
X14982381Y-11675286D01*
X14982381Y-11675286D02*
X14972857Y-11713381D01*
X14972857Y-11713381D02*
X14963333Y-11732428D01*
X14963333Y-11732428D02*
X14953810Y-11741952D01*
X14953810Y-11741952D02*
X14934762Y-11751476D01*
X14934762Y-11751476D02*
X14915714Y-11751476D01*
X14915714Y-11751476D02*
X14896667Y-11741952D01*
X14896667Y-11741952D02*
X14887143Y-11732428D01*
X14887143Y-11732428D02*
X14877619Y-11713381D01*
X14877619Y-11713381D02*
X14868095Y-11675286D01*
X14868095Y-11675286D02*
X14868095Y-11627667D01*
X14868095Y-11627667D02*
X14877619Y-11589571D01*
X14877619Y-11589571D02*
X14887143Y-11570524D01*
X14887143Y-11570524D02*
X14896667Y-11561000D01*
X14896667Y-11561000D02*
X14915714Y-11551476D01*
X15068095Y-11732428D02*
X15077619Y-11741952D01*
X15077619Y-11741952D02*
X15068095Y-11751476D01*
X15068095Y-11751476D02*
X15058571Y-11741952D01*
X15058571Y-11741952D02*
X15068095Y-11732428D01*
X15068095Y-11732428D02*
X15068095Y-11751476D01*
X15201429Y-11551476D02*
X15220476Y-11551476D01*
X15220476Y-11551476D02*
X15239524Y-11561000D01*
X15239524Y-11561000D02*
X15249048Y-11570524D01*
X15249048Y-11570524D02*
X15258571Y-11589571D01*
X15258571Y-11589571D02*
X15268095Y-11627667D01*
X15268095Y-11627667D02*
X15268095Y-11675286D01*
X15268095Y-11675286D02*
X15258571Y-11713381D01*
X15258571Y-11713381D02*
X15249048Y-11732428D01*
X15249048Y-11732428D02*
X15239524Y-11741952D01*
X15239524Y-11741952D02*
X15220476Y-11751476D01*
X15220476Y-11751476D02*
X15201429Y-11751476D01*
X15201429Y-11751476D02*
X15182381Y-11741952D01*
X15182381Y-11741952D02*
X15172857Y-11732428D01*
X15172857Y-11732428D02*
X15163333Y-11713381D01*
X15163333Y-11713381D02*
X15153810Y-11675286D01*
X15153810Y-11675286D02*
X15153810Y-11627667D01*
X15153810Y-11627667D02*
X15163333Y-11589571D01*
X15163333Y-11589571D02*
X15172857Y-11570524D01*
X15172857Y-11570524D02*
X15182381Y-11561000D01*
X15182381Y-11561000D02*
X15201429Y-11551476D01*
X15344286Y-11570524D02*
X15353810Y-11561000D01*
X15353810Y-11561000D02*
X15372857Y-11551476D01*
X15372857Y-11551476D02*
X15420476Y-11551476D01*
X15420476Y-11551476D02*
X15439524Y-11561000D01*
X15439524Y-11561000D02*
X15449048Y-11570524D01*
X15449048Y-11570524D02*
X15458571Y-11589571D01*
X15458571Y-11589571D02*
X15458571Y-11608619D01*
X15458571Y-11608619D02*
X15449048Y-11637190D01*
X15449048Y-11637190D02*
X15334762Y-11751476D01*
X15334762Y-11751476D02*
X15458571Y-11751476D01*
X15525238Y-11551476D02*
X15658571Y-11551476D01*
X15658571Y-11551476D02*
X15572857Y-11751476D01*
X15820476Y-11551476D02*
X15782381Y-11551476D01*
X15782381Y-11551476D02*
X15763333Y-11561000D01*
X15763333Y-11561000D02*
X15753810Y-11570524D01*
X15753810Y-11570524D02*
X15734762Y-11599095D01*
X15734762Y-11599095D02*
X15725238Y-11637190D01*
X15725238Y-11637190D02*
X15725238Y-11713381D01*
X15725238Y-11713381D02*
X15734762Y-11732428D01*
X15734762Y-11732428D02*
X15744286Y-11741952D01*
X15744286Y-11741952D02*
X15763333Y-11751476D01*
X15763333Y-11751476D02*
X15801429Y-11751476D01*
X15801429Y-11751476D02*
X15820476Y-11741952D01*
X15820476Y-11741952D02*
X15830000Y-11732428D01*
X15830000Y-11732428D02*
X15839524Y-11713381D01*
X15839524Y-11713381D02*
X15839524Y-11665762D01*
X15839524Y-11665762D02*
X15830000Y-11646714D01*
X15830000Y-11646714D02*
X15820476Y-11637190D01*
X15820476Y-11637190D02*
X15801429Y-11627667D01*
X15801429Y-11627667D02*
X15763333Y-11627667D01*
X15763333Y-11627667D02*
X15744286Y-11637190D01*
X15744286Y-11637190D02*
X15734762Y-11646714D01*
X15734762Y-11646714D02*
X15725238Y-11665762D01*
X15915714Y-11551476D02*
X15915714Y-11589571D01*
X15991905Y-11551476D02*
X15991905Y-11589571D01*
X16254762Y-11827667D02*
X16245238Y-11818143D01*
X16245238Y-11818143D02*
X16226191Y-11789571D01*
X16226191Y-11789571D02*
X16216667Y-11770524D01*
X16216667Y-11770524D02*
X16207143Y-11741952D01*
X16207143Y-11741952D02*
X16197619Y-11694333D01*
X16197619Y-11694333D02*
X16197619Y-11656238D01*
X16197619Y-11656238D02*
X16207143Y-11608619D01*
X16207143Y-11608619D02*
X16216667Y-11580048D01*
X16216667Y-11580048D02*
X16226191Y-11561000D01*
X16226191Y-11561000D02*
X16245238Y-11532428D01*
X16245238Y-11532428D02*
X16254762Y-11522905D01*
X16416667Y-11618143D02*
X16416667Y-11751476D01*
X16369048Y-11541952D02*
X16321429Y-11684809D01*
X16321429Y-11684809D02*
X16445238Y-11684809D01*
X16641429Y-11751476D02*
X16641429Y-11551476D01*
X16727143Y-11751476D02*
X16727143Y-11646714D01*
X16727143Y-11646714D02*
X16717619Y-11627667D01*
X16717619Y-11627667D02*
X16698572Y-11618143D01*
X16698572Y-11618143D02*
X16670000Y-11618143D01*
X16670000Y-11618143D02*
X16650952Y-11627667D01*
X16650952Y-11627667D02*
X16641429Y-11637190D01*
X16850953Y-11751476D02*
X16831905Y-11741952D01*
X16831905Y-11741952D02*
X16822381Y-11732428D01*
X16822381Y-11732428D02*
X16812857Y-11713381D01*
X16812857Y-11713381D02*
X16812857Y-11656238D01*
X16812857Y-11656238D02*
X16822381Y-11637190D01*
X16822381Y-11637190D02*
X16831905Y-11627667D01*
X16831905Y-11627667D02*
X16850953Y-11618143D01*
X16850953Y-11618143D02*
X16879524Y-11618143D01*
X16879524Y-11618143D02*
X16898572Y-11627667D01*
X16898572Y-11627667D02*
X16908095Y-11637190D01*
X16908095Y-11637190D02*
X16917619Y-11656238D01*
X16917619Y-11656238D02*
X16917619Y-11713381D01*
X16917619Y-11713381D02*
X16908095Y-11732428D01*
X16908095Y-11732428D02*
X16898572Y-11741952D01*
X16898572Y-11741952D02*
X16879524Y-11751476D01*
X16879524Y-11751476D02*
X16850953Y-11751476D01*
X17031905Y-11751476D02*
X17012857Y-11741952D01*
X17012857Y-11741952D02*
X17003334Y-11722905D01*
X17003334Y-11722905D02*
X17003334Y-11551476D01*
X17184286Y-11741952D02*
X17165238Y-11751476D01*
X17165238Y-11751476D02*
X17127143Y-11751476D01*
X17127143Y-11751476D02*
X17108095Y-11741952D01*
X17108095Y-11741952D02*
X17098572Y-11722905D01*
X17098572Y-11722905D02*
X17098572Y-11646714D01*
X17098572Y-11646714D02*
X17108095Y-11627667D01*
X17108095Y-11627667D02*
X17127143Y-11618143D01*
X17127143Y-11618143D02*
X17165238Y-11618143D01*
X17165238Y-11618143D02*
X17184286Y-11627667D01*
X17184286Y-11627667D02*
X17193810Y-11646714D01*
X17193810Y-11646714D02*
X17193810Y-11665762D01*
X17193810Y-11665762D02*
X17098572Y-11684809D01*
X17270000Y-11741952D02*
X17289048Y-11751476D01*
X17289048Y-11751476D02*
X17327143Y-11751476D01*
X17327143Y-11751476D02*
X17346191Y-11741952D01*
X17346191Y-11741952D02*
X17355715Y-11722905D01*
X17355715Y-11722905D02*
X17355715Y-11713381D01*
X17355715Y-11713381D02*
X17346191Y-11694333D01*
X17346191Y-11694333D02*
X17327143Y-11684809D01*
X17327143Y-11684809D02*
X17298572Y-11684809D01*
X17298572Y-11684809D02*
X17279524Y-11675286D01*
X17279524Y-11675286D02*
X17270000Y-11656238D01*
X17270000Y-11656238D02*
X17270000Y-11646714D01*
X17270000Y-11646714D02*
X17279524Y-11627667D01*
X17279524Y-11627667D02*
X17298572Y-11618143D01*
X17298572Y-11618143D02*
X17327143Y-11618143D01*
X17327143Y-11618143D02*
X17346191Y-11627667D01*
X17422381Y-11827667D02*
X17431905Y-11818143D01*
X17431905Y-11818143D02*
X17450953Y-11789571D01*
X17450953Y-11789571D02*
X17460476Y-11770524D01*
X17460476Y-11770524D02*
X17470000Y-11741952D01*
X17470000Y-11741952D02*
X17479524Y-11694333D01*
X17479524Y-11694333D02*
X17479524Y-11656238D01*
X17479524Y-11656238D02*
X17470000Y-11608619D01*
X17470000Y-11608619D02*
X17460476Y-11580048D01*
X17460476Y-11580048D02*
X17450953Y-11561000D01*
X17450953Y-11561000D02*
X17431905Y-11532428D01*
X17431905Y-11532428D02*
X17422381Y-11522905D01*
D14*
X12778284Y-11970284D02*
X12778284Y-11913715D01*
X12721715Y-11913715D01*
X12721715Y-11970284D01*
X12778284Y-11970284D01*
D10*
X13075714Y-11815476D02*
X13094762Y-11815476D01*
X13094762Y-11815476D02*
X13113809Y-11825000D01*
X13113809Y-11825000D02*
X13123333Y-11834524D01*
X13123333Y-11834524D02*
X13132857Y-11853571D01*
X13132857Y-11853571D02*
X13142381Y-11891667D01*
X13142381Y-11891667D02*
X13142381Y-11939286D01*
X13142381Y-11939286D02*
X13132857Y-11977381D01*
X13132857Y-11977381D02*
X13123333Y-11996428D01*
X13123333Y-11996428D02*
X13113809Y-12005952D01*
X13113809Y-12005952D02*
X13094762Y-12015476D01*
X13094762Y-12015476D02*
X13075714Y-12015476D01*
X13075714Y-12015476D02*
X13056667Y-12005952D01*
X13056667Y-12005952D02*
X13047143Y-11996428D01*
X13047143Y-11996428D02*
X13037619Y-11977381D01*
X13037619Y-11977381D02*
X13028095Y-11939286D01*
X13028095Y-11939286D02*
X13028095Y-11891667D01*
X13028095Y-11891667D02*
X13037619Y-11853571D01*
X13037619Y-11853571D02*
X13047143Y-11834524D01*
X13047143Y-11834524D02*
X13056667Y-11825000D01*
X13056667Y-11825000D02*
X13075714Y-11815476D01*
X13228095Y-11996428D02*
X13237619Y-12005952D01*
X13237619Y-12005952D02*
X13228095Y-12015476D01*
X13228095Y-12015476D02*
X13218571Y-12005952D01*
X13218571Y-12005952D02*
X13228095Y-11996428D01*
X13228095Y-11996428D02*
X13228095Y-12015476D01*
X13351905Y-11901190D02*
X13332857Y-11891667D01*
X13332857Y-11891667D02*
X13323333Y-11882143D01*
X13323333Y-11882143D02*
X13313809Y-11863095D01*
X13313809Y-11863095D02*
X13313809Y-11853571D01*
X13313809Y-11853571D02*
X13323333Y-11834524D01*
X13323333Y-11834524D02*
X13332857Y-11825000D01*
X13332857Y-11825000D02*
X13351905Y-11815476D01*
X13351905Y-11815476D02*
X13390000Y-11815476D01*
X13390000Y-11815476D02*
X13409048Y-11825000D01*
X13409048Y-11825000D02*
X13418571Y-11834524D01*
X13418571Y-11834524D02*
X13428095Y-11853571D01*
X13428095Y-11853571D02*
X13428095Y-11863095D01*
X13428095Y-11863095D02*
X13418571Y-11882143D01*
X13418571Y-11882143D02*
X13409048Y-11891667D01*
X13409048Y-11891667D02*
X13390000Y-11901190D01*
X13390000Y-11901190D02*
X13351905Y-11901190D01*
X13351905Y-11901190D02*
X13332857Y-11910714D01*
X13332857Y-11910714D02*
X13323333Y-11920238D01*
X13323333Y-11920238D02*
X13313809Y-11939286D01*
X13313809Y-11939286D02*
X13313809Y-11977381D01*
X13313809Y-11977381D02*
X13323333Y-11996428D01*
X13323333Y-11996428D02*
X13332857Y-12005952D01*
X13332857Y-12005952D02*
X13351905Y-12015476D01*
X13351905Y-12015476D02*
X13390000Y-12015476D01*
X13390000Y-12015476D02*
X13409048Y-12005952D01*
X13409048Y-12005952D02*
X13418571Y-11996428D01*
X13418571Y-11996428D02*
X13428095Y-11977381D01*
X13428095Y-11977381D02*
X13428095Y-11939286D01*
X13428095Y-11939286D02*
X13418571Y-11920238D01*
X13418571Y-11920238D02*
X13409048Y-11910714D01*
X13409048Y-11910714D02*
X13390000Y-11901190D01*
X13551905Y-11815476D02*
X13570952Y-11815476D01*
X13570952Y-11815476D02*
X13590000Y-11825000D01*
X13590000Y-11825000D02*
X13599524Y-11834524D01*
X13599524Y-11834524D02*
X13609048Y-11853571D01*
X13609048Y-11853571D02*
X13618571Y-11891667D01*
X13618571Y-11891667D02*
X13618571Y-11939286D01*
X13618571Y-11939286D02*
X13609048Y-11977381D01*
X13609048Y-11977381D02*
X13599524Y-11996428D01*
X13599524Y-11996428D02*
X13590000Y-12005952D01*
X13590000Y-12005952D02*
X13570952Y-12015476D01*
X13570952Y-12015476D02*
X13551905Y-12015476D01*
X13551905Y-12015476D02*
X13532857Y-12005952D01*
X13532857Y-12005952D02*
X13523333Y-11996428D01*
X13523333Y-11996428D02*
X13513809Y-11977381D01*
X13513809Y-11977381D02*
X13504286Y-11939286D01*
X13504286Y-11939286D02*
X13504286Y-11891667D01*
X13504286Y-11891667D02*
X13513809Y-11853571D01*
X13513809Y-11853571D02*
X13523333Y-11834524D01*
X13523333Y-11834524D02*
X13532857Y-11825000D01*
X13532857Y-11825000D02*
X13551905Y-11815476D01*
X13742381Y-11815476D02*
X13761429Y-11815476D01*
X13761429Y-11815476D02*
X13780476Y-11825000D01*
X13780476Y-11825000D02*
X13790000Y-11834524D01*
X13790000Y-11834524D02*
X13799524Y-11853571D01*
X13799524Y-11853571D02*
X13809048Y-11891667D01*
X13809048Y-11891667D02*
X13809048Y-11939286D01*
X13809048Y-11939286D02*
X13799524Y-11977381D01*
X13799524Y-11977381D02*
X13790000Y-11996428D01*
X13790000Y-11996428D02*
X13780476Y-12005952D01*
X13780476Y-12005952D02*
X13761429Y-12015476D01*
X13761429Y-12015476D02*
X13742381Y-12015476D01*
X13742381Y-12015476D02*
X13723333Y-12005952D01*
X13723333Y-12005952D02*
X13713809Y-11996428D01*
X13713809Y-11996428D02*
X13704286Y-11977381D01*
X13704286Y-11977381D02*
X13694762Y-11939286D01*
X13694762Y-11939286D02*
X13694762Y-11891667D01*
X13694762Y-11891667D02*
X13704286Y-11853571D01*
X13704286Y-11853571D02*
X13713809Y-11834524D01*
X13713809Y-11834524D02*
X13723333Y-11825000D01*
X13723333Y-11825000D02*
X13742381Y-11815476D01*
X13894762Y-12015476D02*
X13894762Y-11882143D01*
X13894762Y-11901190D02*
X13904286Y-11891667D01*
X13904286Y-11891667D02*
X13923333Y-11882143D01*
X13923333Y-11882143D02*
X13951905Y-11882143D01*
X13951905Y-11882143D02*
X13970952Y-11891667D01*
X13970952Y-11891667D02*
X13980476Y-11910714D01*
X13980476Y-11910714D02*
X13980476Y-12015476D01*
X13980476Y-11910714D02*
X13990000Y-11891667D01*
X13990000Y-11891667D02*
X14009048Y-11882143D01*
X14009048Y-11882143D02*
X14037619Y-11882143D01*
X14037619Y-11882143D02*
X14056667Y-11891667D01*
X14056667Y-11891667D02*
X14066190Y-11910714D01*
X14066190Y-11910714D02*
X14066190Y-12015476D01*
X14161429Y-12015476D02*
X14161429Y-11882143D01*
X14161429Y-11901190D02*
X14170952Y-11891667D01*
X14170952Y-11891667D02*
X14190000Y-11882143D01*
X14190000Y-11882143D02*
X14218571Y-11882143D01*
X14218571Y-11882143D02*
X14237619Y-11891667D01*
X14237619Y-11891667D02*
X14247143Y-11910714D01*
X14247143Y-11910714D02*
X14247143Y-12015476D01*
X14247143Y-11910714D02*
X14256667Y-11891667D01*
X14256667Y-11891667D02*
X14275714Y-11882143D01*
X14275714Y-11882143D02*
X14304286Y-11882143D01*
X14304286Y-11882143D02*
X14323333Y-11891667D01*
X14323333Y-11891667D02*
X14332857Y-11910714D01*
X14332857Y-11910714D02*
X14332857Y-12015476D01*
X14690952Y-11805952D02*
X14519524Y-12063095D01*
X14915714Y-11815476D02*
X14934762Y-11815476D01*
X14934762Y-11815476D02*
X14953810Y-11825000D01*
X14953810Y-11825000D02*
X14963333Y-11834524D01*
X14963333Y-11834524D02*
X14972857Y-11853571D01*
X14972857Y-11853571D02*
X14982381Y-11891667D01*
X14982381Y-11891667D02*
X14982381Y-11939286D01*
X14982381Y-11939286D02*
X14972857Y-11977381D01*
X14972857Y-11977381D02*
X14963333Y-11996428D01*
X14963333Y-11996428D02*
X14953810Y-12005952D01*
X14953810Y-12005952D02*
X14934762Y-12015476D01*
X14934762Y-12015476D02*
X14915714Y-12015476D01*
X14915714Y-12015476D02*
X14896667Y-12005952D01*
X14896667Y-12005952D02*
X14887143Y-11996428D01*
X14887143Y-11996428D02*
X14877619Y-11977381D01*
X14877619Y-11977381D02*
X14868095Y-11939286D01*
X14868095Y-11939286D02*
X14868095Y-11891667D01*
X14868095Y-11891667D02*
X14877619Y-11853571D01*
X14877619Y-11853571D02*
X14887143Y-11834524D01*
X14887143Y-11834524D02*
X14896667Y-11825000D01*
X14896667Y-11825000D02*
X14915714Y-11815476D01*
X15068095Y-11996428D02*
X15077619Y-12005952D01*
X15077619Y-12005952D02*
X15068095Y-12015476D01*
X15068095Y-12015476D02*
X15058571Y-12005952D01*
X15058571Y-12005952D02*
X15068095Y-11996428D01*
X15068095Y-11996428D02*
X15068095Y-12015476D01*
X15201429Y-11815476D02*
X15220476Y-11815476D01*
X15220476Y-11815476D02*
X15239524Y-11825000D01*
X15239524Y-11825000D02*
X15249048Y-11834524D01*
X15249048Y-11834524D02*
X15258571Y-11853571D01*
X15258571Y-11853571D02*
X15268095Y-11891667D01*
X15268095Y-11891667D02*
X15268095Y-11939286D01*
X15268095Y-11939286D02*
X15258571Y-11977381D01*
X15258571Y-11977381D02*
X15249048Y-11996428D01*
X15249048Y-11996428D02*
X15239524Y-12005952D01*
X15239524Y-12005952D02*
X15220476Y-12015476D01*
X15220476Y-12015476D02*
X15201429Y-12015476D01*
X15201429Y-12015476D02*
X15182381Y-12005952D01*
X15182381Y-12005952D02*
X15172857Y-11996428D01*
X15172857Y-11996428D02*
X15163333Y-11977381D01*
X15163333Y-11977381D02*
X15153810Y-11939286D01*
X15153810Y-11939286D02*
X15153810Y-11891667D01*
X15153810Y-11891667D02*
X15163333Y-11853571D01*
X15163333Y-11853571D02*
X15172857Y-11834524D01*
X15172857Y-11834524D02*
X15182381Y-11825000D01*
X15182381Y-11825000D02*
X15201429Y-11815476D01*
X15334762Y-11815476D02*
X15458571Y-11815476D01*
X15458571Y-11815476D02*
X15391905Y-11891667D01*
X15391905Y-11891667D02*
X15420476Y-11891667D01*
X15420476Y-11891667D02*
X15439524Y-11901190D01*
X15439524Y-11901190D02*
X15449048Y-11910714D01*
X15449048Y-11910714D02*
X15458571Y-11929762D01*
X15458571Y-11929762D02*
X15458571Y-11977381D01*
X15458571Y-11977381D02*
X15449048Y-11996428D01*
X15449048Y-11996428D02*
X15439524Y-12005952D01*
X15439524Y-12005952D02*
X15420476Y-12015476D01*
X15420476Y-12015476D02*
X15363333Y-12015476D01*
X15363333Y-12015476D02*
X15344286Y-12005952D01*
X15344286Y-12005952D02*
X15334762Y-11996428D01*
X15649048Y-12015476D02*
X15534762Y-12015476D01*
X15591905Y-12015476D02*
X15591905Y-11815476D01*
X15591905Y-11815476D02*
X15572857Y-11844048D01*
X15572857Y-11844048D02*
X15553810Y-11863095D01*
X15553810Y-11863095D02*
X15534762Y-11872619D01*
X15830000Y-11815476D02*
X15734762Y-11815476D01*
X15734762Y-11815476D02*
X15725238Y-11910714D01*
X15725238Y-11910714D02*
X15734762Y-11901190D01*
X15734762Y-11901190D02*
X15753810Y-11891667D01*
X15753810Y-11891667D02*
X15801429Y-11891667D01*
X15801429Y-11891667D02*
X15820476Y-11901190D01*
X15820476Y-11901190D02*
X15830000Y-11910714D01*
X15830000Y-11910714D02*
X15839524Y-11929762D01*
X15839524Y-11929762D02*
X15839524Y-11977381D01*
X15839524Y-11977381D02*
X15830000Y-11996428D01*
X15830000Y-11996428D02*
X15820476Y-12005952D01*
X15820476Y-12005952D02*
X15801429Y-12015476D01*
X15801429Y-12015476D02*
X15753810Y-12015476D01*
X15753810Y-12015476D02*
X15734762Y-12005952D01*
X15734762Y-12005952D02*
X15725238Y-11996428D01*
X15915714Y-11815476D02*
X15915714Y-11853571D01*
X15991905Y-11815476D02*
X15991905Y-11853571D01*
X16254762Y-12091667D02*
X16245238Y-12082143D01*
X16245238Y-12082143D02*
X16226191Y-12053571D01*
X16226191Y-12053571D02*
X16216667Y-12034524D01*
X16216667Y-12034524D02*
X16207143Y-12005952D01*
X16207143Y-12005952D02*
X16197619Y-11958333D01*
X16197619Y-11958333D02*
X16197619Y-11920238D01*
X16197619Y-11920238D02*
X16207143Y-11872619D01*
X16207143Y-11872619D02*
X16216667Y-11844048D01*
X16216667Y-11844048D02*
X16226191Y-11825000D01*
X16226191Y-11825000D02*
X16245238Y-11796428D01*
X16245238Y-11796428D02*
X16254762Y-11786905D01*
X16426191Y-11815476D02*
X16330952Y-11815476D01*
X16330952Y-11815476D02*
X16321429Y-11910714D01*
X16321429Y-11910714D02*
X16330952Y-11901190D01*
X16330952Y-11901190D02*
X16350000Y-11891667D01*
X16350000Y-11891667D02*
X16397619Y-11891667D01*
X16397619Y-11891667D02*
X16416667Y-11901190D01*
X16416667Y-11901190D02*
X16426191Y-11910714D01*
X16426191Y-11910714D02*
X16435714Y-11929762D01*
X16435714Y-11929762D02*
X16435714Y-11977381D01*
X16435714Y-11977381D02*
X16426191Y-11996428D01*
X16426191Y-11996428D02*
X16416667Y-12005952D01*
X16416667Y-12005952D02*
X16397619Y-12015476D01*
X16397619Y-12015476D02*
X16350000Y-12015476D01*
X16350000Y-12015476D02*
X16330952Y-12005952D01*
X16330952Y-12005952D02*
X16321429Y-11996428D01*
X16641429Y-12015476D02*
X16641429Y-11815476D01*
X16727143Y-12015476D02*
X16727143Y-11910714D01*
X16727143Y-11910714D02*
X16717619Y-11891667D01*
X16717619Y-11891667D02*
X16698572Y-11882143D01*
X16698572Y-11882143D02*
X16670000Y-11882143D01*
X16670000Y-11882143D02*
X16650952Y-11891667D01*
X16650952Y-11891667D02*
X16641429Y-11901190D01*
X16850953Y-12015476D02*
X16831905Y-12005952D01*
X16831905Y-12005952D02*
X16822381Y-11996428D01*
X16822381Y-11996428D02*
X16812857Y-11977381D01*
X16812857Y-11977381D02*
X16812857Y-11920238D01*
X16812857Y-11920238D02*
X16822381Y-11901190D01*
X16822381Y-11901190D02*
X16831905Y-11891667D01*
X16831905Y-11891667D02*
X16850953Y-11882143D01*
X16850953Y-11882143D02*
X16879524Y-11882143D01*
X16879524Y-11882143D02*
X16898572Y-11891667D01*
X16898572Y-11891667D02*
X16908095Y-11901190D01*
X16908095Y-11901190D02*
X16917619Y-11920238D01*
X16917619Y-11920238D02*
X16917619Y-11977381D01*
X16917619Y-11977381D02*
X16908095Y-11996428D01*
X16908095Y-11996428D02*
X16898572Y-12005952D01*
X16898572Y-12005952D02*
X16879524Y-12015476D01*
X16879524Y-12015476D02*
X16850953Y-12015476D01*
X17031905Y-12015476D02*
X17012857Y-12005952D01*
X17012857Y-12005952D02*
X17003334Y-11986905D01*
X17003334Y-11986905D02*
X17003334Y-11815476D01*
X17184286Y-12005952D02*
X17165238Y-12015476D01*
X17165238Y-12015476D02*
X17127143Y-12015476D01*
X17127143Y-12015476D02*
X17108095Y-12005952D01*
X17108095Y-12005952D02*
X17098572Y-11986905D01*
X17098572Y-11986905D02*
X17098572Y-11910714D01*
X17098572Y-11910714D02*
X17108095Y-11891667D01*
X17108095Y-11891667D02*
X17127143Y-11882143D01*
X17127143Y-11882143D02*
X17165238Y-11882143D01*
X17165238Y-11882143D02*
X17184286Y-11891667D01*
X17184286Y-11891667D02*
X17193810Y-11910714D01*
X17193810Y-11910714D02*
X17193810Y-11929762D01*
X17193810Y-11929762D02*
X17098572Y-11948809D01*
X17270000Y-12005952D02*
X17289048Y-12015476D01*
X17289048Y-12015476D02*
X17327143Y-12015476D01*
X17327143Y-12015476D02*
X17346191Y-12005952D01*
X17346191Y-12005952D02*
X17355715Y-11986905D01*
X17355715Y-11986905D02*
X17355715Y-11977381D01*
X17355715Y-11977381D02*
X17346191Y-11958333D01*
X17346191Y-11958333D02*
X17327143Y-11948809D01*
X17327143Y-11948809D02*
X17298572Y-11948809D01*
X17298572Y-11948809D02*
X17279524Y-11939286D01*
X17279524Y-11939286D02*
X17270000Y-11920238D01*
X17270000Y-11920238D02*
X17270000Y-11910714D01*
X17270000Y-11910714D02*
X17279524Y-11891667D01*
X17279524Y-11891667D02*
X17298572Y-11882143D01*
X17298572Y-11882143D02*
X17327143Y-11882143D01*
X17327143Y-11882143D02*
X17346191Y-11891667D01*
X17422381Y-12091667D02*
X17431905Y-12082143D01*
X17431905Y-12082143D02*
X17450953Y-12053571D01*
X17450953Y-12053571D02*
X17460476Y-12034524D01*
X17460476Y-12034524D02*
X17470000Y-12005952D01*
X17470000Y-12005952D02*
X17479524Y-11958333D01*
X17479524Y-11958333D02*
X17479524Y-11920238D01*
X17479524Y-11920238D02*
X17470000Y-11872619D01*
X17470000Y-11872619D02*
X17460476Y-11844048D01*
X17460476Y-11844048D02*
X17450953Y-11825000D01*
X17450953Y-11825000D02*
X17431905Y-11796428D01*
X17431905Y-11796428D02*
X17422381Y-11786905D01*
M02*
